<svg width="200" height="200" viewBox="0 0 200 200" fill="none" xmlns="http://www.w3.org/2000/svg">
<path fill-rule="evenodd" clip-rule="evenodd" d="M142.591 112.654C142.808 111.364 142.907 110.346 142.89 109.602C142.873 108.857 142.63 108.32 142.163 107.991C141.695 107.662 140.881 107.498 139.721 107.498H138.266C137.634 107.498 137.149 107.549 136.811 107.653C136.474 107.749 136.205 107.956 136.006 108.277C135.798 108.606 135.603 109.108 135.422 109.783L133.603 116.563L133.447 117.122H133.46L131.759 123.46C131.568 124.118 131.503 124.616 131.564 124.954C131.616 125.283 131.832 125.504 132.213 125.616C132.586 125.72 133.149 125.794 133.902 125.837L133.772 126.383C133.287 126.348 132.677 126.326 131.941 126.318C131.213 126.309 130.473 126.305 129.72 126.305C129.001 126.305 128.334 126.309 127.719 126.318C127.105 126.326 126.602 126.348 126.213 126.383L126.356 125.837C126.979 125.794 127.464 125.72 127.81 125.616C128.157 125.504 128.429 125.283 128.629 124.954C128.819 124.616 129.005 124.118 129.187 123.46L132.863 109.783C133.045 109.108 133.123 108.606 133.097 108.277C133.062 107.956 132.902 107.736 132.616 107.614C132.339 107.502 131.884 107.437 131.252 107.42L131.395 106.861C132.079 106.878 132.798 106.891 133.551 106.9C134.305 106.909 135.049 106.917 135.785 106.926C136.513 106.935 137.197 106.939 137.838 106.939C138.47 106.939 138.989 106.939 139.396 106.939C140.201 106.939 141.115 106.935 142.137 106.926C143.158 106.917 144.072 106.896 144.877 106.861C144.635 107.562 144.41 108.238 144.202 108.887C143.994 109.537 143.843 110.039 143.747 110.394C143.617 110.836 143.513 111.247 143.436 111.628C143.349 112.018 143.28 112.36 143.228 112.654H142.591ZM133.447 117.122L133.603 116.563H135.616L135.474 117.122H133.447ZM135.616 116.563L135.474 117.122C136.08 117.122 136.521 117.226 136.798 117.434C137.067 117.65 137.231 117.932 137.292 118.278C137.344 118.624 137.344 119.014 137.292 119.447C137.231 119.88 137.175 120.317 137.123 120.759H137.76C137.976 119.711 138.149 118.91 138.279 118.356C138.409 117.81 138.53 117.308 138.643 116.849C138.773 116.382 138.907 115.875 139.045 115.33C139.175 114.775 139.418 113.974 139.773 112.927H139.136C139.006 113.256 138.859 113.628 138.695 114.044C138.53 114.459 138.318 114.858 138.058 115.239C137.799 115.628 137.478 115.949 137.097 116.2C136.707 116.442 136.21 116.563 135.603 116.563H135.616Z" fill="black"/>
<path d="M145.591 124.045C145.444 124.573 145.401 124.989 145.462 125.292C145.514 125.595 145.713 125.746 146.059 125.746C146.431 125.746 146.778 125.539 147.098 125.123C147.418 124.716 147.765 123.989 148.137 122.941L148.488 121.915H149.007L148.319 123.928C148.085 124.629 147.799 125.188 147.462 125.604C147.115 126.011 146.743 126.309 146.345 126.5C145.938 126.682 145.496 126.773 145.02 126.773C144.414 126.773 143.968 126.656 143.682 126.422C143.396 126.197 143.219 125.889 143.15 125.5C143.089 125.119 143.102 124.703 143.189 124.253C143.266 123.802 143.37 123.357 143.5 122.915L147.994 107.991C148.176 107.368 148.159 106.909 147.942 106.614C147.717 106.32 147.154 106.173 146.254 106.173L146.449 105.588C147.462 105.571 148.354 105.467 149.124 105.277C149.895 105.086 150.64 104.813 151.358 104.458L145.591 124.045Z" fill="black"/>
<path fill-rule="evenodd" clip-rule="evenodd" d="M150.994 122.434C150.994 121.629 151.107 120.75 151.332 119.798C151.549 118.836 151.878 117.888 152.319 116.953C152.761 116.018 153.298 115.165 153.93 114.394C154.571 113.615 155.311 112.992 156.151 112.524C156.999 112.056 157.939 111.823 158.969 111.823C160.104 111.823 161.017 112.178 161.71 112.888C162.403 113.598 162.749 114.684 162.749 116.148C162.749 116.962 162.636 117.845 162.411 118.798C162.195 119.759 161.866 120.707 161.424 121.642C160.983 122.577 160.446 123.43 159.814 124.201C159.173 124.971 158.433 125.595 157.593 126.071C156.744 126.539 155.804 126.772 154.774 126.772C153.64 126.772 152.726 126.413 152.033 125.694C151.341 124.976 150.994 123.889 150.994 122.434ZM158.801 112.381C158.212 112.381 157.649 112.615 157.112 113.083C156.566 113.55 156.069 114.182 155.618 114.979C155.168 115.784 154.774 116.68 154.436 117.668C154.09 118.663 153.826 119.694 153.644 120.759C153.462 121.824 153.371 122.846 153.371 123.824C153.371 124.647 153.506 125.253 153.774 125.642C154.034 126.023 154.423 126.214 154.943 126.214C155.532 126.214 156.095 125.98 156.631 125.513C157.177 125.045 157.679 124.413 158.138 123.616C158.597 122.811 158.991 121.915 159.32 120.928C159.658 119.932 159.918 118.906 160.099 117.849C160.281 116.793 160.372 115.767 160.372 114.771C160.372 113.931 160.242 113.321 159.982 112.94C159.731 112.567 159.337 112.381 158.801 112.381Z" fill="black"/>
<path d="M167.217 126.383H164.814L168.126 114.55C168.308 113.927 168.365 113.485 168.295 113.225C168.235 112.974 168.049 112.849 167.737 112.849C167.33 112.849 166.962 113.061 166.633 113.485C166.304 113.901 165.953 114.624 165.581 115.654L165.23 116.68H164.697L165.386 114.667C165.663 113.897 165.992 113.308 166.373 112.901C166.745 112.494 167.139 112.212 167.555 112.056C167.971 111.901 168.36 111.823 168.724 111.823C169.278 111.823 169.672 111.944 169.906 112.186C170.131 112.42 170.257 112.732 170.283 113.122C170.309 113.511 170.283 113.931 170.205 114.381C170.118 114.832 170.023 115.265 169.919 115.68L167.217 126.383ZM174.296 112.524C173.872 112.524 173.434 112.719 172.984 113.109C172.534 113.507 172.075 114.078 171.607 114.823C171.14 115.568 170.672 116.46 170.205 117.499C169.737 118.538 169.278 119.689 168.828 120.954C168.378 122.226 167.94 123.595 167.516 125.058L168.204 121.538C168.811 119.737 169.378 118.222 169.906 116.992C170.425 115.754 170.941 114.754 171.452 113.992C171.971 113.23 172.504 112.68 173.049 112.342C173.586 112.005 174.157 111.836 174.764 111.836C175.283 111.836 175.686 111.983 175.972 112.277C176.249 112.563 176.387 112.94 176.387 113.407C176.387 113.771 176.296 114.104 176.114 114.407C175.933 114.71 175.699 114.949 175.413 115.122C175.127 115.295 174.811 115.382 174.465 115.382C174.153 115.382 173.889 115.295 173.673 115.122C173.465 114.949 173.361 114.706 173.361 114.394C173.361 114.1 173.417 113.836 173.53 113.602C173.634 113.377 173.781 113.182 173.971 113.018C174.153 112.853 174.361 112.723 174.595 112.628C174.56 112.593 174.521 112.567 174.478 112.55C174.435 112.533 174.374 112.524 174.296 112.524Z" fill="black"/>
<path d="M179.972 114.551C180.362 113.416 180.236 112.849 179.595 112.849C179.171 112.849 178.794 113.079 178.465 113.538C178.128 113.996 177.777 114.702 177.413 115.655L177.024 116.681H176.504L177.219 114.668C177.496 113.897 177.829 113.308 178.219 112.901C178.6 112.494 179.007 112.213 179.44 112.057C179.872 111.901 180.271 111.823 180.634 111.823C181.223 111.823 181.656 111.944 181.933 112.187C182.21 112.421 182.375 112.732 182.427 113.122C182.488 113.512 182.47 113.932 182.375 114.382C182.28 114.832 182.158 115.265 182.011 115.681L179.063 124.045C178.881 124.573 178.825 124.989 178.894 125.292C178.955 125.595 179.158 125.747 179.504 125.747C179.877 125.747 180.228 125.548 180.557 125.149C180.886 124.742 181.254 124.006 181.661 122.941L182.05 121.915H182.57L181.855 123.928C181.596 124.647 181.284 125.214 180.92 125.63C180.548 126.037 180.15 126.331 179.725 126.513C179.301 126.686 178.881 126.773 178.465 126.773C177.669 126.773 177.136 126.587 176.868 126.214C176.591 125.851 176.487 125.374 176.556 124.786C176.634 124.197 176.79 123.573 177.024 122.915L179.972 114.551ZM180.829 107.186C180.925 106.71 181.167 106.294 181.557 105.939C181.955 105.593 182.384 105.42 182.843 105.42C183.319 105.42 183.691 105.593 183.96 105.939C184.228 106.294 184.315 106.71 184.219 107.186C184.133 107.662 183.89 108.074 183.492 108.42C183.094 108.775 182.656 108.953 182.18 108.953C181.721 108.953 181.358 108.775 181.089 108.42C180.821 108.074 180.734 107.662 180.829 107.186Z" fill="black"/>
<path d="M67.361 155.397C68.8698 154.887 70.2404 154.38 71.4729 153.877C72.6983 153.381 73.6758 152.847 74.4054 152.273C75.3828 151.494 76.1549 150.548 76.7216 149.436C77.2883 148.331 77.5716 147.116 77.5716 145.792C77.5716 145.005 77.5185 144.506 77.4122 144.294C77.2989 144.074 77.136 143.964 76.9235 143.964C76.2506 143.964 75.521 144.262 74.7347 144.857C73.9485 145.452 73.18 146.27 72.4291 147.311C71.6712 148.352 70.9735 149.535 70.336 150.86C69.6985 152.184 69.1921 153.597 68.8167 155.099C68.4412 156.594 68.2535 158.085 68.2535 159.572C68.2535 160.953 68.5085 161.949 69.0185 162.558C69.5285 163.16 70.205 163.461 71.0479 163.461C72.0183 163.461 73.0454 163.163 74.1291 162.568C75.2058 161.981 76.2576 160.929 77.2847 159.413L77.9328 159.732C77.4228 160.624 76.7499 161.492 75.9141 162.335C75.0712 163.171 74.1291 163.851 73.0879 164.375C72.0537 164.906 70.9558 165.172 69.7941 165.172C68.7104 165.172 67.7612 164.956 66.9467 164.523C66.1392 164.091 65.5194 163.447 65.0873 162.59C64.6552 161.74 64.4392 160.695 64.4392 159.455C64.4392 158.294 64.6552 156.99 65.0873 155.545C65.5194 154.093 66.1356 152.645 66.936 151.2C67.7294 149.755 68.6821 148.427 69.7941 147.215C70.8991 145.997 72.1281 145.023 73.481 144.294C74.8268 143.564 76.2718 143.199 77.816 143.199C78.6518 143.199 79.3601 143.422 79.9409 143.869C80.5218 144.315 80.8122 144.984 80.8122 145.877C80.8122 146.953 80.497 147.959 79.8666 148.894C79.2291 149.822 78.3897 150.672 77.3485 151.444C76.3072 152.216 75.1774 152.9 73.9591 153.495C72.7479 154.09 71.5614 154.603 70.3998 155.035C69.2381 155.467 68.211 155.818 67.3185 156.087L67.361 155.397Z" fill="black"/>
<path d="M86.2415 164.598H82.7247L87.5803 147.215C87.8494 146.295 87.938 145.643 87.8459 145.26C87.7538 144.885 87.4776 144.697 87.0172 144.697C86.4222 144.697 85.8803 145.009 85.3915 145.632C84.9099 146.256 84.3963 147.322 83.8509 148.83L83.3303 150.329H82.5547L83.5747 147.375C83.9784 146.241 84.4565 145.377 85.009 144.782C85.5615 144.187 86.1424 143.773 86.7515 143.539C87.3607 143.313 87.9344 143.199 88.4728 143.199C89.2873 143.199 89.8611 143.373 90.194 143.72C90.534 144.074 90.7252 144.534 90.7677 145.101C90.8102 145.668 90.7677 146.284 90.6402 146.95C90.5198 147.609 90.3782 148.25 90.2152 148.873L86.2415 164.598ZM96.6646 144.209C96.0412 144.209 95.4002 144.499 94.7415 145.08C94.0756 145.661 93.3992 146.5 92.7121 147.598C92.0179 148.689 91.3273 149.999 90.6402 151.529C89.9532 153.052 89.2767 154.745 88.6109 156.608C87.9521 158.478 87.3111 160.493 86.6878 162.653L87.7078 157.468C88.6003 154.819 89.429 152.588 90.194 150.775C90.9661 148.969 91.7311 147.502 92.489 146.376C93.2469 145.257 94.0225 144.446 94.8158 143.943C95.6163 143.447 96.4627 143.199 97.3552 143.199C98.106 143.199 98.6939 143.415 99.1189 143.847C99.5368 144.279 99.7458 144.832 99.7458 145.505C99.7458 146.043 99.6112 146.535 99.3421 146.982C99.0658 147.428 98.7187 147.782 98.3008 148.044C97.8829 148.299 97.4189 148.427 96.9089 148.427C96.4485 148.427 96.0625 148.299 95.7508 148.044C95.4392 147.782 95.2833 147.421 95.2833 146.96C95.2833 146.528 95.3648 146.146 95.5277 145.813C95.6906 145.473 95.9067 145.183 96.1758 144.942C96.445 144.694 96.7567 144.503 97.1108 144.368C97.0542 144.318 96.9939 144.279 96.9302 144.251C96.8594 144.223 96.7708 144.209 96.6646 144.209Z" fill="black"/>
<path fill-rule="evenodd" clip-rule="evenodd" d="M114.376 133.509C113.859 133.509 113.412 133.619 113.037 133.839C112.662 134.051 112.325 134.292 112.028 134.561C111.539 135.022 111.114 135.719 110.753 136.654C110.384 137.582 110.044 138.655 109.733 139.874C109.421 141.092 109.092 142.374 108.745 143.72L105.263 143.693C105.829 141.533 106.386 139.778 107.023 138.376C107.654 136.973 108.429 135.826 109.35 134.933C109.973 134.31 110.735 133.814 111.634 133.446C112.541 133.084 113.469 132.904 114.418 132.904C115.658 132.904 116.61 133.18 117.276 133.733C117.935 134.285 118.264 134.969 118.264 135.783C118.264 136.244 118.144 136.69 117.903 137.122C117.662 137.554 117.337 137.905 116.926 138.174C116.522 138.443 116.065 138.578 115.555 138.578C115.038 138.578 114.631 138.457 114.333 138.216C114.036 137.968 113.901 137.628 113.929 137.196C113.929 136.523 114.146 135.95 114.578 135.475C115.01 135 115.562 134.671 116.235 134.487C116.235 134.239 116.062 134.016 115.714 133.818C115.36 133.612 114.914 133.509 114.376 133.509ZM101.243 171.653C100.592 171.681 99.9577 171.734 99.3415 171.812C98.7181 171.897 98.1373 172.032 97.599 172.216L105.036 144.57H108.511L101.243 171.653ZM113.281 144.57L113.526 143.762L108.745 143.72L108.511 144.57H113.281ZM101.601 143.665L101.328 144.57H108.511L108.745 143.72L101.601 143.665Z" fill="black"/>
<path d="M127.711 150.573C126.74 153.279 125.809 155.563 124.916 157.426C124.024 159.289 123.138 160.787 122.26 161.92C121.382 163.061 120.489 163.886 119.583 164.396C118.676 164.913 117.737 165.172 116.767 165.172C115.577 165.172 114.713 164.899 114.174 164.353C113.636 163.815 113.367 163.086 113.367 162.165C113.367 161.251 113.555 160.213 113.93 159.052L117.861 147.215C118.13 146.401 118.226 145.778 118.148 145.345C118.063 144.913 117.751 144.697 117.213 144.697C116.703 144.697 116.197 144.981 115.694 145.547C115.191 146.114 114.656 147.208 114.089 148.83L113.569 150.329H112.793L113.813 147.375C114.217 146.241 114.695 145.377 115.248 144.782C115.8 144.187 116.381 143.773 116.99 143.539C117.599 143.313 118.173 143.199 118.711 143.199C119.901 143.199 120.691 143.475 121.081 144.028C121.477 144.58 121.626 145.289 121.527 146.153C121.435 147.017 121.226 147.924 120.9 148.873L117.054 160.465C116.296 162.731 116.593 163.865 117.946 163.865C118.591 163.872 119.278 163.581 120.008 162.993C120.737 162.413 121.481 161.577 122.239 160.486C122.997 159.388 123.747 158.078 124.491 156.555C125.235 155.025 125.95 153.321 126.637 151.444C127.325 149.567 127.951 147.548 128.518 145.388L127.711 150.573ZM127.594 161.155C127.402 161.885 127.314 162.483 127.328 162.951C127.342 163.426 127.618 163.663 128.157 163.663C128.752 163.663 129.301 163.344 129.804 162.707C130.299 162.076 130.806 161.017 131.323 159.53L131.854 158.032H132.619L131.61 160.985C131.227 162.126 130.76 162.99 130.207 163.578C129.655 164.173 129.074 164.587 128.465 164.821C127.856 165.048 127.268 165.161 126.701 165.161C126.269 165.161 125.865 165.069 125.49 164.885C125.107 164.693 124.821 164.421 124.629 164.067C124.417 163.606 124.342 163.025 124.406 162.324C124.477 161.623 124.661 160.677 124.959 159.487L128.932 143.762C129.605 143.734 130.261 143.681 130.898 143.603C131.528 143.518 132.102 143.383 132.619 143.199L127.594 161.155Z" fill="black"/>
<path d="M139.504 164.598H135.976L140.843 147.216C140.928 146.968 141.002 146.649 141.066 146.259C141.137 145.87 141.129 145.512 141.044 145.186C140.967 144.86 140.712 144.697 140.279 144.697C139.684 144.697 139.143 145.009 138.654 145.632C138.165 146.256 137.652 147.322 137.113 148.83L136.593 150.329H135.817L136.826 147.375C137.237 146.242 137.719 145.377 138.271 144.782C138.824 144.187 139.405 143.773 140.014 143.539C140.623 143.313 141.197 143.199 141.735 143.199C142.55 143.199 143.13 143.38 143.478 143.741C143.832 144.109 144.027 144.584 144.062 145.165C144.104 145.746 144.058 146.358 143.924 147.003C143.789 147.655 143.64 148.278 143.478 148.873L139.504 164.598ZM150.979 147.895C151.163 147.329 151.29 146.791 151.361 146.281C151.432 145.763 151.393 145.335 151.244 144.995C151.096 144.662 150.763 144.496 150.246 144.496C149.488 144.496 148.655 144.959 147.749 145.887C146.849 146.822 145.932 148.122 144.997 149.787C144.062 151.444 143.162 153.374 142.298 155.577C141.434 157.78 140.666 160.139 139.993 162.654L141.331 156.162C142.571 152.925 143.733 150.36 144.816 148.469C145.893 146.578 146.98 145.225 148.078 144.411C149.176 143.603 150.345 143.199 151.584 143.199C152.449 143.199 153.075 143.394 153.465 143.784C153.862 144.173 154.099 144.68 154.177 145.303C154.262 145.926 154.241 146.589 154.113 147.29C153.993 147.991 153.851 148.668 153.688 149.319L149.555 164.598H145.911L150.979 147.895ZM161.115 147.895C161.384 147.06 161.519 146.284 161.519 145.569C161.519 144.853 161.221 144.496 160.626 144.496C159.812 144.496 158.962 144.967 158.076 145.909C157.184 146.858 156.263 148.204 155.314 149.946C154.372 151.689 153.433 153.729 152.498 156.066C151.563 158.404 150.664 160.975 149.799 163.78L150.734 158.595C151.79 155.783 152.764 153.399 153.656 151.444C154.549 149.482 155.427 147.896 156.291 146.684C157.155 145.466 158.044 144.581 158.958 144.028C159.879 143.468 160.881 143.189 161.965 143.189C163.098 143.189 163.867 143.514 164.271 144.166C164.674 144.818 164.844 145.608 164.781 146.536C164.71 147.471 164.526 148.395 164.228 149.309L160.297 161.145C160.028 161.988 159.936 162.618 160.021 163.036C160.098 163.454 160.407 163.663 160.945 163.663C161.462 163.663 161.968 163.38 162.464 162.813C162.967 162.246 163.502 161.152 164.069 159.53L164.6 158.032H165.365L164.356 160.985C163.973 162.119 163.506 162.983 162.953 163.578C162.401 164.173 161.82 164.587 161.211 164.821C160.601 165.048 160.013 165.161 159.447 165.161C158.774 165.161 158.243 165.062 157.853 164.863C157.456 164.658 157.152 164.392 156.939 164.067C156.614 163.557 156.504 162.916 156.61 162.144C156.716 161.371 156.932 160.486 157.258 159.487L161.115 147.895Z" fill="black"/>
<path d="M170.795 155.397C172.311 154.887 173.685 154.38 174.917 153.877C176.143 153.381 177.12 152.847 177.85 152.273C178.827 151.494 179.599 150.548 180.166 149.436C180.733 148.331 181.016 147.116 181.016 145.792C181.016 145.005 180.963 144.506 180.857 144.294C180.743 144.074 180.58 143.964 180.368 143.964C179.688 143.964 178.958 144.262 178.179 144.857C177.393 145.452 176.621 146.27 175.863 147.311C175.105 148.352 174.411 149.535 173.781 150.86C173.143 152.184 172.637 153.597 172.261 155.099C171.879 156.594 171.687 158.085 171.687 159.572C171.687 160.953 171.946 161.949 172.463 162.558C172.973 163.16 173.649 163.461 174.492 163.461C175.463 163.461 176.49 163.163 177.574 162.568C178.65 161.981 179.702 160.929 180.729 159.413L181.377 159.732C180.867 160.624 180.191 161.492 179.348 162.335C178.512 163.171 177.574 163.851 176.532 164.375C175.491 164.906 174.39 165.172 173.228 165.172C172.151 165.172 171.206 164.956 170.391 164.523C169.584 164.091 168.964 163.447 168.532 162.59C168.1 161.74 167.884 160.695 167.884 159.455C167.884 158.294 168.1 156.99 168.532 155.545C168.964 154.093 169.577 152.645 170.37 151.2C171.17 149.755 172.123 148.427 173.228 147.215C174.34 145.997 175.569 145.023 176.915 144.294C178.268 143.564 179.716 143.199 181.26 143.199C182.096 143.199 182.805 143.422 183.385 143.869C183.966 144.315 184.257 144.984 184.257 145.877C184.257 146.953 183.938 147.959 183.3 148.894C182.67 149.822 181.834 150.672 180.793 151.444C179.752 152.216 178.622 152.9 177.404 153.495C176.192 154.09 175.006 154.603 173.844 155.035C172.676 155.467 171.648 155.818 170.763 156.087L170.795 155.397Z" fill="black"/>
<path d="M163.92 31.4251C163.718 32.6789 162.836 34.0813 162.114 35.1013C158.884 39.7126 154.23 41.9863 148.854 42.9C139.313 44.5044 129.963 43.3675 120.741 40.6794C113.037 38.4376 105.589 35.3988 97.9395 32.987C87.4633 29.6826 76.9234 28.7901 66.2135 31.7757C55.9923 34.6232 47.7261 40.0738 42.4774 49.5619C41.6699 51.0175 41.0218 52.5475 40.4799 54.1199L40.3099 54.7362L39.4281 57.8812C39.3643 58.1999 39.3077 58.5116 39.2581 58.8162C37.6431 68.4317 39.5449 76.9848 47.3118 83.721C47.4499 83.8378 47.8111 84.1247 47.8961 84.2522V85.9203C47.8961 86.2178 47.8961 86.2178 47.8961 86.4303C47.503 86.2603 47.3011 86.1647 47.0249 85.9522C44.2199 83.8272 41.8718 81.3622 40.2249 78.281C36.825 71.9061 35.9537 65.3611 37.2075 58.7524C37.4625 57.4137 37.806 56.0749 38.2381 54.7362C38.4506 54.042 38.6914 53.3479 38.9606 52.6537C42.9024 42.2732 50.563 35.6007 60.6885 31.5314C67.7328 28.7051 75.1384 28.0251 82.629 27.8126C92.6483 27.5258 102.285 29.4064 111.72 32.6682C118.573 35.0376 125.246 37.9382 132.279 39.7657C137.804 41.2 143.393 42.1032 149.109 40.8707C154.252 39.7551 158.65 37.5238 161.285 32.6682C161.572 32.137 161.785 31.5632 161.997 31.0001C162.231 30.3945 162.815 29.6189 163.527 30.2033C163.878 30.4795 163.984 30.9789 163.92 31.4251Z" fill="black"/>
<path d="M124.799 45.5032C124.576 45.5882 124.331 45.6307 124.087 45.6413C118.594 45.9494 114.259 48.6482 110.434 52.3456C105.589 57.01 102.062 62.6305 98.7785 68.4318C94.9217 75.2317 91.4686 82.2548 87.8561 89.1928C87.6861 89.501 87.4417 89.9578 87.3036 90.3085C87.2717 90.3828 88.2811 90.1916 88.6423 90.1066C89.6198 89.8516 90.5973 89.5541 91.5642 89.2566C93.3385 88.6935 95.0704 88.1197 96.2073 86.4197C96.8448 85.4741 97.886 84.8898 99.076 84.7623C99.7135 84.6879 100.415 84.6241 100.829 85.2829C101.254 85.9629 101.02 86.6322 100.563 87.1954C99.8516 88.0666 99.0866 88.9166 98.3323 89.756C97.631 90.5422 96.9191 91.3178 96.2073 92.0934C93.1898 95.3872 92.5098 99.2759 93.2748 103.536C93.3173 103.77 93.4023 104.004 93.4342 104.248C93.4979 104.78 93.3492 105.236 92.786 105.406C92.2229 105.576 91.8192 105.268 91.6492 104.758C91.4473 104.153 91.2879 103.515 91.2029 102.878C90.7673 99.414 91.4367 96.099 92.5098 92.8372C92.6798 92.3059 93.1685 91.6472 92.8179 91.2435C92.3717 90.7122 91.7023 91.2966 91.1392 91.4241C89.8429 91.7428 87.7392 92.4759 86.4324 92.6991C85.9224 92.8478 85.7949 93.0922 85.3699 93.8997C81.9805 100.402 78.4318 106.82 74.4793 113.014C70.4525 119.346 66.1069 125.445 60.8688 130.864C60.6138 131.119 60.5501 131.193 59.8701 131.788V126.029C60.1888 125.466 60.3907 125.201 60.6988 124.765C60.9821 124.368 61.2584 123.968 61.5275 123.564C61.57 123.508 61.6125 123.451 61.655 123.394L61.7082 123.309C62.3811 122.318 63.0363 121.316 63.6738 120.303L63.695 120.26C63.9784 119.814 64.2546 119.368 64.5238 118.921C67.9344 113.333 70.8775 107.478 73.9056 101.666C75.0212 99.5203 76.3281 97.0659 77.4649 94.8453C77.1462 94.8984 76.9124 95.0259 76.838 95.0578C69.39 98.3303 64.0669 101.922 63.5463 113.152C63.5038 113.991 63.7906 115.235 62.4519 115.16C61.2407 115.086 61.5594 113.896 61.5913 113.099C61.7932 108.084 62.9832 103.398 66.4256 99.5309C69.2944 96.3222 72.9918 94.4203 76.9974 93.0922C77.5605 92.9009 78.6549 92.4866 78.6549 92.4866C79.0905 91.7535 79.1649 91.5728 79.4412 91.0097C84.0736 81.8935 89.0673 73.0005 95.1342 64.7449C95.3821 64.4049 95.63 64.0685 95.8779 63.7355L95.8885 63.7249L96.0798 63.4699C97.2485 61.9187 98.4491 60.3993 99.6922 58.9225C102.465 55.6394 105.483 52.5794 108.925 49.9444C113.037 46.7888 117.563 44.5151 122.78 43.8244C123.375 43.7501 123.991 43.7288 124.597 43.7394C125.043 43.7501 125.373 44.0157 125.447 44.4619C125.532 44.9826 125.256 45.3226 124.799 45.5032Z" fill="black"/>
<path d="M35.6247 143.975C23.2254 144.081 14.6724 134.806 15.8518 122.98C16.0749 120.738 16.8505 118.656 18.1042 116.764C18.4655 116.212 18.8905 115.734 19.4536 115.383C21.0792 114.363 22.6411 115.033 22.9917 116.934C23.2786 118.518 22.7686 119.984 22.163 121.408C21.1323 123.873 20.1017 126.338 19.5811 128.983C19.1349 131.193 19.4536 133.191 20.8136 135.082C24.6279 140.416 29.9935 142.232 36.2728 142.02C40.0766 141.892 43.3278 140.819 46.7278 139.087C47.2696 138.811 47.5034 138.631 47.8965 138.407C47.9071 138.886 47.8965 138.811 47.8965 139.502C47.8965 140.161 47.8965 140.224 47.8965 140.894C47.5671 141.117 47.0359 141.308 46.5896 141.489C42.9134 142.944 39.1628 144.028 35.6247 143.975Z" fill="black"/>
<path d="M85.8058 70.3017C83.4152 79.6517 78.0602 86.3985 68.6253 89.4478C66.6172 90.096 64.5134 90.3616 62.3885 90.3722C61.8678 90.3722 61.3366 90.3935 60.816 90.3828C60.476 90.3722 60.2316 90.3616 59.7854 90.3085C59.7854 90.2093 59.7854 90.1101 59.7854 90.011C59.7783 89.4656 59.7712 88.9201 59.7641 88.3747C60.221 88.4066 60.5504 88.396 60.8372 88.4066C67.9665 88.6191 73.9909 86.1754 78.5383 80.6504C83.0114 75.2105 85.3383 69.0055 84.0739 61.8124C84.0314 61.5787 84.0102 61.3449 84.0314 61.1431C84.0846 60.7712 84.2758 60.4843 84.7964 60.4099C85.5614 60.2824 85.8377 60.8349 85.9758 61.4618C85.9829 61.476 85.9864 61.4901 85.9864 61.5043C86.6558 64.4474 86.5495 67.4118 85.8058 70.3017Z" fill="black"/>
<path d="M47.8957 138.492C47.9063 138.97 47.8957 138.811 47.8957 139.502C47.8957 140.16 47.8957 140.224 47.8957 140.894V138.492Z" fill="black"/>
<path d="M47.8957 138.492C47.9063 138.97 47.8957 138.811 47.8957 139.502C47.8957 140.15 47.8957 140.224 47.8957 140.894V138.492Z" fill="black"/>
<path d="M107.927 64.947C106.773 63.8845 105.512 62.9141 104.145 62.0357C103.082 63.6295 102.084 65.2551 101.138 66.8701C105.048 71.8709 107.003 79.3721 107.003 89.3737C107.003 94.8065 106.284 99.864 104.846 104.546C100.649 118.21 86.4438 120.197 73.917 120.197H71.2183C70.7083 120.912 70.2018 121.61 69.6989 122.29H75.5213C86.4756 122.29 98.843 120.781 107.577 113.524C121.591 101.89 120.89 76.815 107.927 64.947ZM59.8496 162.335C58.6277 159.774 58.6065 156.481 58.6065 153.739V122.29H60.859C61.3265 121.595 61.7833 120.898 62.2296 120.197H58.6065V98.4473C58.6065 87.9287 57.9796 77.2613 59.074 66.7745C59.244 65.117 59.6265 62.4714 60.4977 61.0476C62.3252 58.062 66.522 58.1364 70.5383 58.1364C74.0551 58.1364 82.81 57.9345 86.7413 58.5933C90.205 59.1776 93.2118 60.527 95.8256 61.6214C96.8562 60.2614 97.0687 60.102 98.0037 58.9758C92.7443 56.9889 86.4225 55.9477 79.0276 55.9477C77.1151 55.9477 73.8639 55.8733 69.2951 55.9795C64.7158 56.0858 59.924 56.0008 54.9196 56.0008H44.2203C40.576 56.0008 40.7354 56.0008 38.3979 56.0008V57.5095C42.0104 57.6158 43.2429 58.0195 45.1022 58.7101C46.9651 59.4043 48.2153 60.6828 48.8528 62.5457C49.4974 64.4086 49.8197 67.3092 49.8197 71.2476V153.739C49.8197 157.571 49.4974 160.444 48.8528 162.356C48.2153 164.276 46.9651 165.554 45.1022 166.192C43.2429 166.829 43.1366 167.254 39.5135 167.467V169.05C41.8085 169.05 40.5547 169.039 44.2203 169.039C47.8434 169.039 51.7322 169.05 55.8759 169.05C60.2427 169.05 64.5564 169.039 68.817 169.039C70.8995 169.039 69.922 169.05 71.8239 169.05V167.467C68.8383 167.329 65.5127 166.946 62.8352 165.512C61.4221 164.757 60.4765 163.642 59.8496 162.335Z" fill="black"/>
</svg>
