<svg width="23" height="24" viewBox="0 0 23 24" fill="none" xmlns="http://www.w3.org/2000/svg">
<mask id="mask0_1099_17192" style="mask-type:luminance" maskUnits="userSpaceOnUse" x="0" y="0" width="23" height="24">
<path d="M22.7499 12C22.7499 14.9836 21.5647 17.8451 19.4549 19.9549C17.3451 22.0647 14.4836 23.2499 11.5 23.2499C8.51629 23.2499 5.65482 22.0647 3.54504 19.9549C1.43526 17.8451 0.25 14.9836 0.25 12C0.25 9.01629 1.43526 6.15482 3.54504 4.04504C5.65482 1.93526 8.51629 0.75 11.5 0.75C14.4836 0.75 17.3451 1.93526 19.4549 4.04504C21.5647 6.15482 22.7499 9.01629 22.7499 12Z" fill="white"/>
</mask>
<g mask="url(#mask0_1099_17192)">
<path d="M22.75 0.75V8.25006H0.25V0.75H22.75Z" fill="#E32D3C"/>
<path d="M22.75 8.25V15.75H0.25V8.25H22.75Z" fill="white"/>
<path d="M22.75 15.75V23.25H0.25V15.75L22.75 15.75Z" fill="#E32D3C"/>
<path d="M11.3588 8.46973C11.2071 8.78914 10.9214 9.01243 10.6483 9.2237C10.6034 9.26294 10.4917 9.3389 10.5727 9.39673C10.6422 9.31915 10.8327 9.42193 10.722 9.50531C10.6228 9.59815 10.4862 9.63216 10.3761 9.70871C10.2785 9.76172 10.1796 9.81707 10.1023 9.89816C10.097 10.0249 10.2595 9.95477 10.3255 10.0075C10.4113 10.0994 10.289 10.2541 10.1763 10.2187C10.0322 10.2231 9.93271 10.3499 9.87821 10.4709C9.76553 10.6452 9.55196 10.6968 9.38186 10.796C9.28466 10.853 9.19045 10.9149 9.09962 10.9816C8.98285 11.0615 9.08446 11.2195 9.2087 11.1808C9.3428 11.1673 9.46349 11.062 9.60236 11.0923C9.72827 11.1366 9.76364 11.3012 9.72071 11.4161C9.68894 11.5081 9.6119 11.5729 9.55016 11.6447C9.44999 11.7462 9.31895 11.8121 9.1808 11.8436C9.04729 11.8884 8.92727 11.9702 8.8397 12.0806C8.738 12.1829 8.63675 12.2869 8.51998 12.3723C8.48308 12.4664 8.58721 12.5467 8.67406 12.5442C8.85703 12.5326 8.98384 12.3829 9.13967 12.3059C9.26896 12.2478 9.42115 12.3872 9.38951 12.5219C9.37952 12.653 9.25676 12.7195 9.14768 12.7598C8.82697 12.921 8.54846 13.1549 8.30123 13.4128C8.25007 13.5172 8.10944 13.4865 8.03375 13.5592C7.98443 13.6512 8.10823 13.6997 8.18207 13.6903C8.49937 13.6521 8.79547 13.518 9.076 13.3704C9.18031 13.3205 9.27827 13.2549 9.38672 13.2152C9.48856 13.19 9.63062 13.2343 9.64885 13.3502C9.64871 13.4726 9.52744 13.5404 9.43145 13.5882C9.13531 13.7438 8.81032 13.8298 8.49383 13.9326C8.3753 13.8995 8.28607 14.1103 8.41603 14.1482C8.5535 14.1953 8.69962 14.1576 8.8402 14.1514C9.27494 14.0848 9.65515 13.8496 10.0615 13.6975C10.2305 13.6424 10.4299 13.7192 10.5133 13.8776C10.597 14.0187 10.5894 14.2043 10.5011 14.3413C10.3614 14.6401 10.1491 14.9147 9.86408 15.0865C9.68521 15.175 9.47636 15.2089 9.32305 15.3445C9.18125 15.3913 9.39415 15.5829 9.42488 15.4308C9.51011 15.3146 9.66041 15.2798 9.79672 15.2751C10.0016 15.2528 10.2192 15.215 10.3783 15.0731C10.5211 14.9623 10.6617 14.8094 10.8555 14.807C10.9626 14.8197 11.0685 14.9058 11.1773 14.8533C11.2724 14.8097 11.4218 14.8352 11.4466 14.9523C11.492 15.0891 11.6331 15.1514 11.745 15.2247C11.7855 15.2816 11.9201 15.4282 11.9511 15.2989C11.9261 15.2067 11.9619 15.0655 12.0829 15.0963C12.1886 15.1011 12.2893 15.14 12.3947 15.1464C12.5352 15.1755 12.6524 15.2717 12.7321 15.3878C12.787 15.4636 12.9072 15.5938 12.9965 15.4933C13.0519 15.3894 12.9461 15.3027 12.86 15.2656C12.7345 15.1878 12.6271 15.0841 12.5173 14.986C12.3555 14.8349 12.2157 14.6427 12.19 14.4169C12.1552 14.1918 12.1735 13.9622 12.2029 13.7377C12.2399 13.5932 12.4247 13.5142 12.5539 13.591C12.7358 13.674 12.9164 13.7927 13.1249 13.7799C13.4261 13.7863 13.7357 13.7287 14.0301 13.816C14.3166 13.9062 14.5214 14.148 14.8005 14.2526C14.863 14.2906 14.9429 14.2544 14.9658 14.1877C14.9935 14.1278 14.9739 14.051 14.9162 14.0169C14.5927 13.6904 14.1507 13.5318 13.7765 13.2766C13.6587 13.2467 13.6372 13.0572 13.7461 13.0025C13.8893 12.8984 14.0919 12.9468 14.219 13.0541C14.3262 13.117 14.4471 13.1641 14.573 13.1642C14.7019 13.1238 14.6394 12.9372 14.524 12.9232C14.3148 12.8051 14.165 12.6113 13.9838 12.4577C13.8794 12.3694 13.7652 12.28 13.625 12.2628C13.5484 12.2488 13.47 12.2458 13.3923 12.251C13.3195 12.1718 13.4166 12.0506 13.5107 12.0605C13.6074 12.0671 13.7034 12.0742 13.8 12.0608C13.9078 12.0529 14.0155 12.0417 14.1238 12.041C14.2112 12.1005 14.3857 11.9977 14.3069 11.8952C14.2208 11.8197 14.0962 11.8262 13.9933 11.7875C13.8126 11.7284 13.6285 11.68 13.4421 11.6426C13.3117 11.6348 13.3278 11.4633 13.4424 11.4444C13.5174 11.4164 13.5826 11.474 13.6545 11.4829C13.7775 11.5093 13.9044 11.509 14.0272 11.5358C14.1314 11.4844 14.0509 11.3322 13.9567 11.3233C13.7343 11.2438 13.5421 11.1003 13.3543 10.9607C13.1468 10.8047 12.9587 10.6243 12.7488 10.472C12.6726 10.4247 12.5477 10.4112 12.5277 10.3065C12.5206 10.2103 12.6339 10.1664 12.7142 10.1889C12.8281 10.2226 12.9343 10.2812 13.0504 10.31C13.1415 10.3254 13.2355 10.3524 13.3233 10.3409C13.4347 10.2709 13.2755 10.2261 13.2178 10.2018C13.0692 10.1217 12.9371 10.0148 12.8034 9.91301C12.6904 9.81653 12.8992 9.77392 12.9711 9.81104C13.0913 9.86131 13.1049 9.68626 13.0152 9.6422C12.9093 9.5972 12.8183 9.5225 12.7224 9.45739C12.549 9.33395 12.3527 9.2363 12.1396 9.20917C11.9006 9.18514 11.6776 9.04775 11.5509 8.8434C11.4722 8.72694 11.4145 8.59816 11.3588 8.46973ZM10.5741 9.81018C10.6973 9.81383 10.6783 10.0358 10.5571 10.021C10.4393 10.0134 10.4465 9.78633 10.5741 9.81018ZM11.7357 9.92971C11.8555 9.90824 11.8809 10.1269 11.7611 10.1372C11.6364 10.1595 11.5902 9.91585 11.7357 9.92971ZM11.3955 9.95819C11.517 9.98209 11.4953 10.1937 11.3727 10.1956C11.283 10.2155 11.1864 10.2768 11.0956 10.2309C11.0218 10.1529 11.1284 10.0374 11.2108 10.0121C11.274 9.99932 11.3322 9.97066 11.3955 9.95819ZM12.1785 9.95909C12.2955 10.0018 12.2543 10.2085 12.1308 10.2059C12.014 10.2215 11.9596 10.0267 12.0685 9.98051C12.1037 9.968 12.1407 9.95743 12.1785 9.95909ZM10.8576 10.1935C10.9437 10.2755 10.8928 10.4336 10.7867 10.4714C10.7102 10.5139 10.6059 10.6146 10.5226 10.5318C10.4773 10.4306 10.5908 10.3544 10.6576 10.2982C10.7171 10.2519 10.7829 10.2099 10.8576 10.1935ZM11.8408 10.6505C11.964 10.7087 11.9014 10.9308 11.7661 10.917C11.6551 10.8888 11.6696 10.6983 11.7814 10.6831C11.8026 10.675 11.822 10.6631 11.8408 10.6505ZM11.4497 10.6726C11.5649 10.7266 11.4769 10.9189 11.3608 10.8912C11.2405 10.877 11.2427 10.6654 11.3754 10.6845C11.4004 10.6833 11.4263 10.6826 11.4497 10.6726ZM12.2927 10.7829C12.419 10.7437 12.5711 10.8738 12.5302 11.0058C12.4739 11.1082 12.3346 11.1211 12.2349 11.0829C12.1203 11.0772 12.0433 10.905 12.1453 10.8321C12.1876 10.8002 12.2408 10.7871 12.2927 10.7829ZM10.4265 10.816C10.5309 10.7591 10.6419 10.93 10.553 11.0053C10.4942 11.0918 10.3431 11.1272 10.2765 11.0309C10.2211 10.937 10.3106 10.7791 10.4265 10.816ZM9.94454 10.8969C10.063 10.9131 10.1402 11.0207 10.184 11.1232C10.1947 11.2481 10.0104 11.3167 9.93001 11.2258C9.8396 11.1691 9.76049 11.0524 9.80788 10.9442C9.83708 10.9012 9.89527 10.8834 9.9445 10.8969H9.94454ZM12.8281 11.3483C12.9567 11.3144 13.05 11.52 12.9397 11.5943C12.8386 11.686 12.6423 11.5645 12.695 11.4337C12.7211 11.3851 12.7735 11.3529 12.8281 11.3483ZM11.1912 11.5828C11.299 11.5965 11.2641 11.7834 11.1644 11.7771C11.0573 11.7573 11.0818 11.5722 11.1912 11.5828ZM10.6441 11.6821C10.7321 11.6198 10.8455 11.7717 10.7724 11.8425C10.6847 11.9043 10.5709 11.7547 10.6441 11.6821ZM11.5139 11.7005C11.6158 11.7624 11.6763 11.8779 11.689 11.9944C11.6401 12.1033 11.4515 12.0771 11.4302 11.9611C11.3929 11.8694 11.4273 11.7514 11.5139 11.7005ZM11.8174 11.8806C11.9488 11.8477 11.9016 12.1223 11.7919 12.027C11.7555 11.9837 11.775 11.9125 11.8174 11.8806ZM9.91115 12.0719C9.99814 12.0464 10.1249 12.0732 10.149 12.173C10.1591 12.2669 10.0559 12.3157 9.98032 12.3389C9.85913 12.3763 9.7406 12.4377 9.61028 12.4295C9.51263 12.3737 9.47753 12.2594 9.44275 12.1597C9.53698 12.0713 9.67585 12.0973 9.79267 12.0751C9.83214 12.0732 9.87164 12.0721 9.91115 12.0719ZM12.8681 12.5021C12.9791 12.4477 13.0984 12.6239 13.0055 12.7062C12.8893 12.8399 12.6656 12.8648 12.5266 12.7524C12.5099 12.6341 12.6282 12.5481 12.7331 12.5311C12.7773 12.5186 12.8213 12.4999 12.8681 12.5021ZM13.4918 12.6373C13.6179 12.6156 13.7173 12.7955 13.6272 12.8885C13.542 13.0171 13.3388 13.0508 13.2226 12.9454C13.1773 12.8389 13.2691 12.7279 13.367 12.6937C13.409 12.6758 13.4488 12.6529 13.4918 12.6373H13.4918ZM10.3556 12.8286C10.4724 12.817 10.5794 12.9329 10.564 13.048C10.6486 13.1312 10.4989 13.2861 10.4147 13.2C10.3404 13.1101 10.3409 12.988 10.3121 12.8805C10.3108 12.8566 10.3285 12.8256 10.3556 12.8286ZM11.252 12.8956C11.3728 12.8434 11.5289 12.9879 11.4632 13.1101C11.4163 13.2097 11.2333 13.1763 11.2393 13.061C11.239 13.0058 11.2346 12.9492 11.252 12.8957V12.8956ZM10.8159 12.9738C10.937 12.9461 11.048 13.1029 10.9808 13.2076C10.8601 13.2184 10.7974 13.0752 10.8159 12.9738Z" fill="#00A651"/>
</g>
</svg>
