<svg width="25" height="24" viewBox="0 0 25 24" fill="none" xmlns="http://www.w3.org/2000/svg">
<path d="M12.5 0.75C9.51631 0.75 6.65483 1.93526 4.54505 4.04505C2.43526 6.15483 1.25 9.01631 1.25 12C1.25 14.9837 2.43526 17.8452 4.54505 19.955C6.65483 22.0647 9.51631 23.25 12.5 23.25C15.4837 23.25 18.3452 22.0647 20.455 19.955C22.5647 17.8452 23.75 14.9837 23.75 12C23.75 9.01631 22.5647 6.15483 20.455 4.04505C18.3452 1.93526 15.4837 0.75 12.5 0.75Z" fill="#2B4896"/>
<path d="M5.13406 3.51497C4.56254 4.01126 4.04256 4.56397 3.58203 5.16469L7.73295 10.125H10.6662L5.13406 3.51497ZM19.807 3.45117L13.7902 10.125H16.8182L21.3657 5.08153C20.902 4.48723 20.3798 3.94104 19.807 3.45117ZM8.35133 13.875L3.71197 19.021C4.17498 19.6011 4.69428 20.1341 5.26227 20.6119L11.2666 13.875H8.35128H8.35133ZM13.7234 13.875L19.7638 20.5745C20.3386 20.0874 20.8629 19.5438 21.329 18.9519L16.752 13.875H13.7234Z" fill="white"/>
<path d="M4.35086 4.26282C4.17918 4.43859 4.01331 4.61993 3.85352 4.80657L8.3403 10.1248H9.29758L4.35086 4.26282ZM20.1427 3.76416L14.3621 10.1248H15.349L20.6679 4.27374C20.4984 4.09823 20.3232 3.92828 20.1427 3.76416ZM9.77153 13.8746V13.8748L4.3907 19.794C4.55194 19.9564 4.7181 20.1138 4.88894 20.266L10.628 13.8746H9.77153ZM15.1302 13.8748L20.5522 19.8393C20.7246 19.666 20.8913 19.487 21.0521 19.3028L16.1191 13.8748H15.1302Z" fill="#E32D3C"/>
<path d="M12.5 0.75C11.8717 0.750607 11.2445 0.803856 10.625 0.909187V23.0801C11.2442 23.189 11.8714 23.2459 12.5 23.25C13.1283 23.2494 13.7555 23.1961 14.375 23.0908V0.919828C13.7558 0.81093 13.1286 0.754122 12.5 0.75Z" fill="white"/>
<path d="M1.41983 10.125C1.31093 10.7442 1.25412 11.3714 1.25 12C1.25061 12.6283 1.30386 13.2555 1.40919 13.875H23.5801C23.689 13.2558 23.7459 12.6286 23.75 12C23.7494 11.3717 23.6961 10.7445 23.5908 10.125H1.41983Z" fill="white"/>
<path d="M12.5 0.75C12.1241 0.753893 11.7486 0.776624 11.375 0.818109V23.1935C11.7488 23.2311 12.1243 23.25 12.5 23.25C12.8759 23.2461 13.2514 23.2234 13.625 23.1819V0.806484C13.2512 0.768883 12.8757 0.750031 12.5 0.75Z" fill="#E32D3C"/>
<path d="M1.30648 10.875C1.26888 11.2488 1.25003 11.6243 1.25 12C1.25389 12.3759 1.27662 12.7514 1.31811 13.125H23.6935C23.7311 12.7512 23.75 12.3757 23.75 12C23.7461 11.6241 23.7234 11.2486 23.6819 10.875H1.30648Z" fill="#E32D3C"/>
</svg>
