<svg width="24" height="24" viewBox="0 0 24 24" fill="none" xmlns="http://www.w3.org/2000/svg">
<g clip-path="url(#clip0_1395_29157)">
<path d="M12 0.75C9.77496 0.75 7.59989 1.4098 5.74984 2.64597C3.89979 3.88213 2.45785 5.63914 1.60636 7.69481C0.754874 9.75048 0.532087 12.0125 0.966171 14.1948C1.40025 16.377 2.47171 18.3816 4.04505 19.9549C5.61839 21.5283 7.62295 22.5997 9.80524 23.0338C11.9875 23.4679 14.2495 23.2451 16.3052 22.3936C18.3609 21.5422 20.1179 20.1002 21.354 18.2502C22.5902 16.4001 23.25 14.225 23.25 12C23.2464 9.01741 22.06 6.158 19.951 4.04899C17.842 1.93998 14.9826 0.753573 12 0.75ZM6.375 20.145C6.32497 19.6383 6.38177 19.1267 6.54176 18.6434C6.70174 18.16 6.96134 17.7155 7.30379 17.3387C7.64623 16.9619 8.06391 16.6612 8.52984 16.4558C8.99577 16.2505 9.49959 16.1452 10.0088 16.1467H13.9913C14.5004 16.1452 15.0042 16.2505 15.4702 16.4558C15.9361 16.6612 16.3538 16.9619 16.6962 17.3387C17.0387 17.7155 17.2983 18.16 17.4582 18.6434C17.6182 19.1267 17.675 19.6383 17.625 20.145C15.9729 21.2907 14.0104 21.9046 12 21.9046C9.98956 21.9046 8.02706 21.2907 6.375 20.145ZM18.9278 19.056C18.7507 17.8704 18.1534 16.7879 17.2447 16.006C16.336 15.2241 15.1765 14.7949 13.9778 14.7967H10.0088C8.81037 14.7963 7.65162 15.226 6.74323 16.0076C5.83483 16.7893 5.23711 17.871 5.05875 19.056C3.65568 17.679 2.69435 15.9153 2.29728 13.9899C1.90022 12.0645 2.08539 10.0645 2.82921 8.2447C3.57303 6.42491 4.8418 4.86778 6.47385 3.77175C8.1059 2.67571 10.0273 2.0904 11.9933 2.0904C13.9592 2.0904 15.8806 2.67571 17.5127 3.77175C19.1447 4.86778 20.4135 6.42491 21.1573 8.2447C21.9011 10.0645 22.0863 12.0645 21.6892 13.9899C21.2922 15.9153 20.3308 17.679 18.9278 19.056Z" fill="black"/>
<path d="M11.9996 5.36328C11.2039 5.36328 10.4261 5.59923 9.76451 6.04128C9.10293 6.48333 8.58729 7.11164 8.2828 7.84675C7.97831 8.58185 7.89864 9.39074 8.05387 10.1711C8.20909 10.9515 8.59225 11.6683 9.15487 12.231C9.7175 12.7936 10.4343 13.1768 11.2147 13.332C11.9951 13.4872 12.804 13.4075 13.5391 13.103C14.2742 12.7986 14.9025 12.2829 15.3446 11.6213C15.7866 10.9598 16.0226 10.182 16.0226 9.38628C16.022 8.3195 15.5979 7.29658 14.8436 6.54225C14.0893 5.78792 13.0663 5.36388 11.9996 5.36328ZM11.9996 12.057C11.4708 12.057 10.9539 11.9002 10.5143 11.6064C10.0747 11.3126 9.73207 10.895 9.52982 10.4064C9.32757 9.91787 9.27477 9.3803 9.37809 8.86173C9.48141 8.34315 9.73621 7.86688 10.1103 7.49314C10.4843 7.1194 10.9608 6.865 11.4795 6.76212C11.9981 6.65923 12.5356 6.71249 13.024 6.91515C13.5124 7.11781 13.9297 7.46076 14.2232 7.90063C14.5166 8.3405 14.673 8.85752 14.6726 9.38628C14.672 10.0948 14.3901 10.7741 13.8889 11.2749C13.3876 11.7757 12.7081 12.057 11.9996 12.057Z" fill="black"/>
</g>
<defs>
<clipPath id="clip0_1395_29157">
<rect width="22.5" height="22.5" fill="white" transform="translate(0.75 0.75)"/>
</clipPath>
</defs>
</svg>
