<svg width="20" height="20" viewBox="0 0 20 20" fill="none" xmlns="http://www.w3.org/2000/svg">
<path opacity="0.4" d="M6.83502 10.991L3.75252 11.2644C3.5872 11.2636 3.42365 11.2303 3.27122 11.1663C3.11879 11.1023 2.98047 11.0089 2.86415 10.8914C2.74783 10.7739 2.65581 10.6347 2.59333 10.4816C2.53085 10.3286 2.49914 10.1647 2.50002 9.99937C2.49914 9.83406 2.53085 9.67019 2.59333 9.51713C2.65581 9.36407 2.74783 9.22482 2.86415 9.10735C2.98047 8.98987 3.11879 8.89646 3.27122 8.83247C3.42365 8.76847 3.5872 8.73514 3.75252 8.73438L6.83585 9.00687C7.37752 9.00687 7.81835 9.45104 7.81835 9.99854C7.81835 10.5485 7.37835 10.991 6.83502 10.991Z" fill="#D1D1D1"/>
<path d="M17.1876 10.9417C17.1393 10.99 16.9593 11.1958 16.7901 11.3667C15.8035 12.4358 13.2285 14.185 11.8818 14.72C11.6768 14.805 11.1593 14.9867 10.8818 15C10.6181 14.9997 10.3582 14.9369 10.1235 14.8167C9.82218 14.6466 9.58549 14.3817 9.45013 14.0633C9.36596 13.845 9.23346 13.1883 9.23346 13.1767C9.10096 12.46 9.0293 11.2942 9.0293 10.0058C9.0293 8.77917 9.10096 7.66083 9.2093 6.9325C9.22096 6.91917 9.3543 6.105 9.49846 5.82583C9.62418 5.57908 9.81524 5.37157 10.0508 5.22595C10.2864 5.08032 10.5574 5.00217 10.8343 5H10.8818C11.2426 5.01167 12.001 5.32833 12.001 5.34C13.276 5.875 15.791 7.53917 16.8018 8.645C16.8018 8.645 17.0876 8.93 17.211 9.10667C17.4035 9.36167 17.5001 9.6775 17.5001 9.99333C17.5001 10.3458 17.3918 10.6733 17.1876 10.9417Z" fill="#D1D1D1"/>
</svg>
