<svg width="44" height="44" viewBox="0 0 44 44" fill="none" xmlns="http://www.w3.org/2000/svg">
<path d="M0 22C0 9.84974 9.84974 0 22 0C34.1503 0 44 9.84974 44 22C44 34.1503 34.1503 44 22 44C9.84974 44 0 34.1503 0 22Z" fill="#FCE8D7"/>
<g clip-path="url(#clip0_1173_154924)">
<path d="M30.5759 31.6257H13.4842C11.7926 31.6257 10.3926 30.2257 10.3926 28.534V16.0507C10.3926 14.359 11.7926 12.959 13.4842 12.959H30.5759C32.2676 12.959 33.6676 14.359 33.6676 16.0507V28.4757C33.6676 30.2257 32.2676 31.6257 30.5759 31.6257ZM13.4842 14.1257C12.3759 14.1257 11.5009 15.0007 11.5009 16.0507V28.4757C11.5009 29.5257 12.3759 30.4007 13.4259 30.4007H30.5176C31.5676 30.4007 32.4426 29.5257 32.4426 28.4757V16.0507C32.4426 15.0007 31.5676 14.1257 30.5176 14.1257H13.4842Z" fill="#EF7021"/>
<path d="M22.0009 24.2758C21.0092 24.2758 20.0759 23.8091 19.3759 23.0508L13.8342 16.4008C13.6009 16.1674 13.6592 15.8174 13.8926 15.5841C14.1259 15.3508 14.5342 15.4091 14.7092 15.6424L20.3092 22.3508C20.7176 22.8758 21.3592 23.1674 22.0009 23.1674C22.6426 23.1674 23.2842 22.8758 23.6926 22.3508L29.2342 15.7008C29.4676 15.4674 29.8176 15.4091 30.0509 15.6424C30.2842 15.8758 30.3426 16.2258 30.1092 16.4591L24.5676 23.1091C23.9842 23.8674 23.0509 24.2758 22.0009 24.2758ZM31.0426 28.8841C30.8676 28.8841 30.6926 28.8258 30.5759 28.6508L26.5509 23.8674C26.3176 23.6341 26.3759 23.2258 26.6092 23.0508C26.8426 22.8174 27.2509 22.8758 27.4259 23.1091L31.4509 27.8924C31.6842 28.1258 31.6259 28.5341 31.3926 28.7091C31.3342 28.8258 31.1592 28.8841 31.0426 28.8841ZM12.9592 28.8258C12.8426 28.8258 12.6676 28.7674 12.6092 28.7091C12.3759 28.4758 12.3176 28.1258 12.5509 27.8924L16.5176 23.1674C16.7509 22.9341 17.1009 22.8758 17.3342 23.1091C17.5676 23.3424 17.6259 23.6924 17.3926 23.9258L13.4259 28.6508C13.3092 28.7674 13.1342 28.8258 12.9592 28.8258Z" fill="#EF7021"/>
</g>
<defs>
<clipPath id="clip0_1173_154924">
<rect width="23.3333" height="23.3333" fill="white" transform="translate(10.334 10.334)"/>
</clipPath>
</defs>
</svg>
