<svg width="40" height="40" viewBox="0 0 40 40" fill="none" xmlns="http://www.w3.org/2000/svg">
<path d="M10.834 31.6641H4.58398C4.25246 31.6641 3.93452 31.5324 3.7001 31.2979C3.46568 31.0635 3.33398 30.7456 3.33398 30.4141C3.33398 30.0825 3.46568 29.7646 3.7001 29.5302C3.93452 29.2958 4.25246 29.1641 4.58398 29.1641H10.834C11.1655 29.1641 11.4834 29.2958 11.7179 29.5302C11.9523 29.7646 12.084 30.0825 12.084 30.4141C12.084 30.7456 11.9523 31.0635 11.7179 31.2979C11.4834 31.5324 11.1655 31.6641 10.834 31.6641ZM23.334 31.6641H17.5007C17.1691 31.6641 16.8512 31.5324 16.6168 31.2979C16.3823 31.0635 16.2507 30.7456 16.2507 30.4141C16.2507 30.0825 16.3823 29.7646 16.6168 29.5302C16.8512 29.2958 17.1691 29.1641 17.5007 29.1641H22.324L25.539 14.1641H7.91732C7.5858 14.1641 7.26785 14.0324 7.03343 13.7979C6.79901 13.5635 6.66732 13.2456 6.66732 12.9141C6.66732 12.5825 6.79901 12.2646 7.03343 12.0302C7.26785 11.7958 7.5858 11.6641 7.91732 11.6641H27.084C27.2702 11.6645 27.454 11.7064 27.6219 11.7868C27.7899 11.8673 27.9377 11.9842 28.0548 12.129C28.1718 12.2738 28.2551 12.4429 28.2985 12.624C28.3419 12.8051 28.3443 12.9936 28.3057 13.1757L24.5557 30.6757C24.4958 30.9554 24.3419 31.206 24.1195 31.3859C23.8972 31.5657 23.6199 31.6639 23.334 31.6641Z" fill="black"/>
<path d="M37.4996 31.6641H35.833C35.5014 31.6641 35.1835 31.5324 34.9491 31.2979C34.7146 31.0635 34.583 30.7456 34.583 30.4141C34.583 30.0825 34.7146 29.7646 34.9491 29.5302C35.1835 29.2958 35.5014 29.1641 35.833 29.1641H36.4896L37.498 24.4557C37.464 23.0416 36.8788 21.6968 35.8671 20.7081C34.8555 19.7195 33.4975 19.1654 32.083 19.1641H27.0213L24.878 29.1641H29.1663C29.4978 29.1641 29.8158 29.2958 30.0502 29.5302C30.2846 29.7646 30.4163 30.0825 30.4163 30.4141C30.4163 30.7456 30.2846 31.0635 30.0502 31.2979C29.8158 31.5324 29.4978 31.6641 29.1663 31.6641H23.333C23.1467 31.6637 22.963 31.6217 22.795 31.5413C22.6271 31.4609 22.4792 31.344 22.3621 31.1991C22.2451 31.0543 22.1619 30.8852 22.1185 30.7041C22.0751 30.523 22.0726 30.3345 22.1113 30.1524L24.7896 17.6524C24.8495 17.3728 25.0034 17.1221 25.2257 16.9423C25.4481 16.7624 25.7253 16.6642 26.0113 16.6641H32.083C34.1818 16.6667 36.1939 17.5016 37.678 18.9857C39.162 20.4698 39.997 22.4819 39.9996 24.5807C40.0002 24.6687 39.9907 24.7565 39.9713 24.8424L38.7213 30.6757C38.6614 30.9554 38.5075 31.206 38.2852 31.3859C38.0629 31.5657 37.7856 31.6639 37.4996 31.6641Z" fill="black"/>
<path d="M32.5 35C30.2033 35 28.3333 33.1317 28.3333 30.8333C28.3333 28.535 30.2033 26.6667 32.5 26.6667C34.7967 26.6667 36.6667 28.535 36.6667 30.8333C36.6667 33.1317 34.7967 35 32.5 35ZM32.5 29.1667C32.0709 29.1859 31.6657 29.3698 31.3688 29.6803C31.0719 29.9908 30.9062 30.4038 30.9062 30.8333C30.9062 31.2629 31.0719 31.6759 31.3688 31.9864C31.6657 32.2968 32.0709 32.4808 32.5 32.5C32.9291 32.4808 33.3343 32.2968 33.6312 31.9864C33.9281 31.6759 34.0938 31.2629 34.0938 30.8333C34.0938 30.4038 33.9281 29.9908 33.6312 29.6803C33.3343 29.3698 32.9291 29.1859 32.5 29.1667ZM14.1667 35C11.87 35 10 33.1317 10 30.8333C10 28.535 11.87 26.6667 14.1667 26.6667C16.4633 26.6667 18.3333 28.535 18.3333 30.8333C18.3333 33.1317 16.4633 35 14.1667 35ZM14.1667 29.1667C13.7375 29.1859 13.3323 29.3698 13.0355 29.6803C12.7386 29.9908 12.5729 30.4038 12.5729 30.8333C12.5729 31.2629 12.7386 31.6759 13.0355 31.9864C13.3323 32.2968 13.7375 32.4808 14.1667 32.5C14.5958 32.4808 15.001 32.2968 15.2979 31.9864C15.5948 31.6759 15.7604 31.2629 15.7604 30.8333C15.7604 30.4038 15.5948 29.9908 15.2979 29.6803C15.001 29.3698 14.5958 29.1859 14.1667 29.1667ZM10.4167 17.5H4.58333C4.25181 17.5 3.93387 17.3683 3.69945 17.1339C3.46503 16.8995 3.33333 16.5815 3.33333 16.25C3.33333 15.9185 3.46503 15.6005 3.69945 15.3661C3.93387 15.1317 4.25181 15 4.58333 15H10.4167C10.7482 15 11.0661 15.1317 11.3006 15.3661C11.535 15.6005 11.6667 15.9185 11.6667 16.25C11.6667 16.5815 11.535 16.8995 11.3006 17.1339C11.0661 17.3683 10.7482 17.5 10.4167 17.5ZM10.4167 22.5H2.91667C2.58515 22.5 2.2672 22.3683 2.03278 22.1339C1.79836 21.8995 1.66667 21.5815 1.66667 21.25C1.66667 20.9185 1.79836 20.6005 2.03278 20.3661C2.2672 20.1317 2.58515 20 2.91667 20H10.4167C10.7482 20 11.0661 20.1317 11.3006 20.3661C11.535 20.6005 11.6667 20.9185 11.6667 21.25C11.6667 21.5815 11.535 21.8995 11.3006 22.1339C11.0661 22.3683 10.7482 22.5 10.4167 22.5ZM10.4167 27.5H1.25C0.918479 27.5 0.600537 27.3683 0.366117 27.1339C0.131696 26.8995 0 26.5815 0 26.25C0 25.9185 0.131696 25.6005 0.366117 25.3661C0.600537 25.1317 0.918479 25 1.25 25H10.4167C10.7482 25 11.0661 25.1317 11.3006 25.3661C11.535 25.6005 11.6667 25.9185 11.6667 26.25C11.6667 26.5815 11.535 26.8995 11.3006 27.1339C11.0661 27.3683 10.7482 27.5 10.4167 27.5Z" fill="black"/>
</svg>
