<svg width="44" height="44" viewBox="0 0 44 44" fill="none" xmlns="http://www.w3.org/2000/svg">
<path d="M0 22C0 9.84974 9.84974 0 22 0C34.1503 0 44 9.84974 44 22C44 34.1503 34.1503 44 22 44C9.84974 44 0 34.1503 0 22Z" fill="#FCE8D7"/>
<path d="M28.679 13.659C24.9916 9.96943 19.0114 9.9676 15.3218 13.6549C11.6401 17.3463 11.6401 23.3208 15.3218 27.0121L21.6076 33.2969C21.7116 33.4012 21.853 33.4598 22.0004 33.4596C22.1477 33.4598 22.2891 33.4012 22.3932 33.2969L28.679 27.0121C32.3648 23.3241 32.3648 17.347 28.679 13.659ZM27.8934 26.2265L22.0004 32.1185L16.1074 26.2265C12.8587 22.9695 12.8587 17.6976 16.1074 14.4405C19.3612 11.1904 24.6328 11.1904 27.8867 14.4405C31.1432 17.6933 31.1462 22.9701 27.8934 26.2265ZM21.9989 15.3335C19.2375 15.3339 16.9992 17.5728 16.9996 20.3343C17 23.0957 19.2389 25.3339 22.0004 25.3335C23.326 25.3333 24.5973 24.8067 25.5348 23.8694C27.4876 21.9171 27.4879 18.7512 25.5355 16.7984C24.5976 15.8603 23.3254 15.3333 21.9989 15.3335ZM24.7499 23.0831C23.2113 24.5523 20.7894 24.5523 19.2508 23.0831C18.5212 22.3537 18.1114 21.3644 18.1115 20.3327C18.1117 18.1852 19.8528 16.4444 22.0004 16.4446C23.0323 16.442 24.0223 16.8522 24.7499 17.584L24.7514 17.5854C26.2691 19.1039 26.2685 21.5654 24.7499 23.0831Z" fill="#EF7021" stroke="#EF7021" stroke-width="0.4"/>
</svg>
