<svg width="44" height="44" viewBox="0 0 44 44" fill="none" xmlns="http://www.w3.org/2000/svg">
<path d="M0 22C0 9.84974 9.84974 0 22 0C34.1503 0 44 9.84974 44 22C44 34.1503 34.1503 44 22 44C9.84974 44 0 34.1503 0 22Z" fill="#FCE8D7"/>
<path fill-rule="evenodd" clip-rule="evenodd" d="M29.9494 31.5192C29.2787 32.1899 28.4825 32.722 27.6062 33.085C26.7299 33.448 25.7906 33.6349 24.8421 33.6349C23.8936 33.6349 22.9544 33.448 22.0781 33.085C21.2018 32.722 20.4056 32.1899 19.7349 31.5192L11.8794 23.6625C11.2086 22.9918 10.6765 22.1956 10.3135 21.3193C9.95051 20.443 9.76367 19.5038 9.76367 18.5553C9.76367 17.6068 9.95051 16.6675 10.3135 15.7912C10.6765 14.9149 11.2086 14.1187 11.8794 13.4481C12.4003 12.9273 13.1067 12.6348 13.8432 12.6348C14.5798 12.6348 15.2862 12.9273 15.8071 13.4481L17.3782 15.0192C17.6363 15.2771 17.8409 15.5834 17.9806 15.9204C18.1202 16.2575 18.1921 16.6188 18.1921 16.9836C18.1921 17.3485 18.1202 17.7097 17.9806 18.0468C17.8409 18.3839 17.6363 18.6901 17.3782 18.9481C17.0658 19.2606 16.8903 19.6845 16.8903 20.1264C16.8903 20.5683 17.0658 20.9922 17.3782 21.3047L22.0916 26.0192C22.2464 26.174 22.4301 26.2969 22.6324 26.3807C22.8347 26.4646 23.0515 26.5077 23.2705 26.5077C23.4894 26.5077 23.7062 26.4646 23.9085 26.3807C24.1108 26.2969 24.2946 26.174 24.4494 26.0192C24.9703 25.4984 25.6767 25.2059 26.4132 25.2059C27.1498 25.2059 27.8562 25.4984 28.3771 26.0192L29.9494 27.5903C30.2074 27.8482 30.412 28.1545 30.5517 28.4915C30.6913 28.8286 30.7632 29.1899 30.7632 29.5547C30.7632 29.9196 30.6913 30.2808 30.5517 30.6179C30.412 30.955 30.2074 31.2612 29.9494 31.5192ZM20.5205 30.7336C21.6665 31.8796 23.2209 32.5234 24.8416 32.5234C26.4623 32.5234 28.0166 31.8796 29.1627 30.7336C29.3176 30.5788 29.4404 30.3951 29.5242 30.1928C29.6081 29.9905 29.6512 29.7737 29.6512 29.5547C29.6512 29.3358 29.6081 29.119 29.5242 28.9167C29.4404 28.7144 29.3176 28.5306 29.1627 28.3758L27.5916 26.8047C27.279 26.4923 26.8552 26.3168 26.4132 26.3168C25.9713 26.3168 25.5475 26.4923 25.2349 26.8047C24.977 27.0627 24.6707 27.2674 24.3336 27.4071C23.9966 27.5467 23.6353 27.6186 23.2705 27.6186C22.9056 27.6186 22.5443 27.5467 22.2073 27.4071C21.8702 27.2674 21.564 27.0627 21.306 26.8047L16.5927 22.0903C16.0719 21.5694 15.7794 20.863 15.7794 20.1264C15.7794 19.3898 16.0719 18.6834 16.5927 18.1625C16.9051 17.85 17.0807 17.4261 17.0807 16.9842C17.0807 16.5422 16.9051 16.1184 16.5927 15.8058L15.0216 14.2336C14.8668 14.0787 14.683 13.9559 14.4807 13.8721C14.2785 13.7882 14.0616 13.7451 13.8427 13.7451C13.6237 13.7451 13.4069 13.7882 13.2046 13.8721C13.0024 13.9559 12.8186 14.0787 12.6638 14.2336C12.0962 14.8011 11.6459 15.4748 11.3387 16.2164C11.0315 16.9579 10.8734 17.7527 10.8734 18.5553C10.8734 19.3579 11.0315 20.1527 11.3387 20.8942C11.6459 21.6357 12.0962 22.3095 12.6638 22.877L20.5205 30.7325V30.7336ZM25.2349 18.1625C24.6864 17.6129 24.0172 17.1989 23.2806 16.9533C22.5439 16.7078 21.7601 16.6375 20.9916 16.7481C20.847 16.766 20.7012 16.7264 20.5855 16.6378C20.4699 16.5492 20.3936 16.4187 20.3732 16.2745C20.3528 16.1303 20.3899 15.9838 20.4765 15.8666C20.563 15.7494 20.6922 15.671 20.836 15.6481C21.7751 15.5134 22.7326 15.5996 23.6326 15.8997C24.5326 16.1998 25.3502 16.7056 26.0205 17.377C26.692 18.0474 27.1979 18.8651 27.498 19.7653C27.7981 20.6655 27.8842 21.6232 27.7494 22.5625C27.7265 22.7064 27.648 22.8355 27.5308 22.922C27.4136 23.0086 27.2671 23.0457 27.1229 23.0253C26.9787 23.0049 26.8482 22.9286 26.7596 22.813C26.6711 22.6973 26.6315 22.5515 26.6494 22.4069C26.7601 21.6382 26.6899 20.8542 26.4443 20.1174C26.1988 19.3805 25.7847 18.7111 25.2349 18.1625Z" fill="#EF7021" stroke="#EF7021" stroke-width="0.533333"/>
<path fill-rule="evenodd" clip-rule="evenodd" d="M29.162 14.2332C28.0041 13.0733 26.5916 12.1995 25.0368 11.6812C23.4819 11.1629 21.8276 11.0145 20.2054 11.2476C20.1325 11.2592 20.0581 11.2562 19.9864 11.2387C19.9148 11.2212 19.8473 11.1897 19.788 11.1458C19.7286 11.102 19.6786 11.0468 19.6408 10.9834C19.6031 10.9201 19.5783 10.8498 19.568 10.7768C19.5576 10.7037 19.562 10.6294 19.5807 10.558C19.5994 10.4867 19.6321 10.4197 19.677 10.3612C19.7218 10.3026 19.7779 10.2536 19.8419 10.2169C19.9059 10.1802 19.9766 10.1567 20.0498 10.1476C23.5565 9.64985 27.2498 10.7487 29.9476 13.4476C31.2295 14.7276 32.1953 16.2889 32.7682 18.0074C33.341 19.726 33.5052 21.5545 33.2476 23.3476C33.2376 23.4201 33.2134 23.4899 33.1763 23.553C33.1393 23.6161 33.0901 23.6712 33.0317 23.7153C32.9733 23.7593 32.9068 23.7914 32.8359 23.8097C32.7651 23.8279 32.6913 23.832 32.6189 23.8217C32.5465 23.8114 32.4768 23.7869 32.4139 23.7495C32.3509 23.7122 32.296 23.6628 32.2522 23.6042C32.2084 23.5456 32.1766 23.479 32.1587 23.408C32.1407 23.3371 32.137 23.2633 32.1476 23.191C32.381 21.5685 32.2327 19.914 31.7144 18.3589C31.1961 16.8039 30.3221 15.3912 29.162 14.2332Z" fill="#EF7021" stroke="#EF7021" stroke-width="0.533333"/>
</svg>
