<svg width="315" height="132" viewBox="0 0 315 132" fill="none" xmlns="http://www.w3.org/2000/svg">
<g filter="url(#filter0_d_1063_121124)">
<path d="M49.0668 44.2205C49.8987 44.2228 50.7305 44.2212 51.5624 44.2201C53.017 44.2187 54.4715 44.2198 55.9261 44.2226C58.0889 44.2267 60.2517 44.2269 62.4145 44.2263C66.0536 44.2254 69.6927 44.2277 73.3317 44.2318C76.9331 44.2359 80.5344 44.2385 84.1358 44.2392C84.36 44.2393 84.5842 44.2393 84.8152 44.2394C85.9539 44.2396 87.0926 44.2398 88.2313 44.24C96.2896 44.2415 104.348 44.2461 112.406 44.2526C120.233 44.2588 128.06 44.2637 135.887 44.2666C136.128 44.2667 136.369 44.2668 136.618 44.2669C139.043 44.2678 141.467 44.2687 143.891 44.2695C148.83 44.2712 153.768 44.2732 158.706 44.2752C159.047 44.2754 159.047 44.2754 159.394 44.2755C174.547 44.2818 189.699 44.2927 204.852 44.3042C204.918 45.2139 204.983 46.1237 205.047 47.0335C205.08 47.4931 205.113 47.9527 205.146 48.4123C205.248 49.863 205.338 51.2997 205.309 52.7541C205.169 52.7542 205.029 52.7542 204.885 52.7543C189.656 52.7643 174.428 52.7751 159.199 52.7904C158.972 52.7906 158.744 52.7908 158.51 52.7911C153.566 52.796 148.622 52.8011 143.677 52.8064C141.253 52.8089 138.828 52.8115 136.403 52.814C136.162 52.8143 135.921 52.8145 135.672 52.8148C127.852 52.8229 120.033 52.8288 112.213 52.8336C104.176 52.8386 96.1402 52.8457 88.1039 52.8557C86.9687 52.8571 85.8335 52.8585 84.6983 52.8598C84.4749 52.8601 84.2514 52.8604 84.0212 52.8607C80.4255 52.8649 76.8298 52.8669 73.2341 52.8679C69.6187 52.869 66.0033 52.8726 62.3879 52.8787C60.2403 52.8822 58.0926 52.8839 55.945 52.8828C54.5093 52.8823 53.0737 52.8842 51.6381 52.8882C50.8207 52.8904 50.0034 52.8915 49.186 52.8896C42.2056 52.8748 36.7208 54.15 31.5019 59.0629C27.7836 62.8689 25.9708 68.0796 25.9789 73.3464C26.0641 78.812 28.3595 83.6181 32.2013 87.4669C32.3382 87.6064 32.4751 87.7459 32.6161 87.8897C37.683 92.683 44.2329 93.0562 50.823 93.0155C51.7157 93.0108 52.6084 93.0102 53.5011 93.0091C55.0629 93.0066 56.6246 93.0016 58.1864 92.9949C60.5088 92.9851 62.8312 92.9793 65.1537 92.9745C68.1098 92.9684 71.0658 92.9614 74.0219 92.9525C74.3733 92.9514 74.3733 92.9514 74.7318 92.9504C75.0846 92.9493 75.0845 92.9493 75.4445 92.9482C81.5053 92.9299 87.5662 92.9198 93.6271 92.9135C94.618 92.9125 95.609 92.9114 96.5999 92.9103C98.3543 92.9084 100.109 92.9065 101.863 92.9046C107.535 92.8986 113.206 92.8918 118.877 92.8838C119.137 92.8835 119.396 92.8831 119.663 92.8827C128.07 92.871 136.478 92.8483 144.886 92.8208C153.534 92.7926 162.183 92.7772 170.831 92.7773C172.052 92.7774 173.273 92.7772 174.494 92.777C174.734 92.7769 174.975 92.7769 175.222 92.7768C179.09 92.7757 182.957 92.7608 186.824 92.7406C190.71 92.7207 194.594 92.7146 198.48 92.7229C200.788 92.7274 203.096 92.7211 205.404 92.6992C206.946 92.6856 208.488 92.6862 210.03 92.6981C210.908 92.7046 211.786 92.7049 212.665 92.688C217.729 92.5963 217.729 92.5963 219.088 93.5513C219.963 94.4411 220.518 95.4352 221.039 96.5602C221.469 97.397 222.064 98.0952 222.665 98.8142C223.401 99.7219 224.077 100.65 224.72 101.626C207.516 101.638 190.312 101.649 173.107 101.655C172.853 101.655 172.598 101.655 172.336 101.655C166.8 101.657 161.264 101.659 155.729 101.661C153.014 101.662 150.299 101.663 147.584 101.664C147.314 101.664 147.044 101.664 146.766 101.664C138.012 101.667 129.259 101.672 120.506 101.678C111.509 101.685 102.512 101.689 93.5157 101.69C92.2444 101.691 90.9732 101.691 89.7019 101.691C89.4517 101.691 89.2015 101.691 88.9437 101.691C84.9193 101.692 80.8949 101.695 76.8704 101.699C72.8227 101.703 68.7749 101.705 64.7272 101.704C62.3235 101.703 59.9199 101.705 57.5163 101.709C55.9085 101.711 54.3008 101.711 52.693 101.71C51.7783 101.708 50.8636 101.708 49.9489 101.712C40.6169 101.741 32.7294 100.023 25.8069 93.4046C25.6532 93.2653 25.4995 93.1261 25.3412 92.9826C20.5783 88.5138 17.6416 81.4524 17.3283 74.9989C17.1114 67.119 19.1109 59.5995 24.6351 53.7344C24.9486 53.4067 25.2635 53.0804 25.5785 52.7541C25.8284 52.4825 25.8284 52.4825 26.0834 52.2054C28.9669 49.1558 32.6854 47.0674 36.6261 45.7173C36.8089 45.6538 36.9917 45.5903 37.1801 45.5249C41.1086 44.2506 44.9774 44.205 49.0668 44.2205Z" fill="url(#paint0_linear_1063_121124)"/>
<path d="M254.793 15.377C254.982 15.4554 255.172 15.5338 255.368 15.6146C255.995 15.8745 256.622 16.1374 257.248 16.4002C257.696 16.5859 258.143 16.7714 258.591 16.9566C259.534 17.3471 260.477 17.7386 261.42 18.1308C263.505 18.9965 265.596 19.8474 267.686 20.6987C268.861 21.1771 270.035 21.6563 271.209 22.1354C271.443 22.2311 271.677 22.3267 271.919 22.4252C273.334 23.0025 274.748 23.5803 276.163 24.1585C276.866 24.446 277.57 24.7333 278.273 25.0206C279.199 25.3988 280.124 25.7775 281.05 26.1564C283.469 27.1456 285.891 28.1239 288.32 29.0892C289.068 29.3879 289.817 29.6867 290.565 29.9855C291.278 30.2689 291.991 30.5496 292.705 30.8302C293.135 31.0018 293.565 31.1735 293.995 31.3453C294.193 31.4222 294.391 31.4991 294.595 31.5782C294.864 31.6866 294.864 31.6866 295.138 31.7972C295.295 31.859 295.451 31.9208 295.612 31.9845C295.972 32.2008 295.972 32.2008 296.2 32.886C296.276 33.645 296.297 34.4077 296.329 35.1697C296.339 35.3699 296.349 35.5701 296.359 35.7763C296.515 39.315 296.447 42.8529 296.258 46.3886C296.248 46.5738 296.238 46.759 296.228 46.9498C295.199 65.7118 290.057 85.8326 277.034 99.9689C276.608 100.432 276.198 100.905 275.79 101.384C274.009 103.419 272.067 105.216 269.937 106.879C269.798 106.99 269.658 107.102 269.515 107.216C264.858 110.93 259.684 113.917 254.18 116.2C253.996 116.278 253.811 116.357 253.622 116.437C251.891 117.124 250.646 116.806 248.97 116.099C248.777 116.015 248.584 115.93 248.385 115.843C248.077 115.709 248.077 115.709 247.763 115.572C244.142 113.969 240.471 112.212 237.28 109.848C237.074 109.698 237.074 109.698 236.865 109.546C232.138 106.11 227.539 102.228 224.034 97.5157C223.841 97.2626 223.647 97.0096 223.453 96.7565C220.542 92.9157 218.191 88.8043 216.041 84.4984C215.922 84.262 215.922 84.262 215.8 84.0208C209.201 70.9035 206.844 55.3345 206.877 40.7826C206.878 40.1194 206.877 39.4562 206.875 38.7929C206.874 37.7615 206.883 36.7307 206.9 35.6995C206.906 35.2272 206.901 34.7549 206.895 34.2826C206.899 34.0399 206.904 33.7971 206.908 33.547C206.908 33.3479 206.908 33.1489 206.907 32.9438C207.292 32.0728 208.116 31.8643 208.962 31.5157C209.113 31.4508 209.264 31.3859 209.42 31.3191C209.892 31.1195 210.368 30.9279 210.845 30.7378C211.024 30.6655 211.204 30.5931 211.389 30.5185C211.779 30.3618 212.168 30.2053 212.558 30.0492C213.633 29.6181 214.708 29.1844 215.783 28.7511C216.009 28.6601 216.235 28.569 216.468 28.4751C218.998 27.4555 221.523 26.4243 224.049 25.3924C224.52 25.2001 224.99 25.0077 225.461 24.8154C226.174 24.5242 226.887 24.2331 227.599 23.9419C229.026 23.3592 230.452 22.7768 231.878 22.1947C232.351 22.0018 232.824 21.8089 233.297 21.6159C234.463 21.1398 235.63 20.6642 236.797 20.1898C238.9 19.3343 241 18.4738 243.092 17.5911C244.02 17.1995 244.95 16.8108 245.88 16.4223C246.317 16.2383 246.755 16.0528 247.191 15.8657C247.792 15.608 248.395 15.3555 248.999 15.104C249.174 15.0275 249.349 14.9509 249.529 14.872C251.476 14.0744 252.926 14.5845 254.793 15.377ZM250.486 23.6151C250.298 23.692 250.109 23.7689 249.915 23.8482C249.711 23.9348 249.506 24.0213 249.295 24.1105C249.079 24.1997 248.863 24.289 248.639 24.3809C247.921 24.6777 247.204 24.978 246.486 25.2783C245.981 25.4877 245.475 25.6969 244.969 25.9058C243.917 26.3407 242.865 26.7767 241.813 27.2135C239.66 28.1073 237.5 28.9866 235.34 29.8658C234.421 30.2401 233.503 30.6152 232.584 30.9904C230.636 31.7861 228.687 32.5805 226.738 33.3734C225.712 33.7906 224.687 34.2081 223.661 34.6257C223.174 34.824 222.687 35.0221 222.199 35.22C218.749 36.6126 218.749 36.6126 215.356 38.1386C215.041 58.6045 219.338 80.5687 234.54 96.6022C234.735 96.8071 234.93 97.012 235.132 97.2231C238.447 100.622 242.433 103.403 246.589 105.683C246.943 105.879 247.295 106.079 247.645 106.282C249.797 107.582 249.797 107.582 252.213 107.983C252.85 107.756 253.406 107.488 253.982 107.135C254.481 106.835 254.992 106.568 255.509 106.3C259.489 104.21 263.147 101.725 266.454 98.6727C266.911 98.254 267.378 97.8559 267.854 97.4586C281.684 85.3186 286.568 64.7398 287.882 47.2137C288.002 45.3339 288.005 43.461 287.993 41.5784C287.992 41.242 287.991 40.9055 287.99 40.569C287.988 39.7589 287.984 38.9487 287.979 38.1386C285.958 37.1831 283.893 36.346 281.819 35.5131C280.752 35.0841 279.685 34.6531 278.617 34.2223C278.393 34.1318 278.169 34.0413 277.938 33.9481C275.67 33.0326 273.405 32.1088 271.141 31.1837C270.45 30.9013 269.759 30.6191 269.067 30.3369C266.901 29.4525 264.735 28.5675 262.569 27.6814C261.283 27.1551 259.996 26.6294 258.709 26.1039C258.157 25.8781 257.604 25.6521 257.052 25.4258C256.284 25.1111 255.515 24.7972 254.746 24.4834C254.402 24.3421 254.402 24.3421 254.051 24.1979C253.84 24.1119 253.628 24.0259 253.411 23.9373C253.136 23.8248 253.136 23.8248 252.855 23.7101C251.916 23.3597 251.433 23.2206 250.486 23.6151Z" fill="url(#paint1_linear_1063_121124)"/>
<path d="M270.623 44.5328C271.312 44.863 271.792 45.1893 272.332 45.7332C272.558 45.9595 272.558 45.9595 272.789 46.1904C272.949 46.3529 273.109 46.5153 273.274 46.6828C273.44 46.8494 273.606 47.016 273.777 47.1877C274.307 47.7195 274.834 48.2529 275.362 48.7863C275.721 49.1474 276.079 49.5084 276.439 49.8693C277.318 50.7536 278.196 51.6393 279.073 52.5259C278.699 53.4757 278.007 54.1112 277.295 54.8151C277.159 54.952 277.022 55.089 276.882 55.23C276.423 55.6891 275.963 56.1465 275.504 56.6039C275.175 56.9324 274.846 57.261 274.518 57.5897C273.625 58.4825 272.731 59.3738 271.837 60.2649C270.903 61.1961 269.97 62.1286 269.037 63.061C267.27 64.8267 265.502 66.5913 263.733 68.3554C261.72 70.3637 259.707 72.3734 257.695 74.3831C253.556 78.5175 249.415 82.6503 245.274 86.782C244.615 86.4835 244.144 86.166 243.635 85.6547C243.497 85.5177 243.359 85.3806 243.217 85.2394C243.069 85.0894 242.921 84.9395 242.768 84.7849C242.61 84.6267 242.451 84.4685 242.288 84.3055C241.766 83.7826 241.245 83.2582 240.724 82.7337C240.362 82.3707 240 82.0078 239.637 81.6451C238.684 80.6902 237.732 79.7339 236.781 78.7774C235.81 77.8015 234.837 76.8269 233.865 75.8522C231.957 73.9396 230.051 72.0256 228.146 70.1107C229.578 68.421 229.578 68.421 230.279 67.7226C230.478 67.5239 230.478 67.5239 230.681 67.3212C230.819 67.1846 230.956 67.048 231.098 66.9072C231.316 66.6901 231.316 66.6901 231.538 66.4686C231.996 66.0121 232.454 65.5564 232.913 65.1007C233.226 64.789 233.539 64.4772 233.851 64.1654C234.613 63.4061 235.376 62.6475 236.139 61.8892C236.845 62.2035 237.325 62.5633 237.869 63.1106C238.024 63.266 238.179 63.4215 238.339 63.5816C238.505 63.7491 238.67 63.9166 238.84 64.0891C239.096 64.3467 239.096 64.3467 239.358 64.6094C239.904 65.1575 240.448 65.7072 240.992 66.2569C241.361 66.629 241.731 67.001 242.101 67.3729C243.008 68.2843 243.913 69.1971 244.817 70.1107C246.232 68.9406 247.524 67.663 248.819 66.3627C249.058 66.124 249.296 65.8853 249.535 65.6466C250.179 65.0027 250.823 64.3581 251.466 63.7133C252.139 63.0381 252.814 62.3635 253.488 61.6889C254.763 60.4131 256.038 59.1367 257.312 57.8601C258.764 56.406 260.216 54.9526 261.668 53.4992C264.654 50.5111 267.639 47.5223 270.623 44.5328Z" fill="#EF7021"/>
<path d="M170.14 60.0625C179.662 60.0625 179.662 60.0625 181.645 61.72C183.155 63.3429 183.202 65.3116 183.214 67.4133C183.219 67.6177 183.223 67.8222 183.228 68.0328C183.239 69.901 183.01 71.8102 181.658 73.2083C181.521 73.3546 181.384 73.5009 181.243 73.6516C180.873 73.9933 180.873 73.9933 180.416 74.2217C180.713 75.6571 181.093 77.0241 181.567 78.41C181.633 78.6037 181.698 78.7974 181.765 78.997C181.971 79.6084 182.179 80.2194 182.386 80.8302C182.595 81.4469 182.804 82.0636 183.012 82.6806C183.141 83.0629 183.271 83.4449 183.401 83.8266C183.842 85.1324 183.842 85.1324 183.842 85.6404C182.184 85.6404 180.526 85.6404 178.818 85.6404C178.394 84.2221 177.971 82.8037 177.549 81.3848C177.406 80.902 177.262 80.4193 177.117 79.9368C176.91 79.2437 176.704 78.5504 176.498 77.8569C176.433 77.6407 176.369 77.4244 176.302 77.2016C176.242 77.0005 176.183 76.7993 176.122 76.5921C176.069 76.4151 176.016 76.2381 175.962 76.0558C175.849 75.5919 175.849 75.5919 175.849 74.9068C175.397 74.9068 174.945 74.9068 174.479 74.9068C174.479 78.4489 174.479 81.9909 174.479 85.6404C173.047 85.6404 171.615 85.6404 170.14 85.6404C170.14 77.1997 170.14 68.759 170.14 60.0625ZM174.479 64.63C174.479 66.5894 174.479 68.5489 174.479 70.5677C175.458 70.5677 176.438 70.5677 177.448 70.5677C178.366 69.8067 178.366 69.8067 178.476 69.1876C178.475 68.9452 178.475 68.9452 178.474 68.6979C178.475 68.5195 178.475 68.3411 178.475 68.1573C178.468 67.8808 178.468 67.8808 178.461 67.5988C178.463 67.4145 178.464 67.2303 178.466 67.0404C178.458 66.2695 178.417 65.6759 178.115 64.9618C177.438 64.45 176.867 64.5423 176.035 64.5729C175.521 64.5917 175.008 64.6106 174.479 64.63Z" fill="black"/>
<path d="M66.2001 61.1184C67.5771 62.4239 68.0092 64.2027 68.0862 66.0466C68.087 66.3091 68.0879 66.5717 68.0888 66.8422C68.0903 67.1418 68.0917 67.4414 68.0932 67.7501C68.0936 68.0745 68.0938 68.399 68.094 68.7234C68.0947 69.0595 68.0955 69.3957 68.0963 69.7319C68.0977 70.4354 68.0981 71.139 68.0979 71.8425C68.0979 72.7393 68.101 73.6361 68.105 74.5329C68.1075 75.2271 68.108 75.9213 68.1079 76.6155C68.1081 76.9459 68.1091 77.2762 68.1109 77.6066C68.1351 82.5725 68.1351 82.5725 66.457 84.4981C64.5204 86.0224 62.4386 86.0787 60.0625 85.8684C58.5832 85.525 57.698 84.8336 56.8653 83.5846C56.1188 82.0915 55.9249 80.7537 55.915 79.0991C55.9128 78.8017 55.9106 78.5043 55.9084 78.1979C55.9073 77.8757 55.9063 77.5534 55.9054 77.2312C55.9048 77.0671 55.9041 76.9029 55.9035 76.7338C55.9001 75.8644 55.8979 74.995 55.897 74.1256C55.8957 73.235 55.8902 72.3444 55.8837 71.4538C55.8794 70.7626 55.8783 70.0713 55.8779 69.38C55.8772 69.0521 55.8754 68.7242 55.8724 68.3963C55.8303 63.4898 55.8303 63.4898 57.3792 61.5323C59.6194 59.2542 63.7 59.1952 66.2001 61.1184ZM61.0331 64.701C60.4566 65.4793 60.4883 66.2184 60.4825 67.1519C60.4803 67.4362 60.4781 67.7205 60.4758 68.0134C60.4747 68.3241 60.4738 68.6348 60.4729 68.9455C60.4716 69.2644 60.4703 69.5832 60.469 69.9021C60.4666 70.5705 60.4652 71.239 60.4644 71.9074C60.4632 72.7627 60.4577 73.6178 60.4512 74.473C60.4469 75.1317 60.4457 75.7904 60.4454 76.4491C60.4447 76.7643 60.4429 77.0795 60.4399 77.3947C60.436 77.8363 60.4368 78.2779 60.4379 78.7195C60.4371 78.9705 60.4362 79.2215 60.4354 79.4801C60.5309 80.2528 60.7389 80.6816 61.2044 81.3009C61.751 81.5663 61.751 81.5663 62.3463 81.5293C63.0589 81.1333 63.2263 80.9446 63.4882 80.159C63.5119 79.6993 63.5221 79.2389 63.525 78.7786C63.5271 78.4943 63.5293 78.21 63.5316 77.9171C63.5327 77.6064 63.5337 77.2957 63.5345 76.985C63.5359 76.6661 63.5372 76.3473 63.5385 76.0284C63.5409 75.3599 63.5422 74.6915 63.543 74.023C63.5443 73.1678 63.5498 72.3127 63.5563 71.4575C63.5605 70.7988 63.5617 70.1401 63.562 69.4814C63.5627 69.1662 63.5646 68.851 63.5676 68.5358C63.5715 68.0942 63.5706 67.6526 63.5696 67.211C63.5708 66.8345 63.5708 66.8345 63.5721 66.4504C63.4687 65.6139 63.1749 65.0014 62.5747 64.4012C61.9209 64.3324 61.5687 64.2993 61.0331 64.701Z" fill="black"/>
<path d="M79.891 60.7627C80.9927 61.6035 81.7401 62.8087 81.9865 64.1731C82.0113 64.7369 82.0247 65.2945 82.0269 65.8584C82.0292 66.1109 82.0292 66.1109 82.0315 66.3686C82.036 66.9246 82.0386 67.4807 82.0409 68.0367C82.0418 68.2273 82.0428 68.4179 82.0437 68.6143C82.0485 69.6236 82.0518 70.6328 82.0539 71.6421C82.0564 72.6808 82.0643 73.7194 82.0734 74.7581C82.0793 75.56 82.0812 76.3619 82.0821 77.1639C82.0832 77.5465 82.0858 77.9292 82.0901 78.3119C82.1144 80.6509 82.0773 82.5579 80.5592 84.4555C79.0659 85.6433 78.013 85.9515 76.1487 85.9685C75.902 85.972 75.902 85.972 75.6502 85.9755C74.0037 85.9489 72.6188 85.4071 71.4108 84.2614C69.8101 82.4041 69.9759 79.8001 69.9897 77.4973C69.9891 77.1331 69.9882 76.7689 69.9871 76.4048C69.9858 75.6454 69.9877 74.8862 69.992 74.1269C69.9972 73.1602 69.9942 72.1937 69.9887 71.227C69.9854 70.4762 69.9865 69.7254 69.9888 68.9746C69.9894 68.6184 69.9887 68.2623 69.9866 67.9061C69.9653 63.3952 69.9653 63.3952 71.4397 61.617C73.6394 59.4168 77.2533 59.2207 79.891 60.7627ZM74.9069 64.8582C74.6568 65.6087 74.6435 66.1753 74.6345 66.9657C74.6308 67.2591 74.6272 67.5526 74.6234 67.8549C74.6208 68.1757 74.6183 68.4965 74.6161 68.8173C74.6149 68.979 74.6137 69.1407 74.6124 69.3073C74.6063 70.1631 74.6019 71.0187 74.5986 71.8745C74.5955 72.582 74.5892 73.2895 74.5799 73.997C74.5686 74.8522 74.5629 75.7072 74.5613 76.5625C74.5598 76.8879 74.5563 77.2134 74.5508 77.5387C74.5436 77.9945 74.5443 78.4504 74.5453 78.9062C74.5434 79.1653 74.5416 79.4244 74.5397 79.6914C74.7225 80.6082 75.0989 80.9552 75.8204 81.5295C76.4362 81.5701 76.4362 81.5701 76.9623 81.3011C77.5109 80.4782 77.478 80.1023 77.4817 79.1236C77.4829 78.9731 77.4841 78.8226 77.4853 78.6676C77.4885 78.1704 77.4882 77.6733 77.4877 77.1761C77.4886 76.8306 77.4896 76.485 77.4907 76.1395C77.4924 75.4153 77.4923 74.6912 77.4911 73.9671C77.4898 73.0386 77.4937 72.1102 77.499 71.1817C77.5023 70.4682 77.5025 69.7547 77.5018 69.0412C77.5019 68.6988 77.5031 68.3564 77.5054 68.0141C77.5082 67.5357 77.5067 67.0575 77.5041 66.5791C77.5043 66.1706 77.5043 66.1706 77.5045 65.7539C77.4735 65.0894 77.4735 65.0894 77.1068 64.6552C76.2878 64.0979 75.6776 64.3444 74.9069 64.8582Z" fill="black"/>
<path d="M155.523 60.0625C157.03 60.0625 158.538 60.0625 160.091 60.0625C160.095 60.6746 160.1 61.2867 160.104 61.9174C160.12 63.9374 160.137 65.9573 160.156 67.9773C160.168 69.2022 160.178 70.4272 160.187 71.6522C160.195 72.8338 160.206 74.0155 160.218 75.1971C160.222 75.6484 160.226 76.0998 160.228 76.5512C160.232 77.1822 160.239 77.8132 160.246 78.4442C160.247 78.6318 160.247 78.8194 160.248 79.0126C160.261 79.8929 160.276 80.3235 160.776 81.0729C161.21 81.1815 161.21 81.1815 161.689 81.1585C161.929 81.1612 161.929 81.1612 162.175 81.1639C162.697 81.1051 162.697 81.1051 163.06 80.3878C163.108 79.7329 163.131 79.0995 163.132 78.4442C163.136 78.1467 163.136 78.1467 163.139 77.8431C163.146 77.187 163.15 76.5309 163.154 75.8747C163.158 75.42 163.163 74.9653 163.167 74.5105C163.179 73.3133 163.188 72.116 163.197 70.9187C163.206 69.6971 163.218 68.4756 163.229 67.254C163.251 64.8569 163.27 62.4597 163.288 60.0625C164.795 60.0625 166.302 60.0625 167.855 60.0625C167.876 62.7922 167.893 65.5219 167.903 68.2517C167.907 69.5195 167.914 70.7871 167.924 72.0548C167.934 73.2794 167.94 74.5039 167.942 75.7285C167.944 76.1945 167.947 76.6605 167.952 77.1265C168 81.8088 168 81.8088 166.942 83.585C166.819 83.7969 166.697 84.0089 166.571 84.2273C165.084 85.5967 163.641 85.9751 161.661 85.9972C161.489 86.0005 161.317 86.0038 161.141 86.0073C159.559 85.9787 158.394 85.4359 157.179 84.4414C155.798 82.7541 155.488 81.1816 155.497 79.0405C155.497 78.8354 155.497 78.6304 155.497 78.4191C155.497 77.7419 155.499 77.0648 155.501 76.3877C155.501 75.9179 155.502 75.4481 155.502 74.9784C155.503 73.7424 155.505 72.5065 155.508 71.2705C155.51 70.0092 155.511 68.7478 155.512 67.4864C155.514 65.0118 155.519 62.5371 155.523 60.0625Z" fill="black"/>
<path d="M122.908 60.6762C124.133 61.6832 124.981 62.6082 125.377 64.1731C125.427 64.8127 125.421 65.4448 125.406 66.0858C125.397 66.6604 125.387 67.235 125.377 67.8271C123.946 67.8271 122.514 67.8271 121.038 67.8271C120.942 67.1952 120.845 66.5633 120.748 65.9314C120.571 65.2757 120.446 65.0198 119.896 64.6299C118.855 64.5026 118.855 64.5026 117.912 64.8797C117.46 65.5369 117.505 66.0959 117.499 66.8851C117.492 67.1624 117.484 67.4397 117.477 67.7254C117.654 68.7491 117.94 69.0174 118.755 69.6541C119.415 70.0615 120.093 70.4242 120.781 70.7817C122.789 71.8257 124.374 72.8229 125.377 74.9067C125.739 76.0652 125.666 77.273 125.677 78.475C125.684 78.7132 125.69 78.9513 125.697 79.1967C125.713 81.129 125.397 82.7563 124.121 84.2557C123.933 84.4112 123.745 84.5666 123.55 84.7268C123.404 84.8539 123.258 84.9811 123.108 85.1121C121.379 86.2127 119.126 86.0583 117.156 85.8686C115.786 85.5386 114.873 84.8892 113.959 83.8133C113.768 83.5942 113.768 83.5942 113.573 83.3708C112.839 82.2168 112.755 81.0652 112.788 79.7311C112.798 79.1941 112.807 78.6572 112.817 78.1039C114.324 78.1039 115.831 78.1039 117.384 78.1039C117.403 78.4619 117.422 78.8199 117.441 79.1887C117.521 79.9543 117.576 80.3311 117.998 80.9871C118.698 81.4035 119.095 81.4348 119.896 81.3012C120.423 80.963 120.423 80.963 120.81 80.3877C120.908 79.7448 120.948 79.2152 120.938 78.5749C120.944 78.4144 120.949 78.2538 120.955 78.0883C120.953 77.241 120.852 76.7894 120.341 76.1083C119.567 75.5139 118.777 75.0684 117.912 74.6212C115.884 73.5172 113.708 72.2581 112.944 69.9431C112.555 67.6547 112.328 64.6793 113.415 62.5611C114.48 61.0627 115.657 60.3319 117.446 59.9322C119.336 59.6346 121.199 59.7711 122.908 60.6762Z" fill="black"/>
<path d="M186.125 60.0625C189.969 60.0625 193.812 60.0625 197.772 60.0625C197.772 61.5698 197.772 63.077 197.772 64.63C195.436 64.63 193.1 64.63 190.692 64.63C190.692 66.6648 190.692 68.6996 190.692 70.7961C192.727 70.7961 194.762 70.7961 196.859 70.7961C196.859 72.228 196.859 73.6599 196.859 75.1352C194.824 75.1352 192.789 75.1352 190.692 75.1352C190.692 77.17 190.692 79.2048 190.692 81.3013C193.029 81.3013 195.365 81.3013 197.772 81.3013C197.772 82.7332 197.772 84.1651 197.772 85.6404C193.929 85.6404 190.085 85.6404 186.125 85.6404C186.125 77.1997 186.125 68.759 186.125 60.0625Z" fill="black"/>
<path d="M128.118 60.0625C131.886 60.0625 135.654 60.0625 139.537 60.0625C139.537 61.5698 139.537 63.077 139.537 64.63C137.276 64.63 135.015 64.63 132.686 64.63C132.686 66.6648 132.686 68.6996 132.686 70.7961C134.72 70.7961 136.755 70.7961 138.852 70.7961C138.852 72.228 138.852 73.6599 138.852 75.1352C136.817 75.1352 134.782 75.1352 132.686 75.1352C132.686 77.17 132.686 79.2048 132.686 81.3013C134.947 81.3013 137.207 81.3013 139.537 81.3013C139.537 82.7332 139.537 84.1651 139.537 85.6404C135.769 85.6404 132.001 85.6404 128.118 85.6404C128.118 77.1997 128.118 68.759 128.118 60.0625Z" fill="black"/>
<path d="M152.182 61.2185C153.633 62.6434 153.953 64.0725 153.985 66.0562C153.978 66.9512 153.948 67.8459 153.923 68.7406C152.416 68.7406 150.908 68.7406 149.356 68.7406C149.311 67.9302 149.266 67.1199 149.222 66.3096C149.182 65.5142 149.182 65.5142 148.67 64.8582C148.258 64.6265 148.258 64.6265 147.757 64.6298C147.133 64.8938 147.133 64.8938 146.615 65.3149C146.372 66.0441 146.355 66.5721 146.35 67.3385C146.348 67.6137 146.345 67.8889 146.343 68.1724C146.342 68.6188 146.342 68.6188 146.34 69.0742C146.339 69.3828 146.338 69.6914 146.336 70C146.334 70.647 146.333 71.2939 146.332 71.9409C146.331 72.7685 146.325 73.596 146.319 74.4235C146.314 75.0611 146.313 75.6986 146.313 76.3361C146.312 76.7891 146.307 77.2421 146.303 77.6951C146.304 77.9717 146.305 78.2483 146.305 78.5333C146.304 78.7762 146.304 79.0191 146.303 79.2693C146.399 80.0291 146.616 80.4623 147.072 81.0727C147.538 81.2098 147.538 81.2098 148.028 81.1441C148.315 81.1205 148.603 81.097 148.899 81.0727C149.138 80.2596 149.197 79.4615 149.256 78.6177C149.289 78.1467 149.322 77.6757 149.356 77.1904C150.863 77.1904 152.37 77.1904 153.923 77.1904C154.038 82.3687 154.038 82.3687 152.638 84.2271C151.401 85.5152 150.127 85.9043 148.374 85.9645C146.339 85.9803 144.787 85.8675 143.232 84.4412C141.853 82.9522 141.567 81.2685 141.55 79.2871C141.549 79.1351 141.547 78.983 141.546 78.8263C141.541 78.3256 141.539 77.8249 141.536 77.3242C141.535 77.152 141.535 76.9798 141.534 76.8024C141.529 75.8903 141.526 74.9783 141.523 74.0662C141.521 73.1302 141.513 72.1943 141.504 71.2584C141.498 70.5334 141.496 69.8085 141.495 69.0835C141.494 68.7388 141.492 68.3941 141.487 68.0495C141.46 65.7194 141.599 63.5184 143.004 61.5611C145.477 59.3076 149.548 59.147 152.182 61.2185Z" fill="black"/>
<path d="M53.212 60.0622C53.212 68.5029 53.212 76.9436 53.212 85.64C51.7047 85.64 50.1974 85.64 48.6445 85.64C48.6445 79.0081 48.6445 72.3761 48.6445 65.5431C47.0619 66.2214 47.0619 66.2214 45.4473 66.9134C45.4473 65.2554 45.4473 63.5974 45.4473 61.8892C48.3919 59.8407 49.1943 60.0622 53.212 60.0622Z" fill="black"/>
<path d="M98.5658 60.0399C98.9057 60.0414 99.2456 60.0442 99.5854 60.0479C99.7587 60.049 99.9319 60.05 100.11 60.0511C100.54 60.0538 100.969 60.0579 101.398 60.0622C100.891 61.6653 100.276 63.1962 99.6077 64.7385C99.4451 65.1168 99.4451 65.1168 99.2791 65.5027C98.9859 66.1843 98.6919 66.8656 98.3977 67.5468C98.0912 68.2569 97.7857 68.9674 97.4801 69.678C97.4187 69.8208 97.3573 69.9636 97.294 70.1107C97.1693 70.4008 97.0445 70.6909 96.9198 70.981C96.731 71.42 96.5421 71.859 96.3531 72.2979C95.0959 75.2194 93.8498 78.1455 92.6058 81.0726C92.4074 81.539 92.2091 82.0055 92.0108 82.4719C91.5619 83.5279 91.1132 84.584 90.6646 85.6401C89.3834 85.6401 88.1022 85.6401 86.7822 85.6401C87.5127 83.715 88.2744 81.8113 89.09 79.9209C89.1991 79.6669 89.3081 79.4129 89.4205 79.1512C89.7728 78.3308 90.1259 77.5107 90.479 76.6907C90.7234 76.1223 90.9677 75.5539 91.2119 74.9854C91.5825 74.123 91.9531 73.2606 92.324 72.3982C93.1093 70.5723 93.8917 68.7452 94.6718 66.917C94.8636 66.468 95.0553 66.0191 95.2471 65.5701C95.5165 64.9392 95.7858 64.3082 96.0546 63.677C96.2982 63.105 96.5425 62.5332 96.787 61.9615C96.8583 61.7934 96.9296 61.6254 97.0031 61.4523C97.5971 60.0662 97.5971 60.0662 98.5658 60.0399Z" fill="black"/>
<path d="M101.741 74.9353C102.815 75.7404 103.487 76.5121 103.682 77.8756C103.736 78.6982 103.735 79.5207 103.739 80.3449C103.744 80.5641 103.749 80.7832 103.754 81.0091C103.761 82.4135 103.602 83.4534 102.997 84.7268C101.893 85.8032 101.007 85.9079 99.5003 85.9258C99.2044 85.9317 98.9086 85.9376 98.6037 85.9436C97.4025 85.8389 96.6632 85.4957 95.8463 84.6126C94.9692 83.3133 95.1731 81.8431 95.1612 80.3306C95.1546 80.053 95.1479 79.7754 95.1411 79.4894C95.13 77.9144 95.1573 76.8498 96.1461 75.5919C97.5886 74.2565 99.9883 74.3719 101.741 74.9353ZM98.8865 77.6472C98.8865 79.3806 98.8865 81.114 98.8865 82.8998C99.1126 82.9752 99.3387 83.0506 99.5717 83.1282C99.7224 83.0528 99.8731 82.9775 100.028 82.8998C100.028 81.2418 100.028 79.5839 100.028 77.8756C99.6516 77.8003 99.2748 77.7249 98.8865 77.6472Z" fill="black"/>
<path d="M91.3491 60.4477C92.1258 61.0463 92.3513 61.446 92.7194 62.346C92.8563 63.4467 92.8253 64.549 92.8193 65.6574C92.8261 66.1048 92.8261 66.1048 92.8331 66.5611C92.833 66.8493 92.8328 67.1375 92.8327 67.4345C92.8333 67.8268 92.8333 67.8268 92.834 68.2271C92.6745 69.2594 92.2091 69.9964 91.4134 70.6727C89.9207 71.4387 88.306 71.5611 86.6889 71.0938C85.59 70.6059 85.1059 70.0239 84.4979 68.9689C84.3797 68.2061 84.3797 68.2061 84.3766 67.3845C84.3754 67.086 84.3743 66.7875 84.373 66.4799C84.375 66.326 84.3769 66.1722 84.3788 66.0136C84.3837 65.5443 84.3789 65.0758 84.373 64.6066C84.3742 64.3081 84.3754 64.0095 84.3766 63.702C84.3776 63.4309 84.3787 63.1597 84.3797 62.8804C84.5221 61.962 84.8334 61.4677 85.4114 60.7474C87.1828 59.6544 89.4638 59.4849 91.3491 60.4477ZM88.3803 62.8028C87.8765 63.2108 87.8765 63.2108 87.8717 63.7516C87.8741 63.9501 87.8765 64.1487 87.8789 64.3532C87.8804 64.5681 87.8819 64.783 87.8834 65.0044C87.8872 65.2293 87.8911 65.4543 87.895 65.686C87.8971 65.9127 87.8991 66.1393 87.9012 66.3729C87.9066 66.9338 87.9142 67.4945 87.9235 68.0554C88.3004 68.1307 88.6772 68.2061 89.0654 68.2837C89.3395 67.7355 89.32 67.3945 89.3161 66.7832C89.3154 66.5786 89.3146 66.3741 89.3139 66.1633C89.311 65.8422 89.311 65.8422 89.3081 65.5147C89.307 65.2989 89.306 65.0831 89.3049 64.8608C89.3022 64.327 89.2985 63.7933 89.2938 63.2595C88.9923 63.1088 88.6909 62.9581 88.3803 62.8028Z" fill="black"/>
</g>
<defs>
<filter id="filter0_d_1063_121124" x="-5.85749" y="-6.80224" width="331.626" height="149.384" filterUnits="userSpaceOnUse" color-interpolation-filters="sRGB">
<feFlood flood-opacity="0" result="BackgroundImageFix"/>
<feColorMatrix in="SourceAlpha" type="matrix" values="0 0 0 0 0 0 0 0 0 0 0 0 0 0 0 0 0 0 127 0" result="hardAlpha"/>
<feOffset dx="2.83427" dy="1.88951"/>
<feGaussianBlur stdDeviation="4.34588"/>
<feComposite in2="hardAlpha" operator="out"/>
<feColorMatrix type="matrix" values="0 0 0 0 0 0 0 0 0 0 0 0 0 0 0 0 0 0 0.19 0"/>
<feBlend mode="normal" in2="BackgroundImageFix" result="effect1_dropShadow_1063_121124"/>
<feBlend mode="normal" in="SourceGraphic" in2="effect1_dropShadow_1063_121124" result="shape"/>
</filter>
<linearGradient id="paint0_linear_1063_121124" x1="17.3125" y1="72.9652" x2="224.72" y2="72.9652" gradientUnits="userSpaceOnUse">
<stop stop-color="#EF7E19"/>
<stop offset="1" stop-color="#EFAA01"/>
</linearGradient>
<linearGradient id="paint1_linear_1063_121124" x1="296.196" y1="47.9948" x2="211.952" y2="70.5314" gradientUnits="userSpaceOnUse">
<stop stop-color="#EF7F19"/>
<stop offset="1" stop-color="#EFA504"/>
</linearGradient>
</defs>
</svg>
