<svg width="230" height="166" viewBox="0 0 230 166" fill="none" xmlns="http://www.w3.org/2000/svg">
<g filter="url(#filter0_d_1063_121104)">
<path d="M78.5831 16.8192C79.3689 17.5521 79.981 18.3696 80.6089 19.2392C80.828 19.5397 81.0472 19.8401 81.2665 20.1405C81.3754 20.2899 81.4843 20.4393 81.5965 20.5933C82.0467 21.2081 82.5044 21.8171 82.9631 22.4256C84.0348 23.8499 85.0914 25.2852 86.1471 26.7214C86.4785 27.1715 86.8108 27.621 87.1432 28.0703C87.2537 28.2197 87.3642 28.3692 87.478 28.5231C87.6888 28.8082 87.8997 29.0932 88.1109 29.378C89.6207 31.422 89.6207 31.422 89.6207 31.8863C85.9905 33.021 82.3531 34.1311 78.7116 35.2288C77.9804 35.4493 77.2495 35.6704 76.5185 35.8916C75.9495 36.0637 75.3803 36.2353 74.8111 36.4069C74.5409 36.4884 74.2708 36.5701 74.0007 36.6519C73.6284 36.7646 73.256 36.8767 72.8835 36.9887C72.6724 37.0524 72.4613 37.1161 72.2439 37.1818C71.7504 37.3175 71.7504 37.3175 71.4 37.3175C71.6774 35.8648 72.1584 34.4934 72.6483 33.1018C72.7311 32.8642 72.814 32.6266 72.8967 32.389C73.0976 31.8123 73.2997 31.236 73.5023 30.6599C73.2828 30.6127 73.0633 30.5655 72.8371 30.5169C72.2146 30.3788 71.5976 30.2268 70.9811 30.0639C60.4108 27.2802 48.8882 28.409 39.3409 33.9538C37.3762 35.1239 35.5026 36.3947 33.7322 37.8431C33.6335 37.9237 33.5349 38.0042 33.4333 38.0873C31.2195 39.9104 29.1731 41.8701 27.425 44.1503C27.292 44.3201 27.292 44.3201 27.1563 44.4933C20.4096 53.1358 17.221 64.236 18.5227 75.1496C19.6554 83.7639 23.1857 91.6536 29.0018 98.1116C29.0922 98.2129 29.1827 98.3141 29.2759 98.4185C30.2936 99.555 31.3182 100.653 32.5058 101.616C32.6922 101.771 32.8785 101.927 33.0649 102.082C37.7052 105.916 43.884 109.842 49.9771 110.611C50.515 110.53 50.6701 110.323 51.0221 109.916C53.0755 107.747 56.1118 107.081 59.0113 106.997C61.1927 106.97 63.0794 107.269 64.7424 108.799C66.1545 110.439 66.8587 112.614 66.8448 114.756C66.0344 114.931 65.2239 115.106 64.4131 115.279C64.1374 115.339 63.8618 115.398 63.5862 115.458C63.1898 115.544 62.7931 115.629 62.3964 115.714C62.2735 115.74 62.1507 115.767 62.0241 115.795C61.4503 115.917 60.953 115.982 60.3624 115.982C60.3093 115.826 60.2563 115.669 60.2016 115.508C60.1282 115.303 60.0548 115.098 59.9792 114.887C59.8725 114.582 59.8725 114.582 59.7636 114.271C59.4573 113.645 59.1944 113.375 58.6104 113.004C57.626 112.781 56.9343 112.784 55.9824 113.179C55.3184 113.655 55.0514 114.053 54.9093 114.843C54.8822 115.426 54.9192 115.61 55.2159 116.135C56.1107 116.699 57.0564 116.845 58.0848 117.033C61.4577 117.654 64.7187 118.268 66.8448 121.238C68.1899 123.633 68.1675 126.77 67.4479 129.364C66.5811 132.19 64.9143 134.375 62.2896 135.779C59.7038 137.127 55.9876 137.49 53.1574 136.798C52.8695 136.701 52.5844 136.595 52.3033 136.48C52.1657 136.425 52.0282 136.369 51.8865 136.312C50.2855 135.548 49.3137 134.073 48.6412 132.475C48.141 131.045 47.7241 129.592 47.7481 128.071C48.4632 127.902 49.1787 127.734 49.8943 127.567C50.0939 127.52 50.2936 127.473 50.4993 127.424C51.7952 127.122 53.0903 126.87 54.4057 126.669C54.4632 126.932 54.4632 126.932 54.522 127.201C54.9391 129.081 54.9391 129.081 56.1576 130.523C56.9468 131.001 57.7126 130.982 58.6104 130.874C59.4284 130.628 59.9058 130.306 60.4391 129.636C60.8747 128.818 60.9803 128.112 60.888 127.195C60.6121 126.351 60.2611 126.025 59.4895 125.604C58.8955 125.333 58.2852 125.214 57.6468 125.092C57.3671 125.034 57.0874 124.975 56.8078 124.916C56.6691 124.887 56.5303 124.858 56.3874 124.828C53.827 124.284 51.1512 123.564 49.5439 121.339C49.1241 120.673 48.8211 120.171 48.713 119.381C48.5175 118.774 48.5175 118.774 48.0897 118.595C47.5855 118.432 47.0814 118.304 46.5655 118.183C46.1795 118.081 45.7937 117.978 45.4082 117.874C45.1151 117.796 45.1151 117.796 44.816 117.717C38.654 116.009 33.0404 112.653 28.1258 108.624C27.9762 108.501 27.9762 108.501 27.8236 108.377C25.4824 106.453 23.3368 104.355 21.4682 101.966C21.3038 101.766 21.1388 101.567 20.9734 101.368C12.4901 91.0989 9.13342 77.6563 10.3677 64.5364C10.5342 62.9802 10.8074 61.4486 11.1315 59.9182C11.1666 59.752 11.2018 59.5858 11.2381 59.4145C13.0182 51.2516 16.8216 43.7494 22.3442 37.4927C22.4668 37.3507 22.5895 37.2086 22.7158 37.0622C24.5259 34.999 26.4728 33.0334 28.6514 31.3607C28.8269 31.2214 29.0023 31.0821 29.1831 30.9385C39.4348 22.8382 52.618 19.3606 65.5622 20.6433C66.4037 20.7441 67.2371 20.8741 68.0712 21.024C68.2463 21.055 68.4213 21.086 68.6017 21.1179C70.8172 21.5214 72.9653 22.0679 75.1099 22.752C75.7474 22.9761 75.7474 22.9761 76.3055 22.9512C76.3683 22.7717 76.4311 22.5921 76.4958 22.4071C76.728 21.7432 76.961 21.0795 77.1942 20.4158C77.2951 20.1281 77.3959 19.8404 77.4965 19.5526C77.6408 19.1398 77.7858 18.7272 77.9309 18.3146C77.976 18.1852 78.0211 18.0558 78.0675 17.9225C78.388 17.0144 78.388 17.0144 78.5831 16.8192ZM78.7583 18.2208C78.4828 18.9593 78.2083 19.6982 77.9349 20.4375C77.8418 20.689 77.7483 20.9403 77.6545 21.1915C77.5198 21.5526 77.3861 21.9141 77.2527 22.2757C77.2105 22.388 77.1684 22.5002 77.125 22.6159C76.9452 23.106 76.8311 23.4753 76.8311 24.0024C76.7152 23.9645 76.5992 23.9266 76.4797 23.8876C73.7022 22.988 70.9456 22.2377 68.0712 21.7248C67.9244 21.6961 67.7776 21.6674 67.6264 21.6379C62.6087 20.6728 56.7947 20.7772 51.7777 21.7248C51.6089 21.7549 51.4401 21.7849 51.2662 21.8159C43.1848 23.2733 35.5571 26.7092 29.177 31.8863C29.0253 32.0076 29.0253 32.0076 28.8706 32.1313C27.4406 33.2807 26.1314 34.5473 24.8299 35.8393C24.6771 35.9904 24.5244 36.1414 24.367 36.2971C21.3911 39.2878 18.9935 42.7722 16.913 46.4279C16.815 46.5969 16.815 46.5969 16.7149 46.7694C10.4356 57.6315 9.34089 71.0443 12.4503 83.0465C14.4476 90.4148 18.1199 97.464 23.3954 103.017C23.5937 103.246 23.7909 103.476 23.9867 103.707C25.2568 105.162 26.6331 106.501 28.1488 107.698C28.622 108.075 29.0864 108.46 29.5506 108.848C34.6402 113.014 41.789 117.145 48.4489 117.909C48.3911 117.62 48.3332 117.331 48.2737 117.033C48.101 116.978 47.9283 116.922 47.7503 116.865C41.333 114.799 41.333 114.799 38.4625 113.354C38.34 113.294 38.2175 113.235 38.0913 113.173C35.0242 111.678 32.1684 109.727 29.5274 107.572C29.4354 107.498 29.3434 107.424 29.2486 107.347C26.5855 105.187 24.0603 102.759 22.0362 99.9846C21.8113 99.6784 21.5805 99.3774 21.3485 99.0766C19.3799 96.4979 17.7633 93.6873 16.3874 90.7532C16.3306 90.6347 16.2738 90.5162 16.2153 90.3941C13.4948 84.6958 12.0041 78.3199 11.8323 72.0069C11.8265 71.7959 11.8265 71.7959 11.8206 71.5806C11.5395 59.1165 15.919 47.1082 24.2714 37.8431C24.367 37.7367 24.4626 37.6302 24.5612 37.5206C25.6352 36.3303 26.712 35.1854 27.9506 34.1639C28.1091 34.025 28.2677 33.8861 28.431 33.743C31.7821 30.815 35.5008 28.5333 39.5137 26.6304C39.6316 26.5733 39.7494 26.5163 39.8708 26.4575C43.6422 24.6409 47.6721 23.5394 51.7777 22.776C51.9461 22.7446 52.1146 22.7131 52.2881 22.6808C57.3265 21.7964 63.0523 21.819 68.0712 22.776C68.3208 22.8225 68.3208 22.8225 68.5755 22.8699C71.1587 23.3631 73.7052 24.0281 76.1844 24.9092C76.6854 25.0878 76.6854 25.0878 77.3567 25.0536C77.6209 24.335 77.8832 23.6158 78.1451 22.8964C78.2579 22.5897 78.2579 22.5897 78.373 22.2767C78.4797 21.9829 78.4797 21.9829 78.5886 21.683C78.6547 21.5023 78.7207 21.3216 78.7888 21.1353C78.9597 20.6707 78.9597 20.6707 78.9335 20.148C79.709 20.8729 80.3166 21.6763 80.9374 22.5351C81.1559 22.8346 81.3744 23.1342 81.593 23.4337C81.7596 23.6627 81.7596 23.6627 81.9295 23.8964C82.3489 24.4715 82.7719 25.0439 83.1951 25.6162C84.4743 27.3462 85.7367 29.0882 86.9927 30.8351C84.3498 31.7482 81.674 32.5455 78.9933 33.3392C78.4116 33.5115 77.8301 33.6844 77.2486 33.8573C76.1168 34.1938 74.9848 34.5292 73.8527 34.8647C74.4309 33.2459 75.0091 31.627 75.6047 29.9591C72.5451 26.8995 64.0644 26.827 59.973 26.7939C50.2321 26.8299 40.8557 30.0764 33.2066 36.0911C33.0552 36.2086 32.9039 36.326 32.748 36.447C31.7354 37.2523 30.7807 38.1117 29.834 38.9929C29.7181 39.1003 29.6021 39.2077 29.4827 39.3184C28.6848 40.0693 27.9564 40.8605 27.2498 41.6975C27.157 41.8067 27.0642 41.916 26.9686 42.0285C19.5008 50.8926 15.6917 62.2955 16.6509 73.8876C17.6158 83.8293 21.7261 93.0075 28.6514 100.214C28.7508 100.318 28.8502 100.422 28.9526 100.53C30.4475 102.089 31.9926 103.49 33.7322 104.769C33.8321 104.844 33.9321 104.919 34.0352 104.995C35.5665 106.137 37.1529 107.154 38.8129 108.098C38.9255 108.163 39.038 108.228 39.154 108.294C41.9257 109.877 46.2279 112.319 49.5001 112.128C49.5579 111.896 49.6157 111.665 49.6753 111.427C49.5344 111.382 49.3935 111.337 49.2484 111.291C42.5532 109.147 36.5944 106.265 31.3574 101.479C30.9462 101.106 30.5277 100.742 30.1077 100.378C29.5116 99.8477 28.975 99.2972 28.4618 98.6865C28.2156 98.3937 27.9633 98.106 27.7076 97.8214C22.0634 91.4815 18.6449 83.034 17.789 74.6349C17.7696 74.466 17.7502 74.2971 17.7302 74.123C16.6357 62.9417 20.2535 51.7968 27.3223 43.1463C29.1015 40.9913 30.9964 39.0372 33.2066 37.3175C33.3161 37.2305 33.4257 37.1436 33.5386 37.0539C35.2256 35.7147 36.9292 34.5081 38.8129 33.4631C38.9361 33.3934 39.0592 33.3237 39.1861 33.2519C43.01 31.0979 47.1613 29.5713 51.4601 28.689C51.5888 28.6625 51.7174 28.636 51.85 28.6087C54.5148 28.0977 57.1516 27.9661 59.8587 27.9772C60.1076 27.9778 60.1076 27.9778 60.3614 27.9784C65.1607 27.9959 69.6568 28.7308 74.2031 30.3095C74.0967 31.0594 73.9196 31.7344 73.6659 32.4475C73.5953 32.6481 73.5248 32.8486 73.452 33.0552C73.3783 33.2621 73.3046 33.469 73.2286 33.6821C73.0819 34.0953 72.9356 34.5087 72.7899 34.9222C72.725 35.1045 72.66 35.2868 72.5931 35.4747C72.4333 35.8943 72.4333 35.8943 72.4512 36.2663C74.265 35.8412 76.0423 35.3077 77.8248 34.7696C78.1361 34.676 78.4473 34.5825 78.7585 34.489C79.5709 34.2449 80.383 34.0003 81.1952 33.7555C82.0266 33.5049 82.8583 33.255 83.6899 33.0049C85.3166 32.5158 86.9431 32.0261 88.5695 31.5359C88.4587 31.3407 88.3478 31.1454 88.2337 30.9442C88.1402 30.7795 88.1402 30.7795 88.0448 30.6114C87.8567 30.2891 87.6534 29.9898 87.4266 29.6936C87.3067 29.5356 87.3067 29.5356 87.1844 29.3745C87.057 29.2086 87.057 29.2086 86.927 29.0394C86.7389 28.7915 86.5509 28.5435 86.3631 28.2954C86.2164 28.102 86.2164 28.102 86.0667 27.9047C85.5595 27.2322 85.0607 26.5535 84.5618 25.8748C84.4598 25.7362 84.3578 25.5975 84.2527 25.4546C84.0444 25.1715 83.8362 24.8884 83.6281 24.6052C83.3125 24.1762 82.9965 23.7474 82.6805 23.3187C82.5246 23.1073 82.5246 23.1073 82.3657 22.8917C82.1601 22.6129 81.9544 22.334 81.7486 22.0553C81.2583 21.3903 80.7696 20.7243 80.2845 20.0556C80.1949 19.9324 80.1052 19.8091 80.0129 19.6821C79.8446 19.4503 79.6767 19.2182 79.5093 18.9858C79.3216 18.7276 79.1282 18.4737 78.9335 18.2208C78.8757 18.2208 78.8179 18.2208 78.7583 18.2208Z" fill="#EF9D07"/>
<path d="M92.5878 48.6396C92.7713 48.6397 92.7713 48.6397 92.9585 48.6399C94.7897 48.6464 96.4809 48.7307 98.2051 49.4061C98.3914 49.4783 98.5777 49.5506 98.7697 49.6251C101.381 50.787 103.216 53.027 104.238 55.6585C104.336 55.9669 104.427 56.2772 104.512 56.5892C104.551 56.7252 104.59 56.8611 104.631 57.0012C105.668 61.448 104.431 66.0905 102.144 69.9249C101.063 71.6587 99.707 73.1846 98.3125 74.6696C97.8911 75.1213 97.4837 75.5822 97.0772 76.0473C96.4159 76.7854 95.7049 77.456 94.9687 78.1176C94.224 78.7877 93.5173 79.4897 92.8184 80.2076C92.4235 80.5915 92.4235 80.5915 91.9711 80.9528C91.5937 81.2553 91.2913 81.5502 90.9781 81.9164C90.8758 82.0359 90.7735 82.1554 90.6681 82.2785C90.0203 83.054 89.3813 83.8366 88.7443 84.6211C90.9508 84.398 93.1504 84.1422 95.3492 83.8532C95.6469 83.8144 95.9446 83.7756 96.2423 83.7369C97.0133 83.6364 97.7843 83.5355 98.5553 83.4345C99.347 83.3308 100.139 83.2276 100.931 83.1244C102.475 82.9229 104.019 82.721 105.563 82.5187C105.721 83.7502 105.775 84.9632 105.794 86.204C105.797 86.3781 105.801 86.5522 105.804 86.7315C105.813 87.2368 105.822 87.7421 105.83 88.2475C105.846 89.1649 105.862 90.0823 105.878 90.9997C105.885 91.3869 105.892 91.7741 105.899 92.1613C105.902 92.3287 105.904 92.4961 105.907 92.6686C105.91 92.7881 105.912 92.9075 105.914 93.0306C98.8483 93.9966 91.7797 94.9368 84.7084 95.8597C83.671 95.9951 82.6337 96.1309 81.5963 96.2668C80.4561 96.4161 79.3159 96.5651 78.1756 96.7141C77.6972 96.7766 77.2187 96.8392 76.7403 96.9019C76.0828 96.9879 75.4253 97.0737 74.7677 97.1594C74.4745 97.1979 74.4745 97.1979 74.1754 97.2372C73.9982 97.2602 73.821 97.2832 73.6384 97.307C73.4842 97.3271 73.33 97.3473 73.1711 97.368C72.8012 97.4106 72.8012 97.4106 72.4508 97.4106C72.2393 90.3662 76.5653 83.5518 81.1642 78.5726C81.4981 78.2077 81.8244 77.8383 82.149 77.4653C82.7338 76.7955 83.3299 76.1381 83.9373 75.4888C84.0464 75.372 84.1555 75.2552 84.2679 75.1349C84.9621 74.3981 85.6694 73.6758 86.388 72.9628C86.4722 72.8792 86.5564 72.7956 86.6431 72.7095C87.0587 72.2973 87.4755 71.8865 87.894 71.4773C90.3674 69.0364 93.446 65.8403 93.5294 62.1627C93.5174 60.818 93.2146 59.9122 92.3469 58.8887C91.1948 57.9334 90.2143 57.6947 88.7443 57.8156C87.3328 58.0402 86.3257 58.845 85.4155 59.918C84.4612 61.4822 84.1917 63.3995 83.8387 65.174C83.307 65.3256 82.8152 65.3801 82.2632 65.4012C82.0895 65.4082 81.9157 65.4152 81.7367 65.4225C81.4564 65.4326 81.4564 65.4326 81.1704 65.4429C80.88 65.4542 80.88 65.4542 80.5837 65.4658C80.1739 65.4816 79.7641 65.497 79.3542 65.5121C78.7305 65.5351 78.1069 65.5593 77.4833 65.5836C77.0845 65.5988 76.6856 65.614 76.2867 65.6291C76.1016 65.6362 75.9165 65.6433 75.7258 65.6506C74.6917 65.6884 73.6608 65.7065 72.626 65.6996C72.5918 64.6064 72.7115 63.607 72.9217 62.535C72.9692 62.2926 72.9692 62.2926 73.0176 62.0453C73.7237 58.5841 74.9958 55.729 77.5316 53.2604C77.6506 53.1419 77.7696 53.0233 77.8922 52.9011C79.9386 50.9824 82.5418 50.081 85.2184 49.4608C85.3713 49.4253 85.5242 49.3898 85.6817 49.3533C87.9709 48.8496 90.2454 48.6326 92.5878 48.6396Z" fill="#EFA801"/>
<path d="M138.326 42.3982C138.395 45.487 138.463 48.5758 138.531 51.6646C138.563 53.0992 138.595 54.5338 138.627 55.9684C138.655 57.2206 138.683 58.4728 138.71 59.725C138.724 60.3863 138.739 61.0477 138.754 61.7091C138.818 64.5579 138.87 67.4051 138.851 70.2548C138.968 70.2308 139.084 70.2068 139.204 70.1821C139.359 70.1506 139.514 70.1191 139.674 70.0866C139.826 70.0553 139.979 70.0241 140.136 69.9919C140.85 69.8583 141.567 69.7807 142.29 69.7073C142.503 69.6847 142.503 69.6847 142.722 69.6615C143.067 69.625 143.412 69.5894 143.757 69.5541C143.933 70.0833 143.959 70.4538 143.968 71.0078C143.972 71.1972 143.975 71.3865 143.979 71.5816C143.983 71.888 143.983 71.888 143.988 72.2005C143.991 72.4098 143.995 72.619 143.999 72.8346C144.01 73.504 144.02 74.1734 144.031 74.8429C144.038 75.2963 144.046 75.7497 144.054 76.2031C144.073 77.3155 144.09 78.4279 144.107 79.5404C141.679 79.8873 141.679 79.8873 139.202 80.2412C139.202 83.0163 139.202 85.7915 139.202 88.6507C137.945 88.826 136.689 89.0008 135.432 89.1747C135.005 89.234 134.578 89.2935 134.15 89.3532C133.536 89.439 132.921 89.524 132.307 89.6089C132.116 89.6357 131.925 89.6625 131.728 89.6902C131.549 89.7147 131.371 89.7393 131.186 89.7646C130.951 89.7972 130.951 89.7972 130.711 89.8306C130.267 89.8771 129.836 89.8854 129.391 89.8771C129.178 87.0748 129.198 84.2758 129.215 81.4676C129.019 81.4996 128.823 81.5316 128.62 81.5646C126.453 81.9143 124.281 82.2181 122.105 82.5044C121.754 82.5508 121.404 82.5972 121.053 82.6436C120.326 82.7397 119.599 82.8355 118.872 82.9311C117.941 83.0535 117.01 83.1769 116.079 83.3005C115.359 83.396 114.638 83.491 113.918 83.5859C113.574 83.6312 113.231 83.6766 112.887 83.7223C112.409 83.7857 111.932 83.8484 111.454 83.9109C111.243 83.9392 111.243 83.9392 111.027 83.968C110.37 84.0532 109.731 84.1178 109.068 84.0956C109.015 83.2009 108.966 82.306 108.918 81.4111C108.901 81.1036 108.884 80.7961 108.865 80.4886C108.416 72.9542 108.416 72.9542 111.003 69.9629C111.573 69.2824 112.036 68.5356 112.517 67.7911C112.721 67.4851 112.926 67.1794 113.131 66.8741C113.89 65.7393 114.638 64.5974 115.386 63.4549C115.455 63.3484 115.525 63.2419 115.597 63.1322C115.885 62.6921 116.173 62.2519 116.461 61.8116C117.287 60.5482 118.116 59.2859 118.944 58.0238C119.099 57.7887 119.253 57.5535 119.407 57.3184C119.951 56.4896 120.495 55.6607 121.039 54.8319C121.96 53.4289 122.881 52.0259 123.802 50.6227C124.268 49.9123 124.734 49.2021 125.2 48.492C125.509 48.0219 125.818 47.5517 126.126 47.0815C126.271 46.8599 126.417 46.6384 126.562 46.417C126.763 46.1116 126.963 45.806 127.164 45.5004C127.277 45.3279 127.39 45.1553 127.507 44.9775C127.818 44.5141 127.818 44.5141 128.04 44.046C128.339 43.6246 128.339 43.6246 128.75 43.4727C128.912 43.4528 129.074 43.433 129.24 43.4126C129.424 43.3881 129.608 43.3636 129.797 43.3384C129.995 43.3161 130.193 43.2937 130.397 43.2708C130.601 43.2448 130.805 43.2188 131.015 43.192C131.666 43.1098 132.319 43.0332 132.971 42.9566C133.41 42.9019 133.849 42.8468 134.288 42.7914C135.092 42.6911 135.897 42.5918 136.701 42.4969C136.863 42.4777 137.025 42.4586 137.192 42.4389C137.625 42.3982 137.625 42.3982 138.326 42.3982ZM128.515 57.8157C128.371 58.0087 128.235 58.2081 128.103 58.4094C127.974 58.6065 127.974 58.6065 127.841 58.8075C127.746 58.9534 127.651 59.0992 127.552 59.2495C127.403 59.4772 127.403 59.4772 127.25 59.7095C126.919 60.213 126.589 60.7171 126.259 61.2211C126.031 61.5682 125.803 61.9153 125.575 62.2622C125.101 62.9839 124.627 63.7057 124.154 64.4277C123.127 65.9932 122.096 67.5566 121.066 69.1201C120.564 69.8824 120.062 70.6449 119.56 71.4073C119.392 71.6617 119.225 71.9162 119.057 72.1706C118.94 72.3478 118.824 72.525 118.704 72.7076C119.278 72.8992 119.558 72.8704 120.152 72.7929C120.34 72.7689 120.528 72.7449 120.722 72.7202C121.027 72.6794 121.027 72.6794 121.338 72.6378C121.546 72.6108 121.754 72.5837 121.969 72.5558C122.41 72.4984 122.851 72.4403 123.292 72.3817C123.968 72.2918 124.645 72.2039 125.322 72.1163C125.749 72.0603 126.177 72.0042 126.605 71.948C126.808 71.9215 127.012 71.895 127.221 71.8678C127.409 71.8427 127.597 71.8176 127.79 71.7917C127.956 71.7698 128.121 71.7478 128.292 71.7252C128.694 71.6754 128.694 71.6754 129.04 71.4812C129.021 70.1651 129.001 68.849 128.981 67.5329C128.971 66.9214 128.962 66.3099 128.953 65.6984C128.915 63.0676 128.874 60.4411 128.69 57.8157C128.632 57.8157 128.574 57.8157 128.515 57.8157Z" fill="#EF9909"/>
<path d="M211.017 9.4224C211.21 9.42087 211.21 9.42087 211.407 9.41931C212.956 9.43101 214.156 9.93917 215.269 11.0115C216.482 12.438 216.854 13.914 216.741 15.7447C216.57 17.3052 215.793 18.5325 214.611 19.5347C213.129 20.4538 211.701 20.6677 209.982 20.835C209.715 20.863 209.447 20.8913 209.18 20.9198C208.596 20.9818 208.011 21.0423 207.426 21.1017C206.433 21.2032 205.439 21.3104 204.446 21.4184C202.637 21.6149 200.828 21.8083 199.018 22.0005C198.076 22.1006 197.134 22.2013 196.191 22.3021C195.458 22.3805 194.724 22.4586 193.991 22.5366C193.643 22.5736 193.295 22.6108 192.946 22.6481C192.466 22.6995 191.985 22.7505 191.504 22.8014C191.362 22.8167 191.22 22.832 191.074 22.8477C190.481 22.91 189.907 22.9511 189.309 22.9511C189.298 23.1625 189.298 23.1625 189.287 23.3781C189.013 24.4956 188.387 25.4328 187.437 26.0937C185.676 27.0242 183.342 26.9756 181.391 27.1802C181.049 27.2165 180.707 27.253 180.365 27.2895C179.428 27.3892 178.492 27.4881 177.556 27.5867C176.544 27.6935 175.533 27.801 174.522 27.9085C172.542 28.1187 170.562 28.3281 168.582 28.5372C166.972 28.7072 165.362 28.8774 163.752 29.0478C159.926 29.4526 156.101 29.8571 152.276 30.2607C152.154 30.2736 152.032 30.2865 151.906 30.2998C151.286 30.3652 150.667 30.4305 150.047 30.4959C149.799 30.5221 149.55 30.5483 149.301 30.5746C149.178 30.5876 149.055 30.6006 148.928 30.6139C145.059 31.0221 141.191 31.4316 137.322 31.842C132.971 32.3036 128.621 32.7641 124.27 33.223C121.967 33.4658 119.665 33.7091 117.364 33.9538C115.403 34.1622 113.443 34.3694 111.483 34.5751C110.484 34.68 109.484 34.7855 108.485 34.8923C107.569 34.9904 106.652 35.0868 105.735 35.1821C105.406 35.2167 105.076 35.2518 104.746 35.2875C103.166 35.4584 101.59 35.5989 100 35.6299C99.8753 35.6345 99.7501 35.6391 99.6211 35.6439C98.4985 35.6488 97.6043 35.2589 96.7615 34.5204C95.7505 33.299 95.3103 32.2148 95.4332 30.6072C95.655 29.31 96.356 28.3556 97.3624 27.5282C98.1424 27.0064 99.0431 26.9163 99.9576 26.8055C99.9431 26.5851 99.9286 26.3646 99.9138 26.1375C99.9183 24.694 100.483 23.3289 101.389 22.2127C102.695 20.94 104.304 20.5033 106.076 20.3247C106.211 20.3102 106.346 20.2957 106.485 20.2808C106.938 20.2325 107.39 20.1857 107.843 20.1389C108.171 20.1042 108.5 20.0694 108.828 20.0345C109.73 19.9388 110.633 19.8445 111.535 19.7504C112.51 19.6486 113.484 19.5455 114.459 19.4426C116.152 19.2638 117.845 19.0859 119.538 18.9086C122.01 18.6497 124.482 18.3895 126.953 18.1291C130.995 17.7033 135.036 17.2785 139.077 16.8543C142.949 16.4479 146.821 16.041 150.694 15.6336C150.811 15.6212 150.929 15.6088 151.051 15.596C152.827 15.4091 154.603 15.2222 156.379 15.0353C158.248 14.8385 160.118 14.6417 161.988 14.445C162.217 14.4208 162.446 14.3967 162.683 14.3719C165.882 14.0353 169.081 13.6992 172.28 13.3634C174.254 13.1563 176.227 12.9491 178.201 12.7419C178.517 12.7087 178.517 12.7087 178.84 12.6748C183.986 12.1344 189.132 11.5909 194.277 11.0379C195.084 10.9512 195.891 10.8647 196.698 10.7783C197.077 10.7376 197.457 10.6969 197.837 10.6562C198.081 10.63 198.326 10.6039 198.57 10.5777C200.018 10.4226 201.465 10.266 202.913 10.1077C203.688 10.0233 204.462 9.94022 205.237 9.8575C205.578 9.82082 205.919 9.78358 206.259 9.74566C207.846 9.56909 209.419 9.43089 211.017 9.4224ZM207.098 10.2644C206.81 10.2948 206.521 10.3251 206.233 10.3553C205.445 10.4381 204.656 10.5223 203.868 10.6067C203.014 10.6978 202.161 10.7877 201.307 10.8777C199.823 11.0344 198.338 11.192 196.854 11.35C194.675 11.5821 192.497 11.8128 190.318 12.0433C186.739 12.4218 183.161 12.8014 179.582 13.1815C176.181 13.5428 172.781 13.9037 169.38 14.264C169.071 14.2967 169.071 14.2967 168.756 14.3301C167.307 14.4836 165.858 14.6371 164.409 14.7906C162.756 14.9657 161.104 15.1407 159.452 15.3157C159.248 15.3373 159.044 15.3589 158.834 15.3811C155.967 15.6849 153.1 15.989 150.234 16.2933C148.415 16.4864 146.596 16.6794 144.777 16.8723C144.579 16.8933 144.381 16.9143 144.177 16.9359C138.577 17.53 132.976 18.12 127.375 18.7057C126.294 18.8187 125.213 18.9319 124.132 19.0451C123.435 19.118 122.738 19.191 122.041 19.2639C121.872 19.2817 121.702 19.2994 121.528 19.3177C119.551 19.5247 117.574 19.731 115.596 19.9364C114.39 20.0618 113.183 20.1878 111.977 20.3142C111.159 20.3999 110.341 20.4849 109.523 20.5693C109.029 20.6204 108.535 20.6722 108.041 20.7243C107.712 20.7589 107.382 20.7926 107.052 20.8262C104.72 21.0742 102.978 21.4143 101.443 23.2967C100.819 24.1528 100.634 24.8396 100.647 25.8823C100.648 26.0553 100.65 26.2283 100.652 26.4066C100.654 26.5382 100.656 26.6699 100.658 26.8055C104.292 26.498 107.917 26.104 111.543 25.7208C112.496 25.6202 113.449 25.5199 114.402 25.4195C116.263 25.2235 118.124 25.0271 119.985 24.8307C122.154 24.6017 124.323 24.3731 126.492 24.1444C130.362 23.7366 134.232 23.3284 138.101 22.9202C141.854 22.5242 145.607 22.1284 149.36 21.7328C149.533 21.7145 149.533 21.7145 149.711 21.6958C150.758 21.5854 151.806 21.4749 152.853 21.3645C156.866 20.9414 160.88 20.5182 164.893 20.095C165.542 20.0266 166.191 19.9581 166.84 19.8897C169.303 19.63 171.766 19.3701 174.23 19.1103C174.976 19.0315 175.723 18.9528 176.469 18.874C177.329 18.7834 178.188 18.6927 179.048 18.602C179.358 18.5693 179.669 18.5365 179.98 18.5037C180.402 18.4592 180.825 18.4145 181.248 18.3699C181.376 18.3564 181.503 18.343 181.634 18.3291C182.286 18.2602 182.936 18.1894 183.587 18.1158C185.059 17.9545 186.245 17.9688 187.557 18.7463C188.279 19.3842 188.869 20.0849 189.134 21.0239C189.251 21.4327 189.367 21.8415 189.484 22.2503C191.903 22.1379 194.303 21.9027 196.71 21.6487C197.113 21.6066 197.517 21.5645 197.921 21.5224C198.761 21.4346 199.601 21.3464 200.441 21.2577C201.514 21.1447 202.586 21.0329 203.659 20.9214C204.49 20.8349 205.321 20.7477 206.153 20.6603C206.548 20.6188 206.944 20.5776 207.339 20.5365C207.892 20.479 208.445 20.4205 208.998 20.3618C209.159 20.3453 209.319 20.3288 209.484 20.3119C212.437 20.0117 212.437 20.0117 214.862 18.4151C215.82 17.2161 216.223 16.0434 216.176 14.508C216.014 13.2125 215.465 12.1191 214.538 11.2128C212.245 9.50851 209.79 9.97319 207.098 10.2644Z" fill="#EF8315"/>
<path d="M194.74 35.7406C194.79 36.7818 194.834 37.8229 194.868 38.8648C194.895 39.6768 194.94 40.4841 195.001 41.2943C195.195 44.5217 195.195 44.5217 194.017 45.8583C193.724 46.1705 193.426 46.4773 193.126 46.7831C192.536 47.4339 192.067 48.1692 191.586 48.9024C191.432 49.1359 191.432 49.1359 191.275 49.3741C185.302 58.5436 182.248 69.1282 181.431 79.99C181.422 80.1138 181.412 80.2375 181.402 80.365C181.376 80.7022 181.351 81.0394 181.326 81.3766C181.245 82.028 181.095 82.5947 180.899 83.2196C179.512 83.4026 178.124 83.5853 176.737 83.7678C176.093 83.8525 175.449 83.9373 174.805 84.0223C174.183 84.1043 173.562 84.1861 172.94 84.2677C172.703 84.2989 172.466 84.3302 172.228 84.3616C171.897 84.4054 171.565 84.449 171.233 84.4925C171.044 84.5174 170.855 84.5423 170.66 84.5679C170.212 84.6211 170.212 84.6211 169.862 84.6211C170.34 77.9437 171.468 71.1454 173.716 64.8237C173.769 64.6671 173.823 64.5106 173.878 64.3493C175.772 58.7919 178.597 53.4537 181.775 48.5301C179.881 48.6305 178.015 48.8592 176.137 49.1132C175.615 49.1838 175.093 49.2535 174.571 49.323C173.464 49.4703 172.358 49.6189 171.252 49.7675C169.964 49.9404 168.676 50.1128 167.387 50.2844C166.874 50.353 166.36 50.4223 165.846 50.4917C165.532 50.5337 165.218 50.5756 164.903 50.6175C164.69 50.6466 164.69 50.6466 164.473 50.6762C163.812 50.7636 163.17 50.8309 162.503 50.8077C162.256 48.5765 162.309 46.3366 162.317 44.0954C162.318 43.6922 162.319 43.289 162.32 42.8858C162.321 41.9056 162.324 40.9255 162.328 39.9454C166.502 39.3969 170.677 38.8486 174.851 38.3007C176.789 38.0463 178.727 37.7918 180.665 37.5371C182.354 37.3152 184.042 37.0934 185.731 36.8718C186.626 36.7544 187.52 36.637 188.415 36.5193C189.256 36.4087 190.097 36.2983 190.938 36.188C191.248 36.1474 191.557 36.1067 191.867 36.0659C192.288 36.0105 192.709 35.9553 193.13 35.9002C193.316 35.8757 193.316 35.8757 193.505 35.8507C194.35 35.7406 194.35 35.7406 194.74 35.7406Z" fill="#EF7B1A"/>
<path d="M110.807 102.398C112.512 103.944 112.964 106.105 113.091 108.311C113.118 110.956 112.496 113.502 110.645 115.456C110.253 115.83 109.846 116.174 109.419 116.507C109.164 116.713 109.164 116.713 108.904 116.924C108.785 117.017 108.665 117.111 108.543 117.208C108.691 117.266 108.839 117.324 108.992 117.383C111.245 118.695 112.242 121.58 113.207 123.877C113.352 124.217 113.497 124.557 113.641 124.896C113.735 125.117 113.829 125.337 113.922 125.557C114.277 126.395 114.656 127.219 115.048 128.04C115.2 128.421 115.2 128.421 115.2 128.947C114.303 129.073 113.405 129.197 112.508 129.321C112.203 129.363 111.898 129.405 111.593 129.448C111.153 129.51 110.713 129.571 110.273 129.631C110.071 129.66 110.071 129.66 109.865 129.689C109.007 129.805 108.182 129.84 107.316 129.823C107.009 129.188 106.703 128.553 106.396 127.917C106.303 127.723 106.209 127.528 106.112 127.327C105.325 125.687 104.561 124.037 103.814 122.378C103.045 120.518 103.045 120.518 101.535 119.311C101.13 119.311 100.725 119.311 100.308 119.311C100.366 123.126 100.424 126.942 100.483 130.874C99.4247 131.018 98.366 131.163 97.2751 131.312C96.9415 131.357 96.6079 131.403 96.2641 131.45C95.9996 131.486 95.735 131.522 95.4704 131.558C95.3332 131.577 95.1959 131.596 95.0545 131.615C94.5237 131.687 94.0117 131.75 93.4755 131.75C93.3445 129.244 93.2574 126.741 93.2065 124.233C93.199 123.872 93.1914 123.511 93.1837 123.15C93.1679 122.397 93.1525 121.644 93.1374 120.89C93.1222 120.137 93.1064 119.383 93.09 118.629C92.9768 113.425 92.9266 108.223 92.9499 103.017C95.6247 102.591 98.302 102.2 100.987 101.845C101.129 101.826 101.272 101.808 101.418 101.788C108.734 100.815 108.734 100.815 110.807 102.398ZM99.9579 108.098C99.9372 109.977 99.9804 111.831 100.133 113.704C103.042 113.512 103.042 113.512 105.432 112.04C106.08 111.116 106.16 110.316 106.021 109.221C105.848 108.535 105.561 108.221 105.039 107.747C103.856 107.176 101.096 107.529 99.9579 108.098Z" fill="#EFA702"/>
<path d="M194.038 89.702C194.038 91.7834 194.038 93.8648 194.038 96.0092C192.066 96.4035 192.066 96.4035 191.37 96.4959C191.135 96.5274 191.135 96.5274 190.895 96.5596C190.732 96.5807 190.569 96.6019 190.401 96.6238C190.142 96.658 190.142 96.658 189.877 96.693C189.514 96.7407 189.151 96.788 188.788 96.8351C188.235 96.9071 187.682 96.9806 187.129 97.0542C186.775 97.1006 186.42 97.1469 186.065 97.1932C185.82 97.226 185.82 97.226 185.57 97.2595C185.336 97.2894 185.336 97.2894 185.098 97.3199C184.963 97.3375 184.829 97.3551 184.69 97.3732C184.07 97.4235 183.447 97.4108 182.825 97.4108C182.825 98.8562 182.825 100.302 182.825 101.791C183.467 101.702 184.108 101.614 184.769 101.522C185.393 101.437 186.017 101.352 186.641 101.267C187.073 101.208 187.505 101.148 187.938 101.088C188.56 101.002 189.183 100.917 189.806 100.833C189.998 100.806 190.19 100.779 190.388 100.751C191.382 100.618 192.335 100.535 193.337 100.564C193.584 102.535 193.513 104.535 193.513 106.521C190.101 106.984 186.69 107.446 183.176 107.923C183.176 109.657 183.176 111.392 183.176 113.179C183.937 113.078 184.698 112.976 185.483 112.872C186.091 112.792 186.699 112.711 187.307 112.631C187.948 112.546 188.59 112.461 189.231 112.376C189.849 112.294 190.467 112.212 191.085 112.131C191.32 112.099 191.556 112.068 191.791 112.037C192.122 111.993 192.452 111.949 192.782 111.906C193.064 111.868 193.064 111.868 193.352 111.83C193.819 111.782 194.27 111.767 194.739 111.777C194.985 113.99 194.931 116.212 194.914 118.435C190.6 119.048 186.282 119.637 181.962 120.205C181.599 120.252 181.235 120.3 180.872 120.348C180.187 120.439 179.502 120.528 178.818 120.618C178.507 120.659 178.507 120.659 178.19 120.701C178 120.725 177.81 120.75 177.615 120.775C177.449 120.797 177.283 120.819 177.112 120.841C176.693 120.887 176.693 120.887 176.168 120.887C176.099 117.633 176.03 114.378 175.962 111.123C175.931 109.612 175.899 108.1 175.867 106.588C175.839 105.269 175.811 103.95 175.784 102.631C175.769 101.934 175.755 101.237 175.74 100.54C175.68 97.7451 175.621 94.9508 175.642 92.1548C177.49 91.781 179.359 91.555 181.227 91.3103C181.58 91.2637 181.934 91.2171 182.287 91.1704C183.024 91.0732 183.761 90.9764 184.498 90.8797C185.443 90.7558 186.388 90.6311 187.333 90.5062C188.061 90.4101 188.789 90.3143 189.517 90.2186C189.866 90.1727 190.215 90.1267 190.563 90.0807C191.049 90.0166 191.534 89.953 192.02 89.8895C192.164 89.8704 192.308 89.8512 192.457 89.8316C192.988 89.7624 193.502 89.702 194.038 89.702Z" fill="#EF8614"/>
<path d="M88.9199 103.543C89.0704 104.321 89.1156 105.054 89.1122 105.846C89.112 105.961 89.1117 106.077 89.1115 106.195C89.1105 106.559 89.1083 106.923 89.1061 107.287C89.1052 107.536 89.1044 107.784 89.1037 108.033C89.1017 108.638 89.0987 109.244 89.0951 109.85C88.0703 109.993 87.0456 110.136 86.0208 110.28C85.6733 110.328 85.3259 110.377 84.9785 110.425C83.9886 110.564 82.9985 110.702 82.0084 110.839C81.5963 110.896 81.1844 110.955 80.7726 111.013C80.5435 111.045 80.3145 111.077 80.0785 111.11C79.8843 111.138 79.6901 111.166 79.49 111.194C78.8921 111.256 78.3078 111.261 77.7072 111.251C77.7261 111.483 77.7261 111.483 77.7455 111.72C77.8466 113.027 77.9064 114.32 77.8824 115.631C78.127 115.59 78.127 115.59 78.3765 115.547C80.4833 115.198 82.5981 114.914 84.7151 114.635C84.9418 114.605 84.9418 114.605 85.173 114.574C85.608 114.517 86.043 114.46 86.4781 114.403C86.6104 114.385 86.7428 114.368 86.8792 114.35C87.3886 114.284 87.88 114.23 88.3943 114.23C88.4521 116.253 88.5099 118.277 88.5695 120.362C87.2447 120.537 85.9198 120.712 84.5948 120.886C84.1443 120.945 83.6938 121.004 83.2433 121.064C82.595 121.15 81.9466 121.235 81.2981 121.32C81.0975 121.347 80.8968 121.373 80.6901 121.401C79.7461 121.524 78.8344 121.622 77.8824 121.588C77.9109 121.681 77.9395 121.774 77.9689 121.87C78.0781 122.386 78.0772 122.864 78.0747 123.392C78.0741 123.603 78.0735 123.814 78.073 124.032C78.0708 124.362 78.0708 124.362 78.0685 124.698C78.0677 124.92 78.0669 125.143 78.0661 125.372C78.0641 125.921 78.0612 126.47 78.0576 127.019C78.1865 127.002 78.3155 126.984 78.4484 126.966C79.6674 126.8 80.8865 126.635 82.1058 126.471C82.7325 126.387 83.3592 126.302 83.9858 126.217C84.5912 126.134 85.1967 126.052 85.8022 125.971C86.1442 125.925 86.486 125.878 86.8279 125.831C87.0382 125.803 87.2486 125.775 87.4653 125.746C87.6493 125.721 87.8334 125.697 88.023 125.671C88.6114 125.614 89.2047 125.618 89.7959 125.618C89.8537 127.815 89.9115 130.012 89.9711 132.275C87.734 132.573 85.4967 132.87 83.2593 133.166C82.2203 133.304 81.1814 133.441 80.1426 133.58C79.1396 133.713 78.1366 133.846 77.1334 133.978C76.7511 134.029 76.3689 134.08 75.9868 134.131C75.4505 134.203 74.9141 134.273 74.3777 134.344C74.2206 134.365 74.0634 134.386 73.9015 134.408C73.0006 134.525 72.1333 134.573 71.2248 134.553C71.0453 130.601 70.9666 126.648 70.8867 122.694C70.8714 121.939 70.8556 121.184 70.8393 120.429C70.7562 116.579 70.684 112.729 70.678 108.877C70.6775 108.729 70.677 108.581 70.6766 108.429C70.6755 108.019 70.6756 107.61 70.6763 107.2C70.6764 106.971 70.6766 106.741 70.6767 106.504C70.6992 105.995 70.6992 105.995 70.8744 105.82C71.4079 105.735 71.9397 105.66 72.4754 105.591C72.6434 105.569 72.8115 105.547 72.9847 105.524C73.5434 105.45 74.1022 105.377 74.661 105.305C75.048 105.254 75.4349 105.203 75.8219 105.152C76.6344 105.046 77.447 104.94 78.2596 104.834C79.3019 104.698 80.3441 104.561 81.3862 104.424C82.1859 104.319 82.9857 104.215 83.7854 104.11C84.1697 104.06 84.554 104.01 84.9382 103.959C85.4755 103.889 86.0128 103.819 86.5501 103.749C86.7095 103.728 86.8689 103.707 87.0331 103.685C87.1798 103.666 87.3265 103.647 87.4775 103.628C87.6681 103.603 87.6681 103.603 87.8625 103.578C88.2135 103.543 88.5672 103.543 88.9199 103.543Z" fill="#EFA105"/>
<path d="M163.84 93.3155C164.01 93.3131 164.179 93.3106 164.353 93.3081C166.54 93.3225 168.167 94.0331 169.786 95.4836C171.125 96.8913 172.491 99.3022 172.491 101.265C171.674 101.615 170.857 101.965 170.04 102.313C169.762 102.432 169.484 102.551 169.206 102.67C168.807 102.841 168.407 103.011 168.008 103.181C167.883 103.235 167.759 103.289 167.63 103.344C166.749 103.718 166.749 103.718 166.359 103.718C166.285 103.509 166.285 103.509 166.21 103.295C165.706 101.961 165.207 101.04 163.906 100.389C162.669 100.262 161.583 100.306 160.577 101.09C158.502 103.223 158.42 106.001 158.434 108.81C158.467 111.063 158.629 113.321 159.854 115.281C160.523 115.91 161.132 116.187 162.044 116.223C163.078 116.183 163.885 115.905 164.716 115.292C165.915 113.746 166.389 112.1 166.709 110.2C167.516 110.305 168.29 110.45 169.078 110.655C169.286 110.709 169.494 110.763 169.708 110.818C169.921 110.875 170.135 110.931 170.355 110.989C170.573 111.045 170.79 111.101 171.014 111.159C172.618 111.578 172.618 111.578 173.016 111.777C172.425 115.213 171.336 118.863 168.483 121.117C165.616 123.096 162.146 123.537 158.743 123.084C156.604 122.562 155.005 121.248 153.81 119.442C151.002 114.819 150.634 108.757 151.791 103.536C152.714 99.8636 154.382 96.8649 157.599 94.7828C158.283 94.4259 158.971 94.1528 159.701 93.9068C159.928 93.8231 159.928 93.8231 160.159 93.7378C161.373 93.3566 162.578 93.3272 163.84 93.3155Z" fill="#EF940C"/>
<path d="M137.975 97.2355C137.432 99.3892 136.888 101.543 136.343 103.696C136.302 103.858 136.262 104.02 136.219 104.187C134.829 109.689 133.425 115.188 132.01 120.684C131.977 120.814 131.943 120.945 131.908 121.08C131.752 121.686 131.596 122.292 131.44 122.898C131.102 124.212 130.768 125.527 130.441 126.844C129.059 127.146 127.669 127.344 126.266 127.52C125.893 127.567 125.521 127.615 125.149 127.663C123.335 127.895 123.335 127.895 122.733 127.895C121.209 123.248 119.695 118.598 118.209 113.939C117.597 112.019 116.982 110.1 116.361 108.183C116.25 107.839 116.138 107.495 116.027 107.151C115.991 107.038 115.955 106.926 115.917 106.81C115.844 106.584 115.771 106.358 115.698 106.132C115.519 105.578 115.34 105.025 115.16 104.471C114.961 103.857 114.762 103.243 114.564 102.629C114.504 102.445 114.444 102.261 114.382 102.071C114.328 101.903 114.274 101.734 114.218 101.561C114.17 101.414 114.123 101.267 114.074 101.116C113.973 100.74 113.973 100.74 113.973 100.214C114.855 100.088 115.737 99.9637 116.619 99.8397C116.919 99.7974 117.219 99.7549 117.519 99.7122C117.951 99.6508 118.383 99.5901 118.815 99.5296C119.015 99.5008 119.015 99.5008 119.219 99.4715C119.869 99.3811 120.499 99.3152 121.156 99.3379C121.558 100.363 121.875 101.387 122.156 102.45C122.223 102.698 122.223 102.698 122.29 102.951C122.435 103.492 122.579 104.034 122.723 104.575C122.824 104.953 122.925 105.331 123.026 105.709C123.291 106.7 123.555 107.691 123.819 108.683C124.242 110.273 124.667 111.863 125.092 113.453C125.24 114.008 125.388 114.564 125.536 115.119C125.626 115.458 125.716 115.797 125.807 116.136C125.848 116.291 125.889 116.446 125.932 116.606C125.969 116.747 126.007 116.889 126.046 117.035C126.079 117.158 126.112 117.281 126.145 117.408C126.225 117.694 126.318 117.977 126.412 118.259C127.071 115.512 127.669 112.754 128.243 109.988C128.294 109.742 128.294 109.742 128.346 109.492C128.665 107.954 128.984 106.416 129.301 104.877C129.476 104.027 129.652 103.176 129.829 102.326C129.896 102.005 129.962 101.684 130.028 101.362C130.119 100.917 130.211 100.472 130.304 100.028C130.344 99.8307 130.344 99.8307 130.385 99.6299C130.647 98.3833 130.647 98.3833 130.967 97.9363C131.474 97.8086 131.93 97.7283 132.445 97.6701C132.665 97.6418 132.665 97.6418 132.889 97.6129C133.199 97.5737 133.509 97.5359 133.819 97.4996C134.294 97.4438 134.769 97.3834 135.244 97.3221C135.545 97.2846 135.846 97.2472 136.146 97.2102C136.289 97.1924 136.432 97.1745 136.579 97.1561C137.583 97.0398 137.583 97.0398 137.975 97.2355Z" fill="#EFA901"/>
<path d="M160.05 39.5949C159.923 41.294 159.594 42.9479 159.277 44.6194C159.215 44.9504 159.152 45.2814 159.09 45.6124C158.921 46.5109 158.752 47.4092 158.582 48.3074C158.402 49.2599 158.222 50.2125 158.043 51.1651C157.74 52.7746 157.436 54.3839 157.132 55.9931C156.712 58.2209 156.292 60.4488 155.872 62.6767C155.184 66.3282 154.495 69.9794 153.804 73.6303C153.737 73.986 153.67 74.3416 153.603 74.6973C153.57 74.8699 153.537 75.0425 153.504 75.2204C153.262 76.4978 153.021 77.7754 152.78 79.053C152.576 80.1354 152.372 81.2177 152.167 82.2999C152.054 82.897 151.941 83.4942 151.829 84.0915C151.71 84.723 151.59 85.3543 151.47 85.9856C151.436 86.168 151.402 86.3505 151.367 86.5384C151.336 86.7012 151.305 86.8639 151.273 87.0316C151.246 87.1722 151.22 87.3127 151.192 87.4576C151.115 87.7747 151.115 87.7747 150.939 87.9499C150.525 88.0152 150.113 88.0709 149.696 88.1203C149.572 88.1356 149.447 88.1509 149.32 88.1667C148.922 88.2156 148.523 88.2634 148.125 88.3112C147.856 88.3441 147.587 88.3771 147.317 88.4101C146.656 88.4911 145.995 88.5711 145.333 88.6507C145.435 86.9403 145.754 85.2753 146.071 83.5954C146.129 83.2819 146.188 82.9683 146.246 82.6548C146.405 81.8044 146.565 80.9542 146.725 80.104C146.894 79.2001 147.063 78.296 147.232 77.3919C147.554 75.6672 147.878 73.9427 148.201 72.2182C148.595 70.1168 148.989 68.0151 149.382 65.9135C149.522 65.1637 149.662 64.414 149.803 63.6643C149.854 63.3877 149.854 63.3877 149.907 63.1054C150.149 61.8128 150.391 60.5203 150.633 59.2277C151.238 56.0008 151.842 52.7736 152.439 49.5452C152.521 49.0974 152.604 48.6497 152.687 48.2021C152.914 46.9753 153.14 45.7486 153.366 44.5216C153.433 44.1555 153.5 43.7894 153.568 43.4234C153.649 42.9849 153.73 42.5463 153.81 42.1076C153.845 41.9181 153.88 41.7285 153.916 41.5332C153.946 41.369 153.976 41.2049 154.008 41.0357C154.093 40.6461 154.093 40.6461 154.268 40.2957C154.571 40.2105 154.571 40.2105 154.964 40.1527C155.179 40.12 155.179 40.12 155.398 40.0867C155.625 40.0547 155.625 40.0547 155.856 40.022C156.002 40 156.148 39.978 156.299 39.9553C158.911 39.5665 158.911 39.5665 160.05 39.5949Z" fill="#EF8912"/>
<path d="M69.8228 47.3038C71.2966 47.7304 72.7493 48.2151 74.2027 48.7054C74.3928 49.4026 74.356 49.8156 74.1179 50.4941C74.0252 50.7631 74.0252 50.7631 73.9307 51.0375C73.8269 51.3283 73.8269 51.3283 73.7209 51.625C73.6145 51.9309 73.6145 51.9309 73.506 52.2431C73.3131 52.7966 73.1183 53.3494 72.9227 53.902C72.7194 54.4776 72.5185 55.0541 72.3175 55.6305C71.9925 56.561 71.6663 57.491 71.339 58.4207C70.9251 59.5963 70.5142 60.7729 70.1047 61.9501C70.0467 62.1168 69.9886 62.2835 69.9288 62.4553C69.708 63.0897 69.4872 63.7241 69.2668 64.3587C68.7752 65.7735 68.2825 67.1872 67.7607 68.5912C67.6567 68.8754 67.6567 68.8754 67.5505 69.1653C67.4293 69.4946 67.3054 69.823 67.1778 70.15C66.8377 71.0802 66.8419 71.5753 67.1948 72.5325C67.376 73.9768 67.2183 75.2112 66.3188 76.3869C65.3522 77.2726 64.2663 77.762 62.9578 77.7994C62.0216 77.7475 61.3943 77.4579 60.6303 76.9227C59.5347 76.4646 58.1672 76.767 57.0213 76.9303C56.8713 76.9508 56.7212 76.9713 56.5666 76.9924C56.0762 77.0597 55.586 77.1284 55.0958 77.1972C54.7532 77.2444 54.4106 77.2915 54.0681 77.3386C53.1703 77.4621 52.2727 77.5868 51.3752 77.7119C50.1063 77.8884 48.8371 78.0633 47.568 78.2384C46.8928 78.3315 46.2176 78.4251 45.5424 78.5191C45.2358 78.5616 44.9292 78.6042 44.6225 78.6467C44.4821 78.6663 44.3417 78.686 44.197 78.7062C43.2321 78.8397 43.2321 78.8397 42.8421 78.8397C42.7531 78.2522 42.666 77.6645 42.5793 77.0767C42.5542 76.9115 42.5292 76.7463 42.5033 76.5761C42.3729 75.6848 42.2865 74.8348 42.3165 73.9341C43.3246 73.6971 44.3266 73.5048 45.3528 73.367C45.4892 73.3482 45.6255 73.3293 45.7661 73.3099C46.2114 73.2485 46.6568 73.1882 47.1023 73.1279C47.4149 73.0852 47.7274 73.0425 48.04 72.9998C48.6927 72.9107 49.3455 72.8221 49.9984 72.7339C50.8324 72.6211 51.6663 72.5068 52.5001 72.3922C53.1447 72.3037 53.7894 72.2162 54.4341 72.1289C54.7415 72.0871 55.0489 72.0451 55.3563 72.0027C55.7866 71.9435 56.2171 71.8855 56.6476 71.8279C56.7728 71.8104 56.898 71.7929 57.027 71.7749C57.8556 71.6656 58.6525 71.6419 59.486 71.6565C59.5149 71.5336 59.5438 71.4108 59.5736 71.2842C59.9555 70.5523 60.5423 70.1568 61.238 69.7293C61.4478 69.684 61.4478 69.684 61.6618 69.6377C62.3835 69.2247 62.4798 68.5747 62.7204 67.8083C62.7742 67.6465 62.828 67.4847 62.8835 67.318C63.0607 66.7832 63.2333 66.247 63.4061 65.7107C63.5294 65.3367 63.6531 64.9629 63.7772 64.5892C63.9685 64.0128 64.1596 63.4363 64.3495 62.8594C64.9691 60.9768 65.6187 59.1054 66.275 57.2354C66.3833 56.926 66.4915 56.6166 66.5997 56.3072C66.9142 55.4082 67.2296 54.5096 67.5452 53.611C67.6504 53.3111 67.7556 53.0113 67.8608 52.7114C68.1103 52.0008 68.36 51.2903 68.6102 50.5799C68.7023 50.3182 68.7944 50.0564 68.8864 49.7947C69.0117 49.4386 69.1373 49.0826 69.2629 48.7266C69.3334 48.5269 69.4038 48.3271 69.4764 48.1213C69.6476 47.6542 69.6476 47.6542 69.8228 47.3038Z" fill="#EFA403"/>
<path d="M146.911 95.834C147.312 96.4361 147.31 96.6737 147.323 97.384C147.328 97.5979 147.333 97.8118 147.338 98.0321C147.342 98.2696 147.345 98.507 147.349 98.7445C147.354 98.9943 147.359 99.2442 147.365 99.494C147.379 100.174 147.391 100.853 147.403 101.533C147.415 102.245 147.43 102.958 147.444 103.671C147.468 104.87 147.49 106.069 147.512 107.268C147.543 108.952 147.575 110.635 147.608 112.319C147.634 113.632 147.659 114.946 147.684 116.259C147.687 116.399 147.689 116.538 147.692 116.682C147.707 117.49 147.723 118.298 147.737 119.106C147.744 119.464 147.75 119.822 147.757 120.18C147.783 121.643 147.792 123.104 147.787 124.567C146.525 124.833 145.266 125.037 143.987 125.202C143.813 125.225 143.639 125.249 143.46 125.273C143.29 125.295 143.12 125.317 142.945 125.34C142.794 125.36 142.642 125.38 142.486 125.4C141.916 125.451 141.352 125.449 140.779 125.443C140.585 121.627 140.518 117.808 140.441 113.989C140.425 113.236 140.41 112.482 140.393 111.728C140.285 106.721 140.237 101.719 140.253 96.71C143.549 96.2764 143.549 96.2764 146.911 95.834Z" fill="#EF9F06"/>
<path d="M124.661 135.955C124.661 136.186 124.661 136.417 124.661 136.655C118.438 137.557 112.21 138.414 105.978 139.255C104.64 139.435 103.301 139.616 101.962 139.798C99.5267 140.127 97.0911 140.456 94.6554 140.785C91.2278 141.248 87.8002 141.711 84.3726 142.175C83.1734 142.337 81.9743 142.499 80.7752 142.661C80.4759 142.701 80.1766 142.742 79.8772 142.782C77.9364 143.045 75.9955 143.307 74.0547 143.569C66.9198 144.533 59.7851 145.499 52.6508 146.467C51.6336 146.605 50.6165 146.743 49.5993 146.881C48.8234 146.986 48.0476 147.091 47.2717 147.197C46.9921 147.234 46.9921 147.234 46.7069 147.273C44.5417 147.567 42.3765 147.861 40.2113 148.155C38.8919 148.334 37.5724 148.513 36.2529 148.692C35.3681 148.812 34.4833 148.932 33.5985 149.053C33.073 149.124 32.5474 149.196 32.0218 149.267C31.7823 149.299 31.5428 149.332 31.3033 149.364C30.9808 149.408 30.6583 149.452 30.3358 149.496C30.1571 149.52 29.9785 149.544 29.7945 149.569C29.3527 149.62 29.3527 149.62 28.8271 149.62C28.8271 149.331 28.8271 149.042 28.8271 148.744C30.1995 148.482 31.5739 148.27 32.9585 148.084C33.2801 148.04 33.2801 148.04 33.6082 147.996C34.1994 147.915 34.7905 147.836 35.3817 147.756C36.0238 147.669 36.6659 147.582 37.3079 147.495C38.4263 147.343 39.5446 147.192 40.663 147.041C42.3071 146.818 43.9512 146.596 45.5952 146.373C48.8175 145.936 52.0398 145.5 55.2622 145.064C55.4274 145.042 55.5926 145.02 55.7628 144.997C55.9282 144.974 56.0936 144.952 56.264 144.929C58.0947 144.681 59.9254 144.434 61.7561 144.186C62.0887 144.141 62.4213 144.096 62.754 144.051C63.253 143.983 63.7521 143.916 64.2512 143.848C66.0799 143.601 67.9086 143.353 69.7374 143.106C69.9015 143.083 70.0657 143.061 70.2349 143.038C72.5549 142.724 74.8749 142.41 77.1949 142.097C84.3224 141.133 91.4496 140.167 98.5763 139.197C101.273 138.83 103.97 138.464 106.667 138.098C108.71 137.821 110.752 137.543 112.795 137.264C114.155 137.078 115.516 136.893 116.876 136.709C117.64 136.606 118.404 136.502 119.167 136.397C119.85 136.303 120.532 136.211 121.215 136.119C121.46 136.086 121.704 136.052 121.949 136.018C122.278 135.973 122.608 135.929 122.937 135.885C123.21 135.848 123.21 135.848 123.489 135.81C123.933 135.781 124.242 135.817 124.661 135.955Z" fill="#EF9B08"/>
<path d="M157.071 135.254C157.071 135.543 157.071 135.832 157.071 136.13C155.755 136.447 154.437 136.643 153.096 136.823C152.855 136.856 152.613 136.889 152.372 136.922C151.712 137.012 151.052 137.101 150.392 137.19C149.679 137.286 148.966 137.383 148.253 137.48C146.858 137.67 145.463 137.859 144.068 138.048C142.934 138.201 141.8 138.355 140.667 138.508C137.452 138.944 134.237 139.379 131.022 139.814C130.849 139.837 130.676 139.861 130.498 139.885C130.238 139.92 130.238 139.92 129.972 139.956C127.159 140.336 124.346 140.717 121.534 141.1C118.645 141.492 115.756 141.884 112.867 142.274C111.246 142.493 109.624 142.713 108.002 142.933C106.623 143.121 105.243 143.308 103.863 143.493C103.159 143.588 102.455 143.683 101.751 143.78C101.107 143.868 100.462 143.955 99.8179 144.041C99.4738 144.087 99.1299 144.134 98.786 144.182C98.48 144.222 98.48 144.222 98.1679 144.264C97.9918 144.287 97.8158 144.311 97.6344 144.336C97.1454 144.365 96.7507 144.308 96.2773 144.189C96.2773 143.958 96.2773 143.726 96.2773 143.488C108.325 141.814 120.378 140.183 132.432 138.555C134.399 138.29 136.366 138.024 138.333 137.758C141.021 137.395 143.709 137.032 146.396 136.669C147.244 136.554 148.092 136.44 148.94 136.325C150.069 136.173 151.198 136.02 152.327 135.868C152.741 135.812 153.155 135.756 153.569 135.7C154.131 135.624 154.693 135.548 155.255 135.472C155.421 135.45 155.586 135.428 155.757 135.404C156.876 135.254 156.876 135.254 157.071 135.254Z" fill="#EFA702"/>
<path d="M58.0849 35.5654C58.2357 36.6157 58.3853 37.6662 58.534 38.7167C58.5847 39.0738 58.6357 39.4308 58.6869 39.7878C58.7608 40.3022 58.8336 40.8167 58.9061 41.3313C58.9291 41.4897 58.9521 41.6482 58.9758 41.8114C59.0941 42.6591 59.1605 43.4695 59.1361 44.3254C58.7164 44.3845 58.2967 44.4428 57.8768 44.5006C57.6998 44.5257 57.6998 44.5257 57.5192 44.5512C56.884 44.638 56.2725 44.6835 55.6321 44.6758C55.4816 43.5941 55.3319 42.5123 55.183 41.4304C55.1322 41.0624 55.0812 40.6945 55.03 40.3266C54.9564 39.7975 54.8835 39.2682 54.8108 38.7389C54.7878 38.5748 54.7649 38.4107 54.7412 38.2416C54.7201 38.0873 54.6991 37.9331 54.6774 37.7741C54.6587 37.6391 54.64 37.5041 54.6208 37.365C54.5778 36.936 54.5625 36.5219 54.5809 36.091C54.928 35.7439 55.561 35.7898 56.0372 35.7297C56.1559 35.7138 56.2746 35.6978 56.3969 35.6814C56.9672 35.6073 57.5084 35.5654 58.0849 35.5654Z" fill="#EFA702"/>
<path d="M34.0821 73.5835C34.2708 73.9608 34.3095 74.2281 34.3559 74.6456C34.3706 74.7705 34.3852 74.8954 34.4004 75.0241C34.4293 75.4618 34.4357 75.891 34.4345 76.3295C34.4342 76.4714 34.434 76.6134 34.4337 76.7597C34.4333 76.8678 34.4329 76.976 34.4325 77.0875C33.4635 77.2135 32.4943 77.3382 31.525 77.4617C31.1958 77.5039 30.8667 77.5464 30.5376 77.5892C30.0624 77.651 29.587 77.7116 29.1115 77.7718C28.9664 77.791 28.8212 77.8102 28.6717 77.8299C27.723 77.9486 26.8039 77.9802 25.8478 77.9635C25.4277 75.6795 25.4277 75.6795 25.4974 74.6347C25.8837 74.2484 26.7251 74.3133 27.2624 74.2508C27.5032 74.222 27.5032 74.222 27.749 74.1926C28.0899 74.152 28.4309 74.1118 28.7719 74.072C29.2919 74.0111 29.8116 73.9488 30.3314 73.8863C30.6625 73.8471 30.9937 73.808 31.3248 73.769C31.4798 73.7503 31.6348 73.7317 31.7944 73.7126C32.562 73.6237 33.3078 73.5621 34.0821 73.5835Z" fill="#EF9B08"/>
<path d="M44.2437 93.7314C44.6773 93.9916 44.6773 93.9916 45.1196 94.257C45.0116 94.835 44.8085 95.1987 44.4585 95.6682C44.308 95.8715 44.308 95.8715 44.1544 96.079C43.9926 96.2937 43.9926 96.2937 43.8276 96.5127C43.7181 96.6596 43.6087 96.8065 43.4959 96.9578C42.5401 98.2352 41.5606 99.4933 40.5645 100.739C40.2754 100.624 39.9863 100.508 39.6885 100.389C39.6885 99.6412 39.7335 99.5407 40.1573 98.9778C40.2582 98.8423 40.3591 98.7068 40.4631 98.5671C40.5724 98.424 40.6818 98.2808 40.7944 98.1333C40.9048 97.9863 41.0152 97.8393 41.1289 97.6879C43.7052 94.2699 43.7052 94.2699 44.2437 93.7314Z" fill="#EF9A08"/>
<path d="M32.5051 49.4062C33.3603 49.4882 33.9053 49.9152 34.5637 50.4246C34.7945 50.5997 35.0256 50.7744 35.2569 50.9488C35.3781 51.0402 35.4993 51.1316 35.6242 51.2258C36.0246 51.52 36.4319 51.8009 36.8433 52.0794C36.9799 52.1725 37.1165 52.2656 37.2572 52.3615C37.5242 52.5426 37.7923 52.722 38.0617 52.8995C38.1827 52.9823 38.3037 53.0651 38.4283 53.1504C38.5364 53.2226 38.6444 53.2947 38.7558 53.3691C38.9875 53.611 38.9875 53.611 38.9875 54.3118C38.8718 54.4853 38.7562 54.6587 38.6371 54.8374C37.8411 54.5721 37.2277 54.1244 36.5675 53.622C35.4748 52.8028 34.3621 52.0216 33.2241 51.2664C32.6948 50.9097 32.3377 50.6444 31.9795 50.107C32.1529 49.8758 32.3264 49.6445 32.5051 49.4062Z" fill="#EFA105"/>
</g>
<defs>
<filter id="filter0_d_1063_121104" x="-4.33059" y="-6.61294" width="241.809" height="176.285" filterUnits="userSpaceOnUse" color-interpolation-filters="sRGB">
<feFlood flood-opacity="0" result="BackgroundImageFix"/>
<feColorMatrix in="SourceAlpha" type="matrix" values="0 0 0 0 0 0 0 0 0 0 0 0 0 0 0 0 0 0 127 0" result="hardAlpha"/>
<feOffset dx="1.81176" dy="4.52941"/>
<feGaussianBlur stdDeviation="5.57118"/>
<feComposite in2="hardAlpha" operator="out"/>
<feColorMatrix type="matrix" values="0 0 0 0 0 0 0 0 0 0 0 0 0 0 0 0 0 0 0.2 0"/>
<feBlend mode="normal" in2="BackgroundImageFix" result="effect1_dropShadow_1063_121104"/>
<feBlend mode="normal" in="SourceGraphic" in2="effect1_dropShadow_1063_121104" result="shape"/>
</filter>
</defs>
</svg>
