<svg
  width="1440"
  height="200"
  viewBox="0 0 1440 200"
  fill="none"
  xmlns="http://www.w3.org/2000/svg"
>
  <mask
    id="mask0_137_379"
    style="mask-type: luminance"
    maskUnits="userSpaceOnUse"
    x="-40"
    y="0"
    width="2081"
    height="400"
  >
    <path d="M-40 -1.22411e-05H2040.01V400H-40V-1.22411e-05Z" fill="white" />
  </mask>
  <g mask="url(#mask0_137_379)">
    <path
      d="M377.435 184.941C403.406 184.941 415.377 173.267 415.377 157.8C415.377 153.417 413.624 149.042 410.415 145.832C405.742 141.16 397.571 139.41 389.982 139.41H377.138L365.174 184.941H377.435ZM323.726 84.8317H392.315C429.967 84.8317 453.026 92.1268 468.206 107.304C479.004 118.105 484.259 132.405 484.259 148.458C484.259 199.534 445.727 233.681 380.934 233.681H352.04L337.157 289.136H268.857L323.726 84.8317Z"
      fill="#E6E6F0"
    />
    <path
      d="M517.798 84.8331H692.049L676.868 140.871H569.754L564.209 161.594H664.024L650.891 210.917H551.075L544.946 233.102H653.517L638.636 289.141H462.93L517.798 84.8331Z"
      fill="#E6E6F0"
    />
    <path
      d="M714.204 84.8331H888.455L873.275 140.871H766.16L760.615 161.594H860.431L847.297 210.917H747.481L741.352 233.102H849.923L835.043 289.141H659.336L714.204 84.8331Z"
      fill="#E6E6F0"
    />
    <path
      d="M952.059 229.595C972.781 229.595 990.584 223.466 1001.09 212.958C1009.56 204.497 1015.69 190.776 1015.69 178.229C1015.69 167.138 1012.48 159.839 1007.22 154.587C1000.8 148.165 990.584 144.373 974.237 144.373H962.857L940.095 229.595H952.059ZM910.611 84.8317H982.999C1022.69 84.8317 1047.5 95.6294 1062.97 111.1C1078.14 126.276 1085.15 146.122 1085.15 170.93C1085.15 201.574 1073.48 229.595 1051.58 251.487C1027.07 276.002 991.754 289.136 944.47 289.136H855.742L910.611 84.8317Z"
      fill="#E6E6F0"
    />
    <path
      d="M1124.82 211.214L1084.83 84.8331H1156.63L1173.28 153.129L1226.39 84.8331H1307.24L1191.08 219.675L1172.4 289.141H1104.1L1124.82 211.214Z"
      fill="#E6E6F0"
    />
    <path
      d="M207.846 286.896L155.75 285.481L207.846 284.065V286.896ZM184.016 280.573L182.137 280.46L200.448 279.369C200.721 279.369 200.946 279.857 200.946 280.46C200.946 281.061 200.721 281.552 200.448 281.552L200.302 281.542V283.083L104.647 281.705L184.016 280.573ZM176.404 276.613V279.27L94.4151 277.93L176.404 276.613ZM171.169 272.886V275.457L104.21 274.154L171.169 272.886ZM174.525 269.161V271.641L88.7775 270.375L174.525 269.161ZM153.165 265.434V267.828L92.1846 266.6L153.165 265.434ZM105.435 259.049L161.115 257.982V260.202L105.435 259.049ZM127.395 241.137L99.5548 240.172L127.395 239.35V241.137ZM230.151 154.24H207.569C202.068 153.95 200.042 151.635 200.622 149.029C201.202 146.423 204.964 143.531 211.331 143.531H289.49L303.675 85.3443H198.45V85.2692L195.605 85.3443H181.803C178.3 85.1396 174.91 85.4193 171.606 85.9991L146.357 86.6846L166.449 87.2303C164.283 87.8817 162.155 88.6525 160.095 89.6108L101.12 90.4601L156.94 91.2581C155.74 91.9198 154.546 92.6019 153.386 93.359L99.814 94.2355L150.951 95.0574C150.082 95.6884 149.226 96.3398 148.383 97.0219L97.5903 98.011L146.132 98.9284C145.488 99.5014 144.847 100.078 144.216 100.681L69.2284 101.786L142.094 102.82C141.501 103.437 140.897 104.037 140.321 104.679L96.3898 105.562L138.882 106.377C138.329 107.028 137.763 107.663 137.224 108.335L61.2682 109.337L135.751 110.265C135.229 110.95 134.721 111.653 134.219 112.359L97.754 113.113L133.172 113.795C132.668 114.532 132.204 115.309 131.719 116.066L78.6244 116.892L130.73 117.632C130.307 118.317 129.868 118.989 129.462 119.688L39.1237 120.667L128.449 121.537C128.094 122.175 127.739 122.816 127.395 123.467L45.0171 124.443L126.419 125.295C126.072 125.988 125.761 126.7 125.427 127.403L69.6479 128.218L124.714 128.917C124.37 129.664 124.008 130.401 123.684 131.158L99.5548 131.993L123.07 132.686C122.76 133.429 122.463 134.173 122.17 134.923L74.5966 135.769L121.553 136.465C121.263 137.242 121.01 138.03 120.741 138.814L58.3898 139.544L120.294 140.134C120.028 140.932 119.738 141.727 119.489 142.529L30.7986 143.32L119.08 143.941C118.838 144.766 118.623 145.591 118.401 146.417L62.5745 147.095L118.074 147.614C117.842 148.514 117.624 149.411 117.416 150.311L93.9172 150.871L117.211 151.28C116.444 154.759 115.833 158.224 115.444 161.641L55.1395 162.2L115.369 162.555C115.27 163.5 115.199 164.434 115.131 165.369L86.131 165.976L115.049 166.337C114.912 168.588 114.844 170.815 114.888 172.991L36.2248 173.527L114.929 173.793C115.004 176.153 115.219 178.438 115.516 180.672L64.3275 181.078L115.598 181.228C115.751 182.319 115.898 183.417 116.109 184.471L45.6071 184.853L116.229 184.966C116.386 185.719 116.584 186.453 116.771 187.186L37.7015 187.309L116.904 187.738C117.556 190.17 118.36 192.483 119.346 194.645L59.8392 194.863L119.704 195.354C120.199 196.381 120.69 197.411 121.263 198.366L40.8938 198.638L121.836 199.188C122.491 200.207 123.207 201.169 123.96 202.09L25.7715 202.414L124.769 203.001C125.666 204.013 126.631 204.951 127.658 205.824L86.131 206.189L128.858 206.817V206.779C130.219 207.813 131.651 208.771 133.23 209.552L47.4522 209.965L135.85 210.63C140.13 212.25 145.078 213.045 150.832 212.714H178.911C180.282 212.714 181.438 212.939 182.458 213.287L32.5789 213.74L184.637 214.422C185.544 215.125 186.186 216.008 186.598 216.997L65.8179 217.516L186.994 218.256C187.158 219.05 187.178 219.883 187.079 220.722L93.9172 221.291L186.806 222.062C186.578 222.887 186.24 223.692 185.776 224.46L60.8249 225.067L184.75 225.858C183.952 226.772 182.959 227.56 181.793 228.177L35.4949 228.842L109.718 229.504H98.1462L97.5016 232.161L125.178 231.898V233.508L97.2561 233.18L96.5296 236.168L133.275 235.622V237.324L96.4103 236.666L94.6845 243.784L150.355 243.078V244.95L94.5993 244.131L93.808 247.392L150.174 246.802V248.763L93.6375 248.091L92.9384 250.973L138.708 250.53V252.576L92.6723 252.078L91.9425 255.086L150.365 254.254V256.389L91.847 255.478L90.1417 262.518L155.235 261.706V264.015L89.9849 263.152L83.9653 287.977H205.834C264.597 291.449 310.912 154.24 230.151 154.24Z"
      fill="#E6E6F0"
    />
    <path
      d="M106.721 190.906L46.7676 191.084L106.721 191.558V190.906Z"
      fill="#E6E6F0"
    />
    <path
      d="M114.499 153.909L65.8203 154.649L114.499 155.171V153.909Z"
      fill="#E6E6F0"
    />
    <path
      d="M113.111 158.896V157.72L29.0723 158.422L113.111 158.896Z"
      fill="#E6E6F0"
    />
    <path
      d="M113.569 169.159L25.7715 169.749L113.569 170.073V169.159Z"
      fill="#E6E6F0"
    />
    <path
      d="M114.493 176.784L52.1484 177.299L114.493 177.524V176.784Z"
      fill="#E6E6F0"
    />
    <path
      d="M1298.74 84.8315L1408.8 85.077L1298.74 85.9229C1298.57 85.9229 1298.43 85.6773 1298.43 85.3772C1298.43 85.077 1298.57 84.8315 1298.74 84.8315Z"
      fill="#E6E6F0"
    />
    <path
      d="M1273.42 91.4124L1340.19 91.7535L1273.42 92.6709C1273.22 92.6709 1273.06 92.3912 1273.06 92.04C1273.06 91.6921 1273.22 91.4124 1273.42 91.4124Z"
      fill="#E6E6F0"
    />
    <path
      d="M1292.8 98.6003L1362.23 99.0368L1292.8 100.029C1292.57 100.029 1292.38 99.7087 1292.38 99.3131C1292.38 98.9209 1292.57 98.6003 1292.8 98.6003Z"
      fill="#E6E6F0"
    />
    <path
      d="M1287.51 105.782L1377.77 106.314L1287.51 107.378C1287.26 107.378 1287.05 107.02 1287.05 106.58C1287.05 106.14 1287.26 105.782 1287.51 105.782Z"
      fill="#E6E6F0"
    />
    <path
      d="M1274.07 112.641L1371.85 113.269L1274.07 114.404C1273.79 114.404 1273.56 114.009 1273.56 113.521C1273.56 113.037 1273.79 112.641 1274.07 112.641Z"
      fill="#E6E6F0"
    />
    <path
      d="M1271.67 120.15L1305.06 120.873L1271.67 122.08C1271.37 122.08 1271.11 121.647 1271.11 121.115C1271.11 120.583 1271.37 120.15 1271.67 120.15Z"
      fill="#E6E6F0"
    />
    <path
      d="M1236.86 127.336L1316.76 128.155L1236.86 129.434C1236.52 129.434 1236.25 128.966 1236.25 128.383C1236.25 127.807 1236.52 127.336 1236.86 127.336Z"
      fill="#E6E6F0"
    />
    <path
      d="M1244 134.518L1337.6 135.432L1244 136.782C1243.64 136.782 1243.35 136.277 1243.35 135.65C1243.35 135.026 1243.64 134.518 1244 134.518Z"
      fill="#E6E6F0"
    />
    <path
      d="M1226.18 141.701L1280.4 142.71L1226.18 144.136C1225.79 144.136 1225.48 143.59 1225.48 142.918C1225.48 142.246 1225.79 141.701 1226.18 141.701Z"
      fill="#E6E6F0"
    />
    <path
      d="M1216.6 148.882L1252.94 149.987L1216.6 151.484C1216.19 151.484 1215.85 150.901 1215.85 150.185C1215.85 149.465 1216.19 148.882 1216.6 148.882Z"
      fill="#E6E6F0"
    />
    <path
      d="M1240.15 156.069L1314.72 157.269L1240.15 158.838C1239.71 158.838 1239.35 158.217 1239.35 157.453C1239.35 156.689 1239.71 156.069 1240.15 156.069Z"
      fill="#E6E6F0"
    />
    <path
      d="M1181.55 163.252L1288.09 164.548L1181.55 166.191C1181.09 166.191 1180.7 165.533 1180.7 164.721C1180.7 163.91 1181.09 163.252 1181.55 163.252Z"
      fill="#E6E6F0"
    />
    <path
      d="M1174.07 170.438L1258.54 171.829L1174.07 173.545C1173.58 173.545 1173.17 172.849 1173.17 171.99C1173.17 171.134 1173.58 170.438 1174.07 170.438Z"
      fill="#E6E6F0"
    />
    <path
      d="M1196.94 177.619L1254.96 179.106L1196.94 180.894C1196.42 180.894 1196 180.16 1196 179.257C1196 178.353 1196.42 177.619 1196.94 177.619Z"
      fill="#E6E6F0"
    />
    <path
      d="M1212.43 184.806L1243.44 186.388L1212.43 188.247C1211.88 188.247 1211.44 187.476 1211.44 186.528C1211.44 185.577 1211.88 184.806 1212.43 184.806Z"
      fill="#E6E6F0"
    />
    <path
      d="M1182.59 191.987L1258.87 193.665L1182.59 195.596C1182.01 195.596 1181.54 194.787 1181.54 193.792C1181.54 192.796 1182.01 191.987 1182.59 191.987Z"
      fill="#E6E6F0"
    />
    <path
      d="M1155.15 199.17L1252.94 200.944L1155.15 202.949C1154.55 202.949 1154.06 202.1 1154.06 201.06C1154.06 200.016 1154.55 199.17 1155.15 199.17Z"
      fill="#E6E6F0"
    />
    <path
      d="M1208.43 198.848L1314.96 197.552L1208.43 195.908C1207.96 195.908 1207.58 196.566 1207.58 197.378C1207.58 198.189 1207.96 198.848 1208.43 198.848Z"
      fill="#E6E6F0"
    />
    <path
      d="M1201.57 191.665L1286.04 190.274L1201.57 188.558C1201.08 188.558 1200.67 189.254 1200.67 190.113C1200.67 190.969 1201.08 191.665 1201.57 191.665Z"
      fill="#E6E6F0"
    />
    <path
      d="M1171.11 184.482L1229.13 182.995L1171.11 181.208C1170.59 181.208 1170.17 181.942 1170.17 182.845C1170.17 183.749 1170.59 184.482 1171.11 184.482Z"
      fill="#E6E6F0"
    />
    <path
      d="M1226.71 177.3L1257.71 175.717L1226.71 173.859C1226.16 173.859 1225.71 174.629 1225.71 175.577C1225.71 176.529 1226.16 177.3 1226.71 177.3Z"
      fill="#E6E6F0"
    />
    <path
      d="M1191.51 170.112L1267.79 168.434L1191.51 166.501C1190.93 166.501 1190.47 167.312 1190.47 168.308C1190.47 169.304 1190.93 170.112 1191.51 170.112Z"
      fill="#E6E6F0"
    />
    <path
      d="M1232.05 162.93L1329.83 161.156L1232.05 159.151C1231.44 159.151 1230.96 159.997 1230.96 161.04C1230.96 162.084 1231.44 162.93 1232.05 162.93Z"
      fill="#E6E6F0"
    />
    <path
      d="M1211.46 155.747L1322.37 153.878L1211.46 151.801C1210.83 151.801 1210.32 152.688 1210.32 153.776C1210.32 154.864 1210.83 155.747 1211.46 155.747Z"
      fill="#E6E6F0"
    />
    <path
      d="M1211.27 148.564L1291.17 146.6L1211.27 144.451C1210.62 144.451 1210.09 145.372 1210.09 146.508C1210.09 147.644 1210.62 148.564 1211.27 148.564Z"
      fill="#E6E6F0"
    />
    <path
      d="M1230.37 141.377L1292.38 139.317L1230.37 137.097C1229.69 137.097 1229.13 138.055 1229.13 139.235C1229.13 140.419 1229.69 141.377 1230.37 141.377Z"
      fill="#E6E6F0"
    />
    <path
      d="M1263.78 134.194L1364.03 132.039L1263.78 129.744C1263.07 129.744 1262.49 130.739 1262.49 131.971C1262.49 133.198 1263.07 134.194 1263.78 134.194Z"
      fill="#E6E6F0"
    />
    <path
      d="M1248.46 127.012L1316.38 124.761L1248.46 122.394C1247.73 122.394 1247.13 123.427 1247.13 124.703C1247.13 125.978 1247.73 127.012 1248.46 127.012Z"
      fill="#E6E6F0"
    />
    <path
      d="M1238.97 119.829L1334.47 117.483L1238.97 115.044C1238.21 115.044 1237.59 116.115 1237.59 117.435C1237.59 118.758 1238.21 119.829 1238.97 119.829Z"
      fill="#E6E6F0"
    />
    <path
      d="M1283.19 112.642L1357.76 110.2L1283.19 107.69C1282.4 107.69 1281.76 108.798 1281.76 110.166C1281.76 111.533 1282.4 112.642 1283.19 112.642Z"
      fill="#E6E6F0"
    />
    <path
      d="M1277.79 105.459L1369.1 102.922L1277.79 100.336C1276.97 100.336 1276.31 101.486 1276.31 102.898C1276.31 104.313 1276.97 105.459 1277.79 105.459Z"
      fill="#E6E6F0"
    />
    <path
      d="M1279.91 98.2764L1386.44 95.6434L1279.91 92.9866C1279.06 92.9866 1278.38 94.1735 1278.38 95.6332C1278.38 97.0929 1279.06 98.2764 1279.91 98.2764Z"
      fill="#E6E6F0"
    />
    <path
      d="M1299.68 91.0938L1357.7 88.3653L1299.68 85.6369C1298.81 85.6369 1298.11 86.8579 1298.11 88.3653C1298.11 89.8694 1298.81 91.0938 1299.68 91.0938Z"
      fill="#E6E6F0"
    />
    <path
      d="M1529.42 198.545V197.685L273.086 197.972L1529.42 198.545Z"
      fill="white"
    />
    <path
      d="M1531.65 194.585V193.818L446.738 194.053L1531.65 194.585Z"
      fill="white"
    />
    <path
      d="M1389.97 190.63V189.951L326.982 190.135L1389.97 190.63Z"
      fill="white"
    />
    <path
      d="M243.848 186.218L1500.18 186.675V186.088L243.848 186.218Z"
      fill="white"
    />
    <path
      d="M1239.78 81.8064L1717.28 80.3365V83.2764L1239.78 81.8064Z"
      fill="white"
    />
    <path
      d="M1701.9 84.2992V87.1436L825.127 85.7282L1701.9 84.2992Z"
      fill="white"
    />
    <path
      d="M1564.69 88.255V91.0107L813.174 89.6465L1564.69 88.255Z"
      fill="white"
    />
    <path
      d="M1497.97 92.2109V94.8779L792.773 93.5615L1497.97 92.2109Z"
      fill="white"
    />
    <path
      d="M1537.25 96.1653V98.7402L532.812 97.4783L1537.25 96.1653Z"
      fill="white"
    />
    <path
      d="M1451.09 100.121V102.607L781.787 101.397L1451.09 100.121Z"
      fill="white"
    />
    <path
      d="M1437.84 104.08V106.475L459.844 105.315L1437.84 104.08Z"
      fill="white"
    />
    <path
      d="M1364.94 108.035V110.337L794.287 109.228L1364.94 108.035Z"
      fill="white"
    />
    <path
      d="M1375.07 111.996V114.209L618.955 113.152L1375.07 111.996Z"
      fill="white"
    />
    <path
      d="M1302.18 115.951V118.076L256.875 117.07L1302.18 115.951Z"
      fill="white"
    />
    <path
      d="M1316.11 119.906V121.938L310.889 120.984L1316.11 119.906Z"
      fill="white"
    />
    <path
      d="M1364.94 123.865V125.806L536.66 124.905L1364.94 123.865Z"
      fill="white"
    />
    <path
      d="M1266.43 127.821V129.673L810.801 128.82L1266.43 127.821Z"
      fill="white"
    />
    <path
      d="M1259.99 131.777V133.54L582.021 132.739L1259.99 131.777Z"
      fill="white"
    />
    <path
      d="M1329.07 135.731V137.402L433.457 136.655L1329.07 135.731Z"
      fill="white"
    />
    <path
      d="M1257.8 139.692V141.274L180.566 140.575L1257.8 139.692Z"
      fill="white"
    />
    <path
      d="M1286.01 143.646V145.137L471.816 144.492L1286.01 143.646Z"
      fill="white"
    />
    <path
      d="M1571.57 147.602V149.004L1272.56 148.407L1571.57 147.602Z"
      fill="white"
    />
    <path
      d="M1461.19 151.561V152.871L501.543 152.329L1461.19 151.561Z"
      fill="white"
    />
    <path
      d="M1448.49 155.517V156.738L164.727 156.247L1448.49 155.517Z"
      fill="white"
    />
    <path
      d="M1574.71 159.472V160.601L403.682 160.161L1574.71 159.472Z"
      fill="white"
    />
    <path
      d="M1475.96 163.428V164.468L687.744 164.079L1475.96 163.428Z"
      fill="white"
    />
    <path
      d="M1452.69 167.387V168.335L134.492 167.997L1452.69 167.387Z"
      fill="white"
    />
    <path
      d="M1486.63 171.343V172.202L230.303 171.916L1486.63 171.343Z"
      fill="white"
    />
    <path
      d="M1461.19 175.297V176.064L376.279 175.833L1461.19 175.297Z"
      fill="white"
    />
    <path
      d="M1550.87 179.258V179.937L487.881 179.752L1550.87 179.258Z"
      fill="white"
    />
    <path
      d="M316.309 183.671L1572.64 183.214V183.804L316.309 183.671Z"
      fill="white"
    />
    <path
      d="M1473.07 147.557V149.048L658.877 148.403L1473.07 147.557Z"
      fill="white"
    />
  </g>
</svg>
