<svg width="112" height="108" viewBox="0 0 112 108" fill="none" xmlns="http://www.w3.org/2000/svg">
<path fill-rule="evenodd" clip-rule="evenodd" d="M55.9712 0C26.2064 0 2 24.2172 2 53.9856C2 83.7504 26.21 107.957 55.9712 107.957C85.7324 107.957 109.964 83.7468 109.964 53.9856C109.964 24.2172 85.736 0 55.9712 0ZM55.9712 104.083C28.3448 104.083 5.87356 81.6192 5.87356 53.9856C5.87356 26.352 28.3448 3.87356 55.9712 3.87356C83.6048 3.87356 106.09 26.352 106.09 53.9856C106.09 81.6192 83.6048 104.083 55.9712 104.083ZM80.3073 48.8736L46.514 30.114C41.9096 27.5544 37.4996 30.2688 37.4996 35.424V72.5364C37.4996 76.3272 39.6776 78.8796 42.914 78.8796C44.0804 78.8796 45.2972 78.534 46.5212 77.8536L80.3073 59.0868C82.5429 57.8484 83.8316 55.9872 83.8316 53.9892C83.8316 51.9912 82.5429 50.1264 80.3073 48.8736ZM78.4244 55.6956L44.6456 74.4624C44.0048 74.8152 43.4144 75.0025 42.9176 75.0025C41.582 75.0025 41.3768 73.4616 41.3768 72.5328V35.424C41.3768 34.5024 41.582 32.9616 42.9176 32.9616C43.418 32.9616 44.0084 33.1524 44.6456 33.5016L78.4244 52.2612C79.3676 52.7868 79.958 53.4492 79.958 53.9856C79.9544 54.5148 79.364 55.1736 78.4244 55.6956Z" fill="white"/>
</svg>
