<svg
  width="210"
  height="40"
  viewBox="0 0 210 40"
  fill="none"
  xmlns="http://www.w3.org/2000/svg"
>
  <g clipPath="url(#clip0_137_739)">
    <path
      d="M10.0004 40C21.0464 40 30.0004 31.046 30.0004 20V6C30.0004 4.4087 29.3683 2.88258 28.2431 1.75736C27.1178 0.632141 25.5917 0 24.0004 0L11.0004 0V8.774C11.0004 10.776 11.1224 12.85 12.1724 14.554C12.9241 15.7752 13.9297 16.8204 15.1209 17.6188C16.3121 18.4171 17.6611 18.9499 19.0764 19.181L19.4594 19.243C19.6173 19.297 19.7544 19.399 19.8514 19.5347C19.9485 19.6704 20.0007 19.8331 20.0007 20C20.0007 20.1669 19.9485 20.3296 19.8514 20.4653C19.7544 20.601 19.6173 20.703 19.4594 20.757L19.0764 20.819C17.0086 21.1568 15.0991 22.1356 13.6175 23.6171C12.136 25.0987 11.1572 27.0082 10.8194 29.076L10.7574 29.459C10.7034 29.6169 10.6014 29.754 10.4657 29.851C10.33 29.9481 10.1673 30.0003 10.0004 30.0003C9.83355 30.0003 9.67086 29.9481 9.53512 29.851C9.39938 29.754 9.29738 29.6169 9.24341 29.459L9.18141 29.076C8.95028 27.6607 8.41747 26.3118 7.61913 25.1205C6.82079 23.9293 5.77558 22.9237 4.55441 22.172C2.85041 21.122 0.776414 21 -1.22559 21H-9.97559C-9.45259 31.581 -0.709586 40 10.0004 40Z"
      fill="#0E1534"
    />
    <path
      d="M-10 19H-1.226C0.776 19 2.85 18.878 4.554 17.828C5.88602 17.0073 7.0073 15.886 7.828 14.554C8.878 12.85 9 10.776 9 8.774V0H-4C-5.5913 0 -7.11742 0.632141 -8.24264 1.75736C-9.36786 2.88258 -10 4.4087 -10 6V19ZM36.455 2C36.455 2.53043 36.2443 3.03914 35.8692 3.41421C35.4941 3.78929 34.9854 4 34.455 4C33.9246 4 33.4159 3.78929 33.0408 3.41421C32.6657 3.03914 32.455 2.53043 32.455 2C32.455 1.46957 32.6657 0.960859 33.0408 0.585786C33.4159 0.210714 33.9246 0 34.455 0C34.9854 0 35.4941 0.210714 35.8692 0.585786C36.2443 0.960859 36.455 1.46957 36.455 2ZM201.711 12.104C207.302 12.104 210 16.009 210 20.532V29.027H204.149V21.54C204.149 19.49 203.401 17.798 201.256 17.798C199.111 17.798 198.396 19.49 198.396 21.54V29.026H192.545V21.54C192.545 19.49 191.83 17.798 189.684 17.798C187.539 17.798 186.791 19.49 186.791 21.54V29.026H180.941V20.531C180.941 16.008 183.638 12.103 189.229 12.103C192.285 12.103 194.495 13.307 195.503 15.292C196.575 13.307 198.916 12.102 201.711 12.102V12.104ZM170.427 23.82C172.312 23.82 173.125 22.095 173.125 20.044V12.754H178.975V20.76C178.975 25.544 176.18 29.515 170.427 29.515C164.673 29.515 161.878 25.545 161.878 20.76V12.754H167.729V20.044C167.729 22.094 168.541 23.82 170.427 23.82ZM153.275 29.547C149.602 29.547 147.229 28.278 145.831 25.805L150.057 23.429C150.642 24.47 151.519 24.991 152.982 24.991C154.185 24.991 154.737 24.568 154.737 24.047C154.737 22.062 146.156 24.08 146.156 17.767C146.156 14.707 148.756 12.234 153.177 12.234C157.045 12.234 159.158 14.121 160.101 15.944L155.875 18.352C155.518 17.376 154.412 16.79 153.307 16.79C152.462 16.79 152.007 17.148 152.007 17.636C152.007 19.654 160.588 17.799 160.588 23.917C160.588 27.334 157.24 29.547 153.275 29.547ZM132.833 36.512H126.982V20.858C126.982 15.878 130.72 12.266 135.921 12.266C140.992 12.266 144.86 16.139 144.86 20.858C144.86 26.065 141.414 29.515 136.246 29.515C135.043 29.515 133.841 29.157 132.833 28.603V36.512ZM135.921 24.015C137.774 24.015 139.009 22.583 139.009 20.89C139.009 19.166 137.774 17.766 135.921 17.766C134.068 17.766 132.833 19.166 132.833 20.891C132.833 22.583 134.068 24.015 135.921 24.015ZM121.121 11.03C119.203 11.03 117.611 9.435 117.611 7.515C117.611 5.595 119.203 4 121.121 4C123.039 4 124.632 5.595 124.632 7.515C124.632 9.435 123.039 11.03 121.121 11.03ZM118.196 12.754H124.047V29.027H118.196V12.754ZM106.97 29.515C101.899 29.515 98.031 25.61 98.031 20.858C98.031 16.139 101.899 12.234 106.97 12.234C112.041 12.234 115.909 16.139 115.909 20.858C115.909 25.61 112.041 29.515 106.97 29.515ZM106.97 24.015C108.823 24.015 110.058 22.583 110.058 20.89C110.058 19.166 108.823 17.734 106.97 17.734C105.117 17.734 103.882 19.166 103.882 20.89C103.882 22.583 105.117 24.015 106.97 24.015ZM86.983 37C82.953 37 80.027 35.21 78.532 32.02L83.375 29.417C83.895 30.524 84.87 31.663 86.885 31.663C88.999 31.663 90.396 30.328 90.559 27.985C89.779 28.669 88.543 29.189 86.691 29.189C82.172 29.189 78.531 25.707 78.531 20.825C78.531 16.107 82.4 12.266 87.471 12.266C92.672 12.266 96.41 15.879 96.41 20.858V27.302C96.41 33.16 92.346 37 86.983 37ZM87.373 23.69C89.128 23.69 90.461 22.485 90.461 20.695C90.461 18.938 89.129 17.766 87.373 17.766C85.65 17.766 84.285 18.938 84.285 20.696C84.285 22.486 85.65 23.689 87.373 23.689V23.69ZM68.607 29.515C63.536 29.515 59.667 25.61 59.667 20.858C59.667 16.139 63.536 12.234 68.607 12.234C73.677 12.234 77.546 16.139 77.546 20.858C77.546 25.61 73.678 29.515 68.607 29.515ZM68.607 24.015C70.46 24.015 71.695 22.583 71.695 20.89C71.695 19.166 70.46 17.734 68.607 17.734C66.754 17.734 65.519 19.166 65.519 20.89C65.519 22.583 66.754 24.015 68.607 24.015ZM49.013 7.06V23.494H58.7V29.027H48.2C44.495 29.027 43 27.074 43 23.982V7.06H49.013Z"
      fill="#0E1534"
    />
  </g>
  <defs>
    <clipPath id="clip0_137_739">
      <rect width="220" height="40" fill="white" transform="translate(-10)" />
    </clipPath>
  </defs>
</svg>
