<svg width="46" height="46" viewBox="0 0 46 46" fill="none" xmlns="http://www.w3.org/2000/svg">
<path d="M39.1719 16.4115H37.375V9.73793C37.9396 9.59214 38.4317 9.24545 38.759 8.76282C39.0862 8.28019 39.2263 7.69477 39.1528 7.11629C39.0793 6.5378 38.7974 6.00598 38.3598 5.6205C37.9223 5.23501 37.3592 5.02234 36.776 5.02234C36.1929 5.02234 35.6298 5.23501 35.1923 5.6205C34.7547 6.00598 34.4728 6.5378 34.3993 7.11629C34.3258 7.69477 34.4659 8.28019 34.7931 8.76282C35.1204 9.24545 35.6125 9.59214 36.1771 9.73793V14.5002C35.4669 13.1504 34.5006 11.952 33.332 10.9718C30.965 9.02923 27.9875 7.98589 24.9257 8.0261H21.027C18.221 7.99598 15.4808 8.87563 13.2166 10.5333C11.8063 11.5849 10.6472 12.9366 9.82292 14.4907V9.73793C10.3875 9.59214 10.8796 9.24545 11.2069 8.76282C11.5341 8.28019 11.6742 7.69477 11.6007 7.11629C11.5272 6.5378 11.2453 6.00598 10.8077 5.6205C10.3702 5.23501 9.80709 5.02234 9.22396 5.02234C8.64083 5.02234 8.07772 5.23501 7.64017 5.6205C7.20263 6.00598 6.9207 6.5378 6.84722 7.11629C6.77374 7.69477 6.91377 8.28019 7.24105 8.76282C7.56832 9.24545 8.06039 9.59214 8.625 9.73793V16.4115H6.82812C6.35156 16.4115 5.89452 16.6008 5.55754 16.9378C5.22056 17.2748 5.03125 17.7318 5.03125 18.2084V23.599C5.03125 24.0756 5.22056 24.5326 5.55754 24.8696C5.89452 25.2066 6.35156 25.3959 6.82812 25.3959H8.69807C9.00879 27.8764 10.2058 30.1609 12.0683 31.8283C13.9309 33.4957 16.3334 34.4335 18.833 34.4689L18.0346 38.8413C17.9609 39.2324 18.0205 39.637 18.2041 39.9902C18.3876 40.3434 18.6844 40.6247 19.0469 40.7891C19.4128 40.9657 19.8273 41.0145 20.2242 40.9276C20.6211 40.8408 20.9774 40.6233 21.2361 40.31L26.1176 34.4713H26.9561C29.4922 34.4856 31.9455 33.5699 33.852 31.8976C35.7586 30.2252 36.9861 27.9122 37.3025 25.3959H38.5603C38.4585 32.2761 36.5904 35.9507 32.2839 37.435C32.0027 36.9288 31.5467 36.5425 31.0012 36.3484C30.4558 36.1542 29.8583 36.1655 29.3206 36.3802C28.7828 36.5949 28.3418 36.9982 28.08 37.5146C27.8182 38.031 27.7537 38.6251 27.8984 39.1857C28.0431 39.7463 28.3872 40.235 28.8662 40.5602C29.3452 40.8854 29.9263 41.0248 30.5008 40.9524C31.0752 40.88 31.6036 40.6007 31.9869 40.1668C32.3702 39.7329 32.5823 39.1741 32.5833 38.5951C38.6783 36.5209 39.7163 30.8344 39.7708 25.2839C40.1197 25.1606 40.422 24.9325 40.6364 24.631C40.8508 24.3294 40.9668 23.969 40.9687 23.599V18.2084C40.9687 17.7318 40.7794 17.2748 40.4425 16.9378C40.1055 16.6008 39.6484 16.4115 39.1719 16.4115ZM31.9844 25.9949C31.9834 26.7888 31.6676 27.55 31.1062 28.1114C30.5447 28.6729 29.7836 28.9887 28.9896 28.9896H17.0104C16.2164 28.9887 15.4553 28.6729 14.8938 28.1114C14.3324 27.55 14.0166 26.7888 14.0156 25.9949V17.0105C14.0166 16.2165 14.3324 15.4553 14.8938 14.8939C15.4553 14.3325 16.2164 14.0166 17.0104 14.0157H28.9896C29.7836 14.0166 30.5447 14.3325 31.1062 14.8939C31.6676 15.4553 31.9834 16.2165 31.9844 17.0105V25.9949Z" fill="black"/>
<path d="M29.5885 15.8125C29.5885 15.6537 29.5254 15.5013 29.4131 15.389C29.3008 15.2767 29.1484 15.2136 28.9896 15.2136H23.599C23.4401 15.2136 23.2878 15.2767 23.1754 15.389C23.0631 15.5013 23 15.6537 23 15.8125C23 15.9714 23.0631 16.1237 23.1754 16.236C23.2878 16.3484 23.4401 16.4115 23.599 16.4115H28.9896C29.1484 16.4115 29.3008 16.3484 29.4131 16.236C29.5254 16.1237 29.5885 15.9714 29.5885 15.8125Z" fill="black"/>
<path d="M21.2035 16.4115C21.5342 16.4115 21.8024 16.1433 21.8024 15.8125C21.8024 15.4817 21.5342 15.2136 21.2035 15.2136C20.8727 15.2136 20.6045 15.4817 20.6045 15.8125C20.6045 16.1433 20.8727 16.4115 21.2035 16.4115Z" fill="black"/>
<path d="M27.7917 18.8073C27.3178 18.8073 26.8546 18.9478 26.4606 19.2111C26.0666 19.4743 25.7595 19.8485 25.5782 20.2863C25.3969 20.7241 25.3494 21.2058 25.4419 21.6705C25.5343 22.1353 25.7625 22.5622 26.0976 22.8973C26.4326 23.2323 26.8595 23.4605 27.3243 23.5529C27.789 23.6454 28.2707 23.5979 28.7085 23.4166C29.1463 23.2353 29.5205 22.9282 29.7837 22.5342C30.047 22.1402 30.1875 21.677 30.1875 21.2031C30.1875 20.5677 29.9351 19.9583 29.4858 19.509C29.0365 19.0597 28.4271 18.8073 27.7917 18.8073ZM27.7917 22.4011C27.5547 22.4011 27.3231 22.3308 27.1261 22.1992C26.9291 22.0675 26.7756 21.8805 26.6849 21.6616C26.5943 21.4427 26.5705 21.2018 26.6168 20.9694C26.663 20.7371 26.7771 20.5236 26.9446 20.3561C27.1121 20.1886 27.3256 20.0745 27.558 20.0282C27.7903 19.982 28.0312 20.0057 28.2501 20.0964C28.469 20.1871 28.6561 20.3406 28.7877 20.5376C28.9193 20.7346 28.9896 20.9662 28.9896 21.2031C28.9896 21.5209 28.8634 21.8255 28.6387 22.0502C28.4141 22.2749 28.1094 22.4011 27.7917 22.4011ZM18.2083 18.8073C17.5729 18.8073 16.9635 19.0597 16.5142 19.509C16.0649 19.9583 15.8125 20.5677 15.8125 21.2031C15.8125 21.362 15.8756 21.5143 15.9879 21.6267C16.1003 21.739 16.2526 21.8021 16.4115 21.8021C16.5703 21.8021 16.7227 21.739 16.835 21.6267C16.9473 21.5143 17.0104 21.362 17.0104 21.2031C17.0104 20.8854 17.1366 20.5807 17.3613 20.3561C17.5859 20.1314 17.8906 20.0052 18.2083 20.0052C18.526 20.0052 18.8307 20.1314 19.0554 20.3561C19.28 20.5807 19.4062 20.8854 19.4062 21.2031C19.4062 21.362 19.4694 21.5143 19.5817 21.6267C19.694 21.739 19.8464 21.8021 20.0052 21.8021C20.1641 21.8021 20.3164 21.739 20.4287 21.6267C20.5411 21.5143 20.6042 21.362 20.6042 21.2031C20.6042 20.5677 20.3517 19.9583 19.9024 19.509C19.4531 19.0597 18.8437 18.8073 18.2083 18.8073Z" fill="black"/>
</svg>
